<ttFont>
    <TTGlyph name="A" xMin="33" yMin="0" xMax="2099" yMax="1632">
      <contour>
        <pt x="33" y="0" on="1"/>
        <pt x="827" y="1516" on="1"/>
        <pt x="868" y="1597" on="0"/>
        <pt x="978" y="1624" on="1"/>
        <pt x="1010" y="1632" on="0"/>
        <pt x="1104" y="1632" on="0"/>
        <pt x="1215" y="1579" on="0"/>
        <pt x="1247" y="1522" on="1"/>
        <pt x="2099" y="0" on="1"/>
        <pt x="1288" y="0" on="1"/>
        <pt x="1225" y="158" on="1"/>
        <pt x="793" y="158" on="1"/>
        <pt x="739" y="0" on="1"/>
      </contour>
      <contour>
        <pt x="842" y="475" on="1"/>
        <pt x="1165" y="475" on="1"/>
        <pt x="1012" y="907" on="1"/>
      </contour>
    </TTGlyph>
    <TTGlyph name="AE" xMin="23" yMin="0" xMax="2380" yMax="1597">
      <contour>
        <pt x="1114" y="1597" on="1"/>
        <pt x="2349" y="1597" on="1"/>
        <pt x="2349" y="1155" on="1"/>
        <pt x="1825" y="1155" on="1"/>
        <pt x="1825" y="1001" on="1"/>
        <pt x="2349" y="1001" on="1"/>
        <pt x="2349" y="618" on="1"/>
        <pt x="1825" y="618" on="1"/>
        <pt x="1825" y="444" on="1"/>
        <pt x="2380" y="444" on="1"/>
        <pt x="2380" y="0" on="1"/>
        <pt x="1153" y="0" on="1"/>
        <pt x="1153" y="123" on="1"/>
        <pt x="745" y="123" on="1"/>
        <pt x="674" y="0" on="1"/>
        <pt x="23" y="0" on="1"/>
      </contour>
      <contour>
        <pt x="1153" y="920" on="1"/>
        <pt x="930" y="494" on="1"/>
        <pt x="1153" y="494" on="1"/>
      </contour>
    </TTGlyph>
    <TTGlyph name="Aacute" xMin="33" yMin="0" xMax="2099" yMax="2351">
      <component glyphName="A" x="0" y="0" flags="0x1004"/>
      <component glyphName="acute" x="1012" y="874" flags="0x1004"/>
    </TTGlyph>
    <TTGlyph name="Acircumflex" xMin="33" yMin="0" xMax="2099" yMax="2385">
      <component glyphName="A" x="0" y="0" flags="0x1004"/>
      <component glyphName="circumflex" x="672" y="874" flags="0x1004"/>
    </TTGlyph>
    <TTGlyph name="Adieresis" xMin="33" yMin="0" xMax="2099" yMax="2158">
      <component glyphName="A" x="0" y="0" flags="0x1004"/>
      <component glyphName="dieresis" x="434" y="874" flags="0x1004"/>
    </TTGlyph>
    <TTGlyph name="Agrave" xMin="33" yMin="0" xMax="2099" yMax="2350">
      <component glyphName="A" x="0" y="0" flags="0x1004"/>
      <component glyphName="grave" x="526" y="874" flags="0x1004"/>
    </TTGlyph>
    <TTGlyph name="Aring" xMin="33" yMin="0" xMax="2099" yMax="2381">
      <component glyphName="A" x="0" y="0" flags="0x1004"/>
      <component glyphName="ring" x="667" y="874" flags="0x1004"/>
    </TTGlyph>
    <TTGlyph name="Atilde" xMin="33" yMin="0" xMax="2099" yMax="2164">
      <component glyphName="A" x="0" y="0" flags="0x1004"/>
      <component glyphName="tilde" x="479" y="874" flags="0x1004"/>
    </TTGlyph>
    <TTGlyph name="B" xMin="123" yMin="-23" xMax="1808" yMax="1622">
      <contour>
        <pt x="123" y="1597" on="1"/>
        <pt x="666" y="1622" on="0"/>
        <pt x="903" y="1622" on="1"/>
        <pt x="1344" y="1622" on="0"/>
        <pt x="1536" y="1522" on="1"/>
        <pt x="1708" y="1432" on="0"/>
        <pt x="1708" y="1249" on="1"/>
        <pt x="1708" y="1139" on="0"/>
        <pt x="1593" y="990" on="0"/>
        <pt x="1475" y="936" on="1"/>
        <pt x="1623" y="886" on="0"/>
        <pt x="1703" y="794" on="1"/>
        <pt x="1808" y="673" on="0"/>
        <pt x="1808" y="462" on="1"/>
        <pt x="1808" y="7" on="0"/>
        <pt x="1104" y="-19" on="1"/>
        <pt x="1003" y="-23" on="0"/>
        <pt x="891" y="-23" on="0"/>
        <pt x="809" y="-21" on="0"/>
        <pt x="704" y="-18" on="0"/>
        <pt x="581" y="-15" on="0"/>
        <pt x="455" y="-10" on="0"/>
        <pt x="333" y="-6" on="0"/>
        <pt x="227" y="-1" on="0"/>
        <pt x="145" y="2" on="0"/>
        <pt x="123" y="4" on="1"/>
      </contour>
      <contour>
        <pt x="1143" y="621" on="1"/>
        <pt x="1143" y="705" on="0"/>
        <pt x="1044" y="705" on="1"/>
        <pt x="969" y="706" on="0"/>
        <pt x="811" y="618" on="1"/>
        <pt x="774" y="598" on="0"/>
        <pt x="748" y="584" on="1"/>
        <pt x="748" y="332" on="1"/>
        <pt x="762" y="337" on="0"/>
        <pt x="787" y="347" on="0"/>
        <pt x="832" y="364" on="1"/>
        <pt x="992" y="424" on="0"/>
        <pt x="1050" y="463" on="1"/>
        <pt x="1144" y="526" on="0"/>
      </contour>
      <contour>
        <pt x="748" y="866" on="1"/>
        <pt x="918" y="932" on="0"/>
        <pt x="974" y="971" on="1"/>
        <pt x="1090" y="1049" on="0"/>
        <pt x="1090" y="1139" on="1"/>
        <pt x="1090" y="1202" on="0"/>
        <pt x="1024" y="1220" on="1"/>
        <pt x="1006" y="1225" on="0"/>
        <pt x="966" y="1225" on="0"/>
        <pt x="913" y="1211" on="0"/>
        <pt x="887" y="1200" on="1"/>
        <pt x="847" y="1185" on="0"/>
        <pt x="750" y="1128" on="0"/>
        <pt x="748" y="1126" on="1"/>
      </contour>
    </TTGlyph>
    <TTGlyph name="C" xMin="61" yMin="-39" xMax="1413" yMax="1642">
      <contour>
        <pt x="1382" y="1077" on="1"/>
        <pt x="1317" y="1102" on="0"/>
        <pt x="1243" y="1102" on="1"/>
        <pt x="1091" y="1102" on="0"/>
        <pt x="866" y="881" on="0"/>
        <pt x="866" y="727" on="1"/>
        <pt x="866" y="624" on="0"/>
        <pt x="946" y="508" on="0"/>
        <pt x="1084" y="508" on="0"/>
        <pt x="1251" y="579" on="0"/>
        <pt x="1413" y="698" on="1"/>
        <pt x="1413" y="47" on="1"/>
        <pt x="1200" y="-39" on="0"/>
        <pt x="721" y="-39" on="0"/>
        <pt x="519" y="53" on="1"/>
        <pt x="198" y="200" on="0"/>
        <pt x="96" y="513" on="1"/>
        <pt x="62" y="620" on="0"/>
        <pt x="61" y="878" on="0"/>
        <pt x="125" y="1114" on="0"/>
        <pt x="186" y="1214" on="1"/>
        <pt x="308" y="1415" on="0"/>
        <pt x="749" y="1643" on="0"/>
        <pt x="1034" y="1642" on="1"/>
        <pt x="1251" y="1642" on="0"/>
        <pt x="1382" y="1593" on="1"/>
      </contour>
    </TTGlyph>
    <TTGlyph name="Cacute" xMin="61" yMin="-39" xMax="1417" yMax="2351">
      <component glyphName="C" x="0" y="0" flags="0x1204"/>
      <component glyphName="acute" x="825" y="874" flags="0x1004"/>
    </TTGlyph>
    <TTGlyph name="Ccaron" xMin="61" yMin="-39" xMax="1413" yMax="2379">
      <component glyphName="C" x="0" y="0" flags="0x1204"/>
      <component glyphName="caron" x="502" y="874" flags="0x1004"/>
    </TTGlyph>
    <TTGlyph name="Ccedilla" xMin="61" yMin="-631" xMax="1413" yMax="1642">
      <component glyphName="C" x="0" y="0" flags="0x1204"/>
      <component glyphName="cedilla" x="563" y="0" flags="0x1004"/>
    </TTGlyph>
    <TTGlyph name="Ccircumflex" xMin="61" yMin="-39" xMax="1413" yMax="2385">
      <component glyphName="C" x="0" y="0" flags="0x1204"/>
      <component glyphName="circumflex" x="485" y="874" flags="0x1004"/>
    </TTGlyph>
    <TTGlyph name="D" xMin="123" yMin="0" xMax="1735" yMax="1642">
      <contour>
        <pt x="123" y="1597" on="1"/>
        <pt x="730" y="1642" on="0"/>
        <pt x="1101" y="1642" on="0"/>
        <pt x="1316" y="1573" on="0"/>
        <pt x="1401" y="1512" on="1"/>
        <pt x="1566" y="1395" on="0"/>
        <pt x="1735" y="1007" on="0"/>
        <pt x="1735" y="609" on="0"/>
        <pt x="1606" y="312" on="0"/>
        <pt x="1492" y="210" on="1"/>
        <pt x="1259" y="-1" on="0"/>
        <pt x="889" y="0" on="1"/>
        <pt x="123" y="0" on="1"/>
      </contour>
      <contour>
        <pt x="745" y="1090" on="1"/>
        <pt x="745" y="481" on="1"/>
        <pt x="798" y="526" on="0"/>
        <pt x="860" y="570" on="1"/>
        <pt x="1098" y="741" on="0"/>
        <pt x="1098" y="928" on="1"/>
        <pt x="1098" y="1019" on="0"/>
        <pt x="990" y="1174" on="0"/>
        <pt x="817" y="1174" on="0"/>
      </contour>
    </TTGlyph>
    <TTGlyph name="DZ" xMin="123" yMin="0" xMax="3457" yMax="1642">
      <component glyphName="D" x="0" y="0" flags="0x1004"/>
      <component glyphName="Z" x="1731" y="0" flags="0x1004"/>
    </TTGlyph>
    <TTGlyph name="DZcaron" xMin="123" yMin="0" xMax="3418" yMax="2296">
      <component glyphName="D" x="0" y="0" flags="0x1004"/>
      <component glyphName="Z" x="1692" y="0" flags="0x1004"/>
      <component glyphName="caron" x="2280" y="791" flags="0x1004"/>
    </TTGlyph>
    <TTGlyph name="Dcaron" xMin="123" yMin="0" xMax="1735" yMax="2380">
      <component glyphName="D" x="0" y="0" flags="0x1204"/>
      <component glyphName="caron" x="443" y="875" flags="0x1004"/>
    </TTGlyph>
    <TTGlyph name="Dcroat" xMin="49" yMin="0" xMax="1735" yMax="1642">
      <component glyphName="Eth" x="0" y="0" flags="0x1004"/>
    </TTGlyph>
    <TTGlyph name="Dz" xMin="123" yMin="0" xMax="3097" yMax="1642">
      <component glyphName="D" x="0" y="0" flags="0x1004"/>
      <component glyphName="z" x="1702" y="0" flags="0x1004"/>
    </TTGlyph>
    <TTGlyph name="Dzcaron" xMin="123" yMin="0" xMax="3179" yMax="2068">
      <component glyphName="D" x="0" y="0" flags="0x1004"/>
      <component glyphName="z" x="1784" y="0" flags="0x1004"/>
      <component glyphName="caron" x="2161" y="563" flags="0x1004"/>
    </TTGlyph>
    <TTGlyph name="E" xMin="123" yMin="0" xMax="1309" yMax="1597">
      <contour>
        <pt x="123" y="1597" on="1"/>
        <pt x="1274" y="1597" on="1"/>
        <pt x="1274" y="1137" on="1"/>
        <pt x="745" y="1137" on="1"/>
        <pt x="745" y="1006" on="1"/>
        <pt x="1272" y="1006" on="1"/>
        <pt x="1272" y="614" on="1"/>
        <pt x="745" y="614" on="1"/>
        <pt x="745" y="463" on="1"/>
        <pt x="1309" y="463" on="1"/>
        <pt x="1309" y="0" on="1"/>
        <pt x="123" y="0" on="1"/>
      </contour>
    </TTGlyph>
    <TTGlyph name="Eacute" xMin="123" yMin="0" xMax="1309" yMax="2351">
      <component glyphName="E" x="0" y="0" flags="0x1204"/>
      <component glyphName="acute" x="635" y="874" flags="0x1004"/>
    </TTGlyph>
    <TTGlyph name="Ecaron" xMin="123" yMin="0" xMax="1309" yMax="2379">
      <component glyphName="E" x="0" y="0" flags="0x1204"/>
      <component glyphName="caron" x="312" y="874" flags="0x1004"/>
    </TTGlyph>
    <TTGlyph name="Ecircumflex" xMin="123" yMin="0" xMax="1309" yMax="2385">
      <component glyphName="E" x="0" y="0" flags="0x1204"/>
      <component glyphName="circumflex" x="295" y="874" flags="0x1004"/>
    </TTGlyph>
    <TTGlyph name="Edieresis" xMin="123" yMin="0" xMax="1309" yMax="2158">
      <component glyphName="E" x="0" y="0" flags="0x1204"/>
      <component glyphName="dieresis" x="57" y="874" flags="0x1004"/>
    </TTGlyph>
    <TTGlyph name="Edoublegrave" xMin="26" yMin="0" xMax="1309" yMax="2359">
      <component glyphName="E" x="0" y="0" flags="0x1204"/>
      <component glyphName="uni030F" x="-89" y="874" flags="0x1004"/>
    </TTGlyph>
    <TTGlyph name="Egrave" xMin="123" yMin="0" xMax="1309" yMax="2350">
      <component glyphName="E" x="0" y="0" flags="0x1204"/>
      <component glyphName="grave" x="150" y="874" flags="0x1004"/>
    </TTGlyph>
    <TTGlyph name="Einvertedbreve" xMin="123" yMin="0" xMax="1309" yMax="2324">
      <component glyphName="E" x="0" y="0" flags="0x1204"/>
      <component glyphName="uni0311" x="46" y="874" flags="0x1004"/>
    </TTGlyph>
    <TTGlyph name="Eth" xMin="49" yMin="0" xMax="1735" yMax="1642">
      <contour>
        <pt x="123" y="1597" on="1"/>
        <pt x="730" y="1642" on="0"/>
        <pt x="1101" y="1642" on="0"/>
        <pt x="1316" y="1573" on="0"/>
        <pt x="1401" y="1512" on="1"/>
        <pt x="1566" y="1395" on="0"/>
        <pt x="1735" y="1007" on="0"/>
        <pt x="1735" y="609" on="0"/>
        <pt x="1606" y="312" on="0"/>
        <pt x="1492" y="210" on="1"/>
        <pt x="1259" y="-1" on="0"/>
        <pt x="889" y="0" on="1"/>
        <pt x="123" y="0" on="1"/>
        <pt x="123" y="748" on="1"/>
        <pt x="49" y="748" on="1"/>
        <pt x="49" y="983" on="1"/>
        <pt x="123" y="983" on="1"/>
      </contour>
      <contour>
        <pt x="745" y="1090" on="1"/>
        <pt x="745" y="983" on="1"/>
        <pt x="922" y="983" on="1"/>
        <pt x="922" y="748" on="1"/>
        <pt x="745" y="748" on="1"/>
        <pt x="745" y="481" on="1"/>
        <pt x="798" y="526" on="0"/>
        <pt x="860" y="570" on="1"/>
        <pt x="1098" y="741" on="0"/>
        <pt x="1098" y="928" on="1"/>
        <pt x="1098" y="1019" on="0"/>
        <pt x="990" y="1174" on="0"/>
        <pt x="817" y="1174" on="0"/>
      </contour>
    </TTGlyph>
    <TTGlyph name="Euro" xMin="33" yMin="-68" xMax="1552" yMax="1673">
      <contour>
        <pt x="969" y="643" on="1"/>
        <pt x="1036" y="449" on="0"/>
        <pt x="1270" y="449" on="1"/>
        <pt x="1388" y="449" on="0"/>
        <pt x="1552" y="535" on="1"/>
        <pt x="1552" y="18" on="1"/>
        <pt x="1335" y="-68" on="0"/>
        <pt x="1092" y="-68" on="1"/>
        <pt x="756" y="-68" on="0"/>
        <pt x="245" y="308" on="0"/>
        <pt x="207" y="643" on="1"/>
        <pt x="33" y="643" on="1"/>
        <pt x="33" y="776" on="1"/>
        <pt x="201" y="776" on="1"/>
        <pt x="207" y="879" on="0"/>
        <pt x="211" y="901" on="1"/>
        <pt x="33" y="901" on="1"/>
        <pt x="33" y="1034" on="1"/>
        <pt x="240" y="1034" on="1"/>
        <pt x="328" y="1330" on="0"/>
        <pt x="825" y="1673" on="0"/>
        <pt x="1174" y="1673" on="1"/>
        <pt x="1391" y="1673" on="0"/>
        <pt x="1522" y="1624" on="1"/>
        <pt x="1522" y="1200" on="1"/>
        <pt x="1449" y="1223" on="0"/>
        <pt x="1388" y="1223" on="1"/>
        <pt x="1274" y="1223" on="0"/>
        <pt x="1074" y="1122" on="0"/>
        <pt x="1014" y="1034" on="1"/>
        <pt x="1419" y="1034" on="1"/>
        <pt x="1419" y="901" on="1"/>
        <pt x="954" y="901" on="1"/>
        <pt x="944" y="855" on="0"/>
        <pt x="944" y="809" on="1"/>
        <pt x="944" y="776" on="1"/>
        <pt x="1419" y="776" on="1"/>
        <pt x="1419" y="643" on="1"/>
      </contour>
    </TTGlyph>
    <TTGlyph name="F" xMin="123" yMin="0" xMax="1272" yMax="1597">
      <contour>
        <pt x="123" y="1597" on="1"/>
        <pt x="1272" y="1597" on="1"/>
        <pt x="1272" y="1145" on="1"/>
        <pt x="745" y="1145" on="1"/>
        <pt x="745" y="997" on="1"/>
        <pt x="1272" y="997" on="1"/>
        <pt x="1272" y="561" on="1"/>
        <pt x="745" y="561" on="1"/>
        <pt x="745" y="0" on="1"/>
        <pt x="123" y="0" on="1"/>
      </contour>
    </TTGlyph>
    <TTGlyph name="G" xMin="63" yMin="-39" xMax="1618" yMax="1642">
      <contour>
        <pt x="1400" y="760" on="1"/>
        <pt x="1553" y="761" on="1"/>
        <pt x="1609" y="761" on="0"/>
        <pt x="1618" y="762" on="1"/>
        <pt x="1618" y="20" on="1"/>
        <pt x="1267" y="-39" on="0"/>
        <pt x="849" y="-39" on="0"/>
        <pt x="483" y="80" on="0"/>
        <pt x="215" y="300" on="0"/>
        <pt x="63" y="613" on="0"/>
        <pt x="63" y="807" on="1"/>
        <pt x="63" y="1188" on="0"/>
        <pt x="670" y="1642" on="0"/>
        <pt x="1145" y="1642" on="1"/>
        <pt x="1378" y="1642" on="0"/>
        <pt x="1514" y="1592" on="1"/>
        <pt x="1538" y="1583" on="0"/>
        <pt x="1540" y="1583" on="1"/>
        <pt x="1540" y="1100" on="1"/>
        <pt x="1393" y="1145" on="0"/>
        <pt x="1270" y="1145" on="1"/>
        <pt x="1046" y="1145" on="0"/>
        <pt x="792" y="907" on="0"/>
        <pt x="793" y="752" on="1"/>
        <pt x="793" y="644" on="0"/>
        <pt x="912" y="506" on="0"/>
        <pt x="1016" y="506" on="1"/>
        <pt x="1072" y="506" on="0"/>
        <pt x="1102" y="520" on="1"/>
        <pt x="1104" y="557" on="0"/>
        <pt x="1104" y="615" on="1"/>
        <pt x="1104" y="760" on="1"/>
        <pt x="1252" y="760" on="0"/>
      </contour>
    </TTGlyph>
    <TTGlyph name="Gacute" xMin="63" yMin="-39" xMax="1618" yMax="2351">
      <component glyphName="G" x="0" y="0" flags="0x1204"/>
      <component glyphName="acute" x="888" y="874" flags="0x1004"/>
    </TTGlyph>
    <TTGlyph name="Gbreve" xMin="63" yMin="-39" xMax="1618" yMax="2346">
      <component glyphName="G" x="0" y="0" flags="0x1204"/>
      <component glyphName="breve" x="301" y="874" flags="0x1004"/>
    </TTGlyph>
    <TTGlyph name="H" xMin="123" yMin="0" xMax="1700" yMax="1597">
      <contour>
        <pt x="1077" y="1597" on="1"/>
        <pt x="1700" y="1597" on="1"/>
        <pt x="1700" y="0" on="1"/>
        <pt x="1077" y="0" on="1"/>
        <pt x="1077" y="590" on="1"/>
        <pt x="745" y="561" on="1"/>
        <pt x="745" y="0" on="1"/>
        <pt x="123" y="0" on="1"/>
        <pt x="123" y="1597" on="1"/>
        <pt x="745" y="1597" on="1"/>
        <pt x="745" y="1020" on="1"/>
        <pt x="1077" y="1047" on="1"/>
      </contour>
    </TTGlyph>
    <TTGlyph name="Hbar" xMin="123" yMin="0" xMax="1700" yMax="1597">
      <contour>
        <pt x="745" y="1426" on="1"/>
        <pt x="1077" y="1426" on="1"/>
        <pt x="1077" y="1597" on="1"/>
        <pt x="1700" y="1597" on="1"/>
        <pt x="1700" y="0" on="1"/>
        <pt x="1077" y="0" on="1"/>
        <pt x="1077" y="590" on="1"/>
        <pt x="745" y="561" on="1"/>
        <pt x="745" y="0" on="1"/>
        <pt x="123" y="0" on="1"/>
        <pt x="123" y="1597" on="1"/>
        <pt x="745" y="1597" on="1"/>
      </contour>
      <contour>
        <pt x="1077" y="1233" on="1"/>
        <pt x="745" y="1233" on="1"/>
        <pt x="745" y="1020" on="1"/>
        <pt x="1077" y="1047" on="1"/>
      </contour>
    </TTGlyph>
    <TTGlyph name="I" xMin="123" yMin="0" xMax="745" yMax="1597">
      <contour>
        <pt x="745" y="0" on="1"/>
        <pt x="123" y="0" on="1"/>
        <pt x="123" y="1597" on="1"/>
        <pt x="745" y="1597" on="1"/>
      </contour>
    </TTGlyph>
    <TTGlyph name="IJ" xMin="123" yMin="-39" xMax="2342" yMax="1597">
      <component glyphName="I" x="0" y="0" flags="0x1004"/>
      <component glyphName="J" x="861" y="0" flags="0x1004"/>
    </TTGlyph>
    <TTGlyph name="Iacute" xMin="123" yMin="0" xMax="965" yMax="2351">
      <component glyphName="I" x="0" y="0" flags="0x1204"/>
      <component glyphName="acute" x="373" y="874" flags="0x1004"/>
    </TTGlyph>
    <TTGlyph name="Icircumflex" xMin="80" yMin="0" xMax="805" yMax="2385">
      <component glyphName="I" x="0" y="0" flags="0x1204"/>
      <component glyphName="circumflex" x="33" y="874" flags="0x1004"/>
    </TTGlyph>
    <TTGlyph name="Idieresis" xMin="-102" yMin="0" xMax="984" yMax="2158">
      <component glyphName="I" x="0" y="0" flags="0x1204"/>
      <component glyphName="dieresis" x="-204" y="874" flags="0x1004"/>
    </TTGlyph>
    <TTGlyph name="Idotaccent" xMin="123" yMin="0" xMax="778" yMax="2390">
      <component glyphName="I" x="0" y="0" flags="0x1204"/>
      <component glyphName="dotaccent" x="127" y="874" flags="0x1004"/>
    </TTGlyph>
    <TTGlyph name="Igrave" xMin="-79" yMin="0" xMax="745" yMax="2350">
      <component glyphName="I" x="0" y="0" flags="0x1204"/>
      <component glyphName="grave" x="-112" y="874" flags="0x1004"/>
    </TTGlyph>
    <TTGlyph name="Iinvertedbreve" xMin="-112" yMin="0" xMax="998" yMax="2324">
      <component glyphName="I" x="0" y="0" flags="0x1204"/>
      <component glyphName="uni0311" x="-216" y="874" flags="0x1004"/>
    </TTGlyph>
    <TTGlyph name="Iogonek" xMin="117" yMin="-629" xMax="745" yMax="1597">
      <component glyphName="I" x="0" y="0" flags="0x1004"/>
      <component glyphName="ogonek" x="66" y="0" flags="0x1004"/>
    </TTGlyph>
    <TTGlyph name="Itilde" xMin="-14" yMin="0" xMax="920" yMax="2164">
      <component glyphName="I" x="0" y="0" flags="0x1204"/>
      <component glyphName="tilde" x="-159" y="874" flags="0x1004"/>
    </TTGlyph>
    <TTGlyph name="J" xMin="14" yMin="-39" xMax="1481" yMax="1597">
      <contour>
        <pt x="702" y="-39" on="1"/>
        <pt x="570" y="-39" on="0"/>
        <pt x="308" y="31" on="0"/>
        <pt x="214" y="105" on="1"/>
        <pt x="14" y="261" on="0"/>
        <pt x="14" y="567" on="1"/>
        <pt x="14" y="719" on="1"/>
        <pt x="569" y="795" on="1"/>
        <pt x="569" y="641" on="1"/>
        <pt x="569" y="502" on="0"/>
        <pt x="652" y="462" on="1"/>
        <pt x="702" y="437" on="0"/>
        <pt x="754" y="464" on="1"/>
        <pt x="780" y="478" on="0"/>
        <pt x="800" y="504" on="1"/>
        <pt x="844" y="560" on="0"/>
        <pt x="844" y="647" on="1"/>
        <pt x="844" y="1597" on="1"/>
        <pt x="1481" y="1597" on="1"/>
        <pt x="1481" y="825" on="1"/>
        <pt x="1481" y="222" on="0"/>
        <pt x="1111" y="40" on="1"/>
        <pt x="953" y="-38" on="0"/>
      </contour>
    </TTGlyph>
    <TTGlyph name="Jcircumflex" xMin="96" yMin="-39" xMax="1563" yMax="2385">
      <component glyphName="J" x="82" y="0" flags="0x1004"/>
      <component glyphName="circumflex" x="778" y="874" flags="0x1004"/>
    </TTGlyph>
    <TTGlyph name="K" xMin="123" yMin="0" xMax="1870" yMax="1597">
      <contour>
        <pt x="756" y="1597" on="1"/>
        <pt x="756" y="1106" on="1"/>
        <pt x="1141" y="1597" on="1"/>
        <pt x="1790" y="1597" on="1"/>
        <pt x="1274" y="924" on="1"/>
        <pt x="1870" y="0" on="1"/>
        <pt x="1141" y="0" on="1"/>
        <pt x="807" y="565" on="1"/>
        <pt x="770" y="500" on="1"/>
        <pt x="770" y="0" on="1"/>
        <pt x="123" y="0" on="1"/>
        <pt x="123" y="1597" on="1"/>
      </contour>
    </TTGlyph>
    <TTGlyph name="L" xMin="123" yMin="0" xMax="1282" yMax="1597">
      <contour>
        <pt x="123" y="1597" on="1"/>
        <pt x="745" y="1597" on="1"/>
        <pt x="745" y="481" on="1"/>
        <pt x="1282" y="481" on="1"/>
        <pt x="1282" y="0" on="1"/>
        <pt x="123" y="0" on="1"/>
      </contour>
    </TTGlyph>
    <TTGlyph name="LJ" xMin="123" yMin="-39" xMax="2794" yMax="1597">
      <contour>
        <pt x="123" y="1597" on="1"/>
        <pt x="745" y="1597" on="1"/>
        <pt x="745" y="481" on="1"/>
        <pt x="1282" y="481" on="1"/>
        <pt x="1282" y="0" on="1"/>
        <pt x="123" y="0" on="1"/>
      </contour>
      <contour>
        <pt x="2014" y="-39" on="1"/>
        <pt x="1882" y="-39" on="0"/>
        <pt x="1620" y="31" on="0"/>
        <pt x="1526" y="105" on="1"/>
        <pt x="1326" y="261" on="0"/>
        <pt x="1327" y="567" on="1"/>
        <pt x="1327" y="719" on="1"/>
        <pt x="1882" y="795" on="1"/>
        <pt x="1882" y="641" on="1"/>
        <pt x="1882" y="502" on="0"/>
        <pt x="1965" y="462" on="1"/>
        <pt x="2015" y="437" on="0"/>
        <pt x="2068" y="464" on="1"/>
        <pt x="2093" y="478" on="0"/>
        <pt x="2113" y="504" on="1"/>
        <pt x="2157" y="560" on="0"/>
        <pt x="2157" y="647" on="1"/>
        <pt x="2157" y="1597" on="1"/>
        <pt x="2794" y="1597" on="1"/>
        <pt x="2794" y="825" on="1"/>
        <pt x="2794" y="222" on="0"/>
        <pt x="2424" y="40" on="1"/>
        <pt x="2265" y="-38" on="0"/>
      </contour>
    </TTGlyph>
    <TTGlyph name="Lacute" xMin="123" yMin="0" xMax="1282" yMax="2352">
      <component glyphName="L" x="0" y="0" flags="0x1204"/>
      <component glyphName="acute" x="375" y="875" flags="0x1004"/>
    </TTGlyph>
    <TTGlyph name="Lcaron" xMin="123" yMin="0" xMax="1483" yMax="1599">
      <component glyphName="L" x="0" y="0" flags="0x1004"/>
      <component glyphName="commaaccent" x="821" y="1734" flags="0x1004"/>
    </TTGlyph>
    <TTGlyph name="Ldotaccent" xMin="123" yMin="0" xMax="1522" yMax="1597">
      <component glyphName="L" x="0" y="0" flags="0x1204"/>
      <component glyphName="periodcentered" x="838" y="29" flags="0x1004"/>
    </TTGlyph>
    <TTGlyph name="Lj" xMin="123" yMin="-332" xMax="2228" yMax="1819">
      <contour>
        <pt x="123" y="1597" on="1"/>
        <pt x="745" y="1597" on="1"/>
        <pt x="745" y="481" on="1"/>
        <pt x="1282" y="481" on="1"/>
        <pt x="1282" y="0" on="1"/>
        <pt x="123" y="0" on="1"/>
      </contour>
      <contour>
        <pt x="1764" y="-332" on="1"/>
        <pt x="1523" y="-332" on="0"/>
        <pt x="1344" y="-188" on="1"/>
        <pt x="1346" y="70" on="1"/>
        <pt x="1386" y="53" on="0"/>
        <pt x="1478" y="53" on="0"/>
        <pt x="1540" y="104" on="0"/>
        <pt x="1566" y="142" on="1"/>
        <pt x="1626" y="231" on="0"/>
        <pt x="1626" y="317" on="1"/>
        <pt x="1626" y="1241" on="1"/>
        <pt x="2224" y="1241" on="1"/>
        <pt x="2224" y="111" on="1"/>
        <pt x="2224" y="-92" on="0"/>
        <pt x="1959" y="-332" on="0"/>
      </contour>
      <contour>
        <pt x="2086" y="1819" on="0"/>
        <pt x="2228" y="1696" on="0"/>
        <pt x="2228" y="1506" on="0"/>
        <pt x="2047" y="1346" on="0"/>
        <pt x="1897" y="1346" on="1"/>
        <pt x="1685" y="1346" on="0"/>
        <pt x="1633" y="1474" on="1"/>
        <pt x="1618" y="1510" on="0"/>
        <pt x="1618" y="1598" on="0"/>
        <pt x="1660" y="1694" on="0"/>
        <pt x="1702" y="1732" on="1"/>
        <pt x="1795" y="1819" on="0"/>
      </contour>
    </TTGlyph>
    <TTGlyph name="Lslash" xMin="0" yMin="0" xMax="1282" yMax="1597">
      <contour>
        <pt x="0" y="911" on="1"/>
        <pt x="123" y="954" on="1"/>
        <pt x="123" y="1597" on="1"/>
        <pt x="745" y="1597" on="1"/>
        <pt x="745" y="1176" on="1"/>
        <pt x="928" y="1241" on="1"/>
        <pt x="928" y="870" on="1"/>
        <pt x="745" y="805" on="1"/>
        <pt x="745" y="481" on="1"/>
        <pt x="1282" y="481" on="1"/>
        <pt x="1282" y="0" on="1"/>
        <pt x="123" y="0" on="1"/>
        <pt x="123" y="584" on="1"/>
        <pt x="0" y="541" on="1"/>
      </contour>
    </TTGlyph>
    <TTGlyph name="M" xMin="123" yMin="0" xMax="2138" yMax="1597">
      <contour>
        <pt x="123" y="1597" on="1"/>
        <pt x="352" y="1597" on="1"/>
        <pt x="1124" y="872" on="1"/>
        <pt x="1917" y="1597" on="1"/>
        <pt x="2138" y="1597" on="1"/>
        <pt x="2138" y="0" on="1"/>
        <pt x="1481" y="0" on="1"/>
        <pt x="1481" y="518" on="1"/>
        <pt x="1073" y="70" on="1"/>
        <pt x="676" y="506" on="1"/>
        <pt x="676" y="0" on="1"/>
        <pt x="123" y="0" on="1"/>
      </contour>
    </TTGlyph>
    <TTGlyph name="N" xMin="123" yMin="0" xMax="1720" yMax="1597">
      <contour>
        <pt x="123" y="1597" on="1"/>
        <pt x="285" y="1597" on="1"/>
        <pt x="1157" y="975" on="1"/>
        <pt x="1157" y="1597" on="1"/>
        <pt x="1720" y="1597" on="1"/>
        <pt x="1720" y="0" on="1"/>
        <pt x="1505" y="0" on="1"/>
        <pt x="684" y="549" on="1"/>
        <pt x="684" y="0" on="1"/>
        <pt x="123" y="0" on="1"/>
      </contour>
    </TTGlyph>
    <TTGlyph name="NJ" xMin="123" yMin="-39" xMax="3314" yMax="1597">
      <component glyphName="N" x="0" y="0" flags="0x1004"/>
      <component glyphName="J" x="1833" y="0" flags="0x1004"/>
    </TTGlyph>
    <TTGlyph name="Nacute" xMin="123" yMin="0" xMax="1720" yMax="2351">
      <component glyphName="N" x="0" y="0" flags="0x1204"/>
      <component glyphName="acute" x="891" y="874" flags="0x1004"/>
    </TTGlyph>
    <TTGlyph name="Ncaron" xMin="123" yMin="0" xMax="1720" yMax="2379">
      <component glyphName="N" x="0" y="0" flags="0x1204"/>
      <component glyphName="caron" x="568" y="874" flags="0x1004"/>
    </TTGlyph>
    <TTGlyph name="Nj" xMin="123" yMin="-332" xMax="2708" yMax="1819">
      <component glyphName="N" x="0" y="0" flags="0x1004"/>
      <component glyphName="j" x="1792" y="0" flags="0x1004"/>
    </TTGlyph>
    <TTGlyph name="Ntilde" xMin="123" yMin="0" xMax="1720" yMax="2164">
      <component glyphName="N" x="0" y="0" flags="0x1204"/>
      <component glyphName="tilde" x="358" y="874" flags="0x1004"/>
    </TTGlyph>
    <TTGlyph name="O" xMin="74" yMin="-39" xMax="1866" yMax="1642">
      <contour>
        <pt x="1237" y="990" on="1"/>
        <pt x="1237" y="1159" on="0"/>
        <pt x="1075" y="1159" on="1"/>
        <pt x="1005" y="1159" on="0"/>
        <pt x="919" y="1071" on="1"/>
        <pt x="790" y="938" on="0"/>
        <pt x="739" y="754" on="1"/>
        <pt x="723" y="696" on="0"/>
        <pt x="723" y="647" on="1"/>
        <pt x="723" y="481" on="0"/>
        <pt x="891" y="481" on="1"/>
        <pt x="958" y="480" on="0"/>
        <pt x="1044" y="570" on="1"/>
        <pt x="1169" y="702" on="0"/>
        <pt x="1221" y="890" on="1"/>
        <pt x="1237" y="948" on="0"/>
      </contour>
      <contour>
        <pt x="964" y="-39" on="1"/>
        <pt x="609" y="-39" on="0"/>
        <pt x="348" y="191" on="1"/>
        <pt x="265" y="264" on="0"/>
        <pt x="204" y="358" on="1"/>
        <pt x="74" y="557" on="0"/>
        <pt x="74" y="1050" on="0"/>
        <pt x="314" y="1430" on="0"/>
        <pt x="718" y="1642" on="0"/>
        <pt x="1151" y="1642" on="0"/>
        <pt x="1481" y="1526" on="0"/>
        <pt x="1726" y="1309" on="0"/>
        <pt x="1866" y="995" on="0"/>
        <pt x="1866" y="797" on="1"/>
        <pt x="1866" y="551" on="0"/>
        <pt x="1616" y="168" on="0"/>
        <pt x="1200" y="-39" on="0"/>
      </contour>
    </TTGlyph>
    <TTGlyph name="OE" xMin="47" yMin="0" xMax="2302" yMax="1599">
      <contour>
        <pt x="47" y="739" on="1"/>
        <pt x="47" y="925" on="0"/>
        <pt x="184" y="1240" on="0"/>
        <pt x="431" y="1470" on="0"/>
        <pt x="774" y="1599" on="0"/>
        <pt x="979" y="1599" on="1"/>
        <pt x="2302" y="1599" on="1"/>
        <pt x="2302" y="1163" on="1"/>
        <pt x="1798" y="1163" on="1"/>
        <pt x="1798" y="1012" on="1"/>
        <pt x="2281" y="1012" on="1"/>
        <pt x="2281" y="621" on="1"/>
        <pt x="1798" y="621" on="1"/>
        <pt x="1798" y="469" on="1"/>
        <pt x="2302" y="469" on="1"/>
        <pt x="2302" y="0" on="1"/>
        <pt x="803" y="0" on="1"/>
        <pt x="484" y="0" on="0"/>
        <pt x="264" y="215" on="1"/>
        <pt x="50" y="424" on="0"/>
      </contour>
      <contour>
        <pt x="1210" y="997" on="1"/>
        <pt x="1210" y="1159" on="0"/>
        <pt x="1049" y="1159" on="1"/>
        <pt x="978" y="1159" on="0"/>
        <pt x="892" y="1071" on="1"/>
        <pt x="763" y="940" on="0"/>
        <pt x="712" y="754" on="1"/>
        <pt x="696" y="696" on="0"/>
        <pt x="696" y="647" on="1"/>
        <pt x="696" y="481" on="0"/>
        <pt x="864" y="481" on="1"/>
        <pt x="930" y="480" on="0"/>
        <pt x="1016" y="570" on="1"/>
        <pt x="1141" y="702" on="0"/>
        <pt x="1194" y="890" on="1"/>
        <pt x="1210" y="948" on="0"/>
      </contour>
    </TTGlyph>
    <TTGlyph name="Oacute" xMin="74" yMin="-39" xMax="1866" yMax="2351">
      <component glyphName="O" x="0" y="0" flags="0x1204"/>
      <component glyphName="acute" x="891" y="874" flags="0x1004"/>
    </TTGlyph>
    <TTGlyph name="Ocircumflex" xMin="74" yMin="-39" xMax="1866" yMax="2385">
      <component glyphName="O" x="0" y="0" flags="0x1204"/>
      <component glyphName="circumflex" x="551" y="874" flags="0x1004"/>
    </TTGlyph>
    <TTGlyph name="Odieresis" xMin="74" yMin="-39" xMax="1866" yMax="2158">
      <component glyphName="O" x="0" y="0" flags="0x1204"/>
      <component glyphName="dieresis" x="313" y="874" flags="0x1004"/>
    </TTGlyph>
    <TTGlyph name="Ograve" xMin="74" yMin="-39" xMax="1866" yMax="2350">
      <component glyphName="O" x="0" y="0" flags="0x1204"/>
      <component glyphName="grave" x="406" y="874" flags="0x1004"/>
    </TTGlyph>
    <TTGlyph name="Ohungarumlaut" xMin="74" yMin="-39" xMax="1866" yMax="2359">
      <component glyphName="O" x="0" y="0" flags="0x1204"/>
      <component glyphName="hungarumlaut" x="555" y="874" flags="0x1004"/>
    </TTGlyph>
    <TTGlyph name="Oslash" xMin="63" yMin="-225" xMax="1855" yMax="1804">
      <contour>
        <pt x="954" y="1642" on="1"/>
        <pt x="1080" y="1642" on="0"/>
        <pt x="1200" y="1614" on="1"/>
        <pt x="1262" y="1804" on="1"/>
        <pt x="1405" y="1763" on="1"/>
        <pt x="1343" y="1571" on="1"/>
        <pt x="1580" y="1477" on="0"/>
        <pt x="1856" y="1076" on="0"/>
        <pt x="1855" y="797" on="1"/>
        <pt x="1854" y="425" on="0"/>
        <pt x="1582" y="187" on="1"/>
        <pt x="1416" y="42" on="0"/>
        <pt x="1184" y="-12" on="1"/>
        <pt x="965" y="-62" on="0"/>
        <pt x="762" y="-18" on="1"/>
        <pt x="694" y="-225" on="1"/>
        <pt x="551" y="-184" on="1"/>
        <pt x="616" y="20" on="1"/>
        <pt x="370" y="116" on="0"/>
        <pt x="62" y="529" on="0"/>
        <pt x="64" y="1050" on="0"/>
        <pt x="302" y="1430" on="0"/>
        <pt x="708" y="1642" on="0"/>
      </contour>
      <contour>
        <pt x="1227" y="990" on="1"/>
        <pt x="1227" y="1159" on="0"/>
        <pt x="1065" y="1159" on="1"/>
        <pt x="995" y="1159" on="0"/>
        <pt x="909" y="1071" on="1"/>
        <pt x="780" y="938" on="0"/>
        <pt x="729" y="754" on="1"/>
        <pt x="713" y="696" on="0"/>
        <pt x="713" y="647" on="1"/>
        <pt x="713" y="481" on="0"/>
        <pt x="881" y="481" on="1"/>
        <pt x="948" y="480" on="0"/>
        <pt x="1034" y="570" on="1"/>
        <pt x="1159" y="702" on="0"/>
        <pt x="1211" y="890" on="1"/>
        <pt x="1227" y="948" on="0"/>
      </contour>
    </TTGlyph>
    <TTGlyph name="Otilde" xMin="74" yMin="-39" xMax="1866" yMax="2164">
      <component glyphName="O" x="0" y="0" flags="0x1204"/>
      <component glyphName="tilde" x="358" y="874" flags="0x1004"/>
    </TTGlyph>
    <TTGlyph name="P" xMin="123" yMin="0" xMax="1706" yMax="1642">
      <contour>
        <pt x="123" y="1593" on="1"/>
        <pt x="619" y="1642" on="0"/>
        <pt x="1127" y="1642" on="0"/>
        <pt x="1424" y="1568" on="0"/>
        <pt x="1520" y="1490" on="1"/>
        <pt x="1706" y="1338" on="0"/>
        <pt x="1706" y="991" on="1"/>
        <pt x="1706" y="835" on="0"/>
        <pt x="1588" y="575" on="0"/>
        <pt x="1384" y="389" on="0"/>
        <pt x="1110" y="285" on="0"/>
        <pt x="954" y="285" on="1"/>
        <pt x="776" y="289" on="1"/>
        <pt x="776" y="0" on="1"/>
        <pt x="123" y="0" on="1"/>
      </contour>
      <contour>
        <pt x="1024" y="1227" on="1"/>
        <pt x="938" y="1227" on="0"/>
        <pt x="772" y="1108" on="1"/>
        <pt x="772" y="731" on="1"/>
        <pt x="889" y="788" on="1"/>
        <pt x="1005" y="845" on="0"/>
        <pt x="1051" y="897" on="1"/>
        <pt x="1137" y="994" on="0"/>
        <pt x="1137" y="1186" on="0"/>
        <pt x="1072" y="1217" on="1"/>
        <pt x="1051" y="1227" on="0"/>
      </contour>
    </TTGlyph>
    <TTGlyph name="Q" xMin="72" yMin="-39" xMax="1993" yMax="1642">
      <contour>
        <pt x="1989" y="408" on="1"/>
        <pt x="1993" y="256" on="0"/>
        <pt x="1993" y="-33" on="1"/>
        <pt x="1947" y="-39" on="0"/>
        <pt x="1901" y="-39" on="1"/>
        <pt x="1689" y="-39" on="0"/>
        <pt x="1474" y="101" on="1"/>
        <pt x="1247" y="-39" on="0"/>
        <pt x="958" y="-39" on="1"/>
        <pt x="730" y="-39" on="0"/>
        <pt x="323" y="172" on="0"/>
        <pt x="72" y="557" on="0"/>
        <pt x="72" y="1050" on="0"/>
        <pt x="312" y="1430" on="0"/>
        <pt x="716" y="1642" on="0"/>
        <pt x="958" y="1642" on="1"/>
        <pt x="1346" y="1642" on="0"/>
        <pt x="1602" y="1418" on="1"/>
        <pt x="1864" y="1188" on="0"/>
        <pt x="1864" y="770" on="1"/>
        <pt x="1864" y="610" on="0"/>
        <pt x="1789" y="448" on="1"/>
        <pt x="1909" y="408" on="0"/>
      </contour>
      <contour>
        <pt x="1163" y="747" on="1"/>
        <pt x="1235" y="891" on="0"/>
        <pt x="1236" y="1113" on="0"/>
        <pt x="1148" y="1147" on="1"/>
        <pt x="1118" y="1159" on="0"/>
        <pt x="1037" y="1159" on="0"/>
        <pt x="956" y="1111" on="0"/>
        <pt x="917" y="1071" on="1"/>
        <pt x="837" y="989" on="0"/>
        <pt x="721" y="744" on="0"/>
        <pt x="721" y="647" on="1"/>
        <pt x="721" y="481" on="0"/>
        <pt x="889" y="481" on="1"/>
        <pt x="942" y="481" on="0"/>
        <pt x="1005" y="536" on="1"/>
        <pt x="968" y="578" on="0"/>
        <pt x="896" y="664" on="0"/>
        <pt x="860" y="707" on="1"/>
        <pt x="969" y="870" on="1"/>
        <pt x="1051" y="814" on="0"/>
      </contour>
    </TTGlyph>
    <TTGlyph name="R" xMin="123" yMin="0" xMax="1847" yMax="1642">
      <contour>
        <pt x="1135" y="1092" on="1"/>
        <pt x="1135" y="1233" on="0"/>
        <pt x="1030" y="1233" on="1"/>
        <pt x="985" y="1233" on="0"/>
        <pt x="905" y="1200" on="1"/>
        <pt x="772" y="1145" on="1"/>
        <pt x="772" y="754" on="1"/>
        <pt x="1135" y="889" on="0"/>
      </contour>
      <contour>
        <pt x="1729" y="1075" on="1"/>
        <pt x="1729" y="755" on="0"/>
        <pt x="1413" y="567" on="1"/>
        <pt x="1847" y="0" on="1"/>
        <pt x="1057" y="0" on="1"/>
        <pt x="776" y="463" on="1"/>
        <pt x="776" y="0" on="1"/>
        <pt x="123" y="0" on="1"/>
        <pt x="123" y="1597" on="1"/>
        <pt x="757" y="1642" on="0"/>
        <pt x="1151" y="1642" on="0"/>
        <pt x="1254" y="1618" on="1"/>
        <pt x="1538" y="1553" on="0"/>
        <pt x="1660" y="1340" on="1"/>
        <pt x="1728" y="1218" on="0"/>
      </contour>
    </TTGlyph>
    <TTGlyph name="Racute" xMin="123" yMin="0" xMax="1847" yMax="2351">
      <component glyphName="R" x="0" y="0" flags="0x1004"/>
      <component glyphName="acute" x="745" y="874" flags="0x1004"/>
    </TTGlyph>
    <TTGlyph name="Rcaron" xMin="123" yMin="0" xMax="1847" yMax="2379">
      <component glyphName="R" x="0" y="0" flags="0x1004"/>
      <component glyphName="caron" x="422" y="874" flags="0x1004"/>
    </TTGlyph>
    <TTGlyph name="Rcommaaccent" xMin="123" yMin="-1022" xMax="1847" yMax="1642">
      <component glyphName="R" x="0" y="0" flags="0x1004"/>
      <component glyphName="commaaccent" x="600" y="0" flags="0x1004"/>
    </TTGlyph>
    <TTGlyph name="S" xMin="96" yMin="-39" xMax="1356" yMax="1642">
      <contour>
        <pt x="696" y="-39" on="1"/>
        <pt x="247" y="-39" on="0"/>
        <pt x="100" y="72" on="1"/>
        <pt x="100" y="530" on="1"/>
        <pt x="104" y="529" on="0"/>
        <pt x="155" y="513" on="0"/>
        <pt x="194" y="501" on="1"/>
        <pt x="285" y="473" on="0"/>
        <pt x="486" y="424" on="0"/>
        <pt x="547" y="424" on="1"/>
        <pt x="647" y="424" on="0"/>
        <pt x="647" y="485" on="1"/>
        <pt x="647" y="532" on="0"/>
        <pt x="561" y="585" on="1"/>
        <pt x="522" y="609" on="0"/>
        <pt x="423" y="661" on="0"/>
        <pt x="372" y="693" on="1"/>
        <pt x="247" y="770" on="0"/>
        <pt x="96" y="976" on="0"/>
        <pt x="96" y="1133" on="1"/>
        <pt x="96" y="1476" on="0"/>
        <pt x="458" y="1594" on="1"/>
        <pt x="605" y="1642" on="0"/>
        <pt x="990" y="1642" on="0"/>
        <pt x="1200" y="1598" on="1"/>
        <pt x="1243" y="1589" on="0"/>
        <pt x="1257" y="1585" on="1"/>
        <pt x="1257" y="1126" on="1"/>
        <pt x="985" y="1184" on="0"/>
        <pt x="866" y="1184" on="1"/>
        <pt x="820" y="1184" on="0"/>
        <pt x="774" y="1152" on="0"/>
        <pt x="774" y="1112" on="0"/>
        <pt x="814" y="1069" on="0"/>
        <pt x="912" y="1026" on="0"/>
        <pt x="1043" y="965" on="0"/>
        <pt x="1100" y="930" on="1"/>
        <pt x="1356" y="773" on="0"/>
        <pt x="1356" y="501" on="1"/>
        <pt x="1356" y="243" on="0"/>
        <pt x="1182" y="102" on="1"/>
        <pt x="1006" y="-38" on="0"/>
      </contour>
    </TTGlyph>
    <TTGlyph name="Scaron" xMin="96" yMin="-39" xMax="1356" yMax="2379">
      <component glyphName="S" x="0" y="0" flags="0x1204"/>
      <component glyphName="caron" x="324" y="874" flags="0x1004"/>
    </TTGlyph>
    <TTGlyph name="Scedilla" xMin="96" yMin="-631" xMax="1356" yMax="1642">
      <component glyphName="S" x="0" y="0" flags="0x1204"/>
      <component glyphName="cedilla" x="333" y="0" flags="0x1004"/>
    </TTGlyph>
    <TTGlyph name="T" xMin="57" yMin="0" xMax="1569" yMax="1597">
      <contour>
        <pt x="57" y="1597" on="1"/>
        <pt x="1569" y="1597" on="1"/>
        <pt x="1569" y="1079" on="1"/>
        <pt x="1124" y="1079" on="1"/>
        <pt x="1124" y="0" on="1"/>
        <pt x="502" y="0" on="1"/>
        <pt x="502" y="1079" on="1"/>
        <pt x="57" y="1079" on="1"/>
      </contour>
    </TTGlyph>
    <TTGlyph name="Tcaron" xMin="57" yMin="0" xMax="1569" yMax="2380">
      <component glyphName="T" x="0" y="0" flags="0x1204"/>
      <component glyphName="caron" x="425" y="875" flags="0x1004"/>
    </TTGlyph>
    <TTGlyph name="Thorn" xMin="61" yMin="0" xMax="1628" yMax="1599">
      <contour>
        <pt x="715" y="1468" on="1"/>
        <pt x="930" y="1536" on="0"/>
        <pt x="1086" y="1536" on="1"/>
        <pt x="1364" y="1536" on="0"/>
        <pt x="1505" y="1382" on="1"/>
        <pt x="1628" y="1247" on="0"/>
        <pt x="1628" y="1020" on="1"/>
        <pt x="1628" y="653" on="0"/>
        <pt x="1155" y="217" on="0"/>
        <pt x="715" y="207" on="1"/>
        <pt x="715" y="0" on="1"/>
        <pt x="61" y="0" on="1"/>
        <pt x="61" y="1599" on="1"/>
        <pt x="715" y="1599" on="1"/>
      </contour>
      <contour>
        <pt x="948" y="1116" on="1"/>
        <pt x="869" y="1116" on="0"/>
        <pt x="711" y="1006" on="1"/>
        <pt x="711" y="649" on="1"/>
        <pt x="821" y="702" on="1"/>
        <pt x="930" y="754" on="0"/>
        <pt x="974" y="805" on="1"/>
        <pt x="1055" y="899" on="0"/>
        <pt x="1055" y="999" on="1"/>
        <pt x="1055" y="1049" on="0"/>
        <pt x="999" y="1116" on="0"/>
      </contour>
    </TTGlyph>
    <TTGlyph name="U" xMin="106" yMin="-39" xMax="1638" yMax="1597">
      <contour>
        <pt x="901" y="-39" on="1"/>
        <pt x="106" y="-39" on="0"/>
        <pt x="106" y="637" on="1"/>
        <pt x="106" y="1597" on="1"/>
        <pt x="737" y="1597" on="1"/>
        <pt x="737" y="655" on="1"/>
        <pt x="737" y="513" on="0"/>
        <pt x="832" y="470" on="1"/>
        <pt x="865" y="455" on="0"/>
        <pt x="911" y="455" on="1"/>
        <pt x="1041" y="455" on="0"/>
        <pt x="1075" y="579" on="1"/>
        <pt x="1085" y="616" on="0"/>
        <pt x="1085" y="659" on="1"/>
        <pt x="1085" y="1597" on="1"/>
        <pt x="1638" y="1597" on="1"/>
        <pt x="1638" y="637" on="1"/>
        <pt x="1638" y="-39" on="0"/>
      </contour>
    </TTGlyph>
    <TTGlyph name="Uacute" xMin="106" yMin="-39" xMax="1638" yMax="2351">
      <component glyphName="U" x="0" y="0" flags="0x1204"/>
      <component glyphName="acute" x="842" y="874" flags="0x1004"/>
    </TTGlyph>
    <TTGlyph name="Ucircumflex" xMin="106" yMin="-39" xMax="1638" yMax="2385">
      <component glyphName="U" x="0" y="0" flags="0x1204"/>
      <component glyphName="circumflex" x="502" y="874" flags="0x1004"/>
    </TTGlyph>
    <TTGlyph name="Udieresis" xMin="106" yMin="-39" xMax="1638" yMax="2158">
      <component glyphName="U" x="0" y="0" flags="0x1204"/>
      <component glyphName="dieresis" x="264" y="874" flags="0x1004"/>
    </TTGlyph>
    <TTGlyph name="Ugrave" xMin="106" yMin="-39" xMax="1638" yMax="2350">
      <component glyphName="U" x="0" y="0" flags="0x1204"/>
      <component glyphName="grave" x="356" y="874" flags="0x1004"/>
    </TTGlyph>
    <TTGlyph name="Uhungarumlaut" xMin="106" yMin="-39" xMax="1658" yMax="2359">
      <component glyphName="U" x="0" y="0" flags="0x1204"/>
      <component glyphName="hungarumlaut" x="505" y="874" flags="0x1004"/>
    </TTGlyph>
    <TTGlyph name="Umacron" xMin="106" yMin="-39" xMax="1638" yMax="2117">
      <component glyphName="U" x="0" y="0" flags="0x1204"/>
      <component glyphName="macron" x="324" y="874" flags="0x1004"/>
    </TTGlyph>
    <TTGlyph name="Uogonek" xMin="106" yMin="-629" xMax="1638" yMax="1597">
      <component glyphName="U" x="0" y="0" flags="0x1204"/>
      <component glyphName="ogonek" x="518" y="0" flags="0x1004"/>
    </TTGlyph>
    <TTGlyph name="Uring" xMin="106" yMin="-39" xMax="1638" yMax="2381">
      <component glyphName="U" x="0" y="0" flags="0x1204"/>
      <component glyphName="ring" x="540" y="874" flags="0x1004"/>
    </TTGlyph>
    <TTGlyph name="V" xMin="25" yMin="-47" xMax="1817" yMax="1597">
      <contour>
        <pt x="750" y="1597" on="1"/>
        <pt x="999" y="1096" on="1"/>
        <pt x="1231" y="1597" on="1"/>
        <pt x="1817" y="1597" on="1"/>
        <pt x="1032" y="2" on="1"/>
        <pt x="1006" y="-47" on="0"/>
        <pt x="877" y="-47" on="0"/>
        <pt x="852" y="2" on="1"/>
        <pt x="25" y="1597" on="1"/>
      </contour>
    </TTGlyph>
    <TTGlyph name="W" xMin="63" yMin="-59" xMax="2597" yMax="1606">
      <contour>
        <pt x="780" y="1597" on="1"/>
        <pt x="963" y="1028" on="1"/>
        <pt x="1362" y="1563" on="1"/>
        <pt x="1382" y="1590" on="0"/>
        <pt x="1392" y="1598" on="1"/>
        <pt x="1402" y="1606" on="0"/>
        <pt x="1442" y="1606" on="0"/>
        <pt x="1473" y="1563" on="1"/>
        <pt x="1845" y="1034" on="1"/>
        <pt x="2025" y="1597" on="1"/>
        <pt x="2597" y="1597" on="1"/>
        <pt x="2075" y="41" on="1"/>
        <pt x="2041" y="-59" on="0"/>
        <pt x="1879" y="-59" on="0"/>
        <pt x="1815" y="33" on="1"/>
        <pt x="1368" y="678" on="1"/>
        <pt x="887" y="31" on="1"/>
        <pt x="822" y="-55" on="0"/>
        <pt x="662" y="-55" on="0"/>
        <pt x="625" y="45" on="1"/>
        <pt x="63" y="1597" on="1"/>
      </contour>
    </TTGlyph>
    <TTGlyph name="X" xMin="96" yMin="0" xMax="1837" yMax="1597">
      <contour>
        <pt x="909" y="365" on="1"/>
        <pt x="727" y="0" on="1"/>
        <pt x="131" y="0" on="1"/>
        <pt x="567" y="831" on="1"/>
        <pt x="96" y="1597" on="1"/>
        <pt x="813" y="1597" on="1"/>
        <pt x="991" y="1278" on="1"/>
        <pt x="1178" y="1597" on="1"/>
        <pt x="1737" y="1597" on="1"/>
        <pt x="1319" y="846" on="1"/>
        <pt x="1837" y="0" on="1"/>
        <pt x="1100" y="0" on="1"/>
      </contour>
    </TTGlyph>
    <TTGlyph name="Y" xMin="43" yMin="0" xMax="1675" yMax="1597">
      <contour>
        <pt x="530" y="623" on="1"/>
        <pt x="43" y="1597" on="1"/>
        <pt x="756" y="1597" on="1"/>
        <pt x="915" y="1270" on="1"/>
        <pt x="1079" y="1597" on="1"/>
        <pt x="1675" y="1597" on="1"/>
        <pt x="1178" y="623" on="1"/>
        <pt x="1178" y="0" on="1"/>
        <pt x="530" y="0" on="1"/>
      </contour>
    </TTGlyph>
    <TTGlyph name="Yacute" xMin="43" yMin="0" xMax="1675" yMax="2351">
      <component glyphName="Y" x="0" y="0" flags="0x1204"/>
      <component glyphName="acute" x="846" y="874" flags="0x1004"/>
    </TTGlyph>
    <TTGlyph name="Ydieresis" xMin="43" yMin="0" xMax="1675" yMax="2158">
      <component glyphName="Y" x="0" y="0" flags="0x1204"/>
      <component glyphName="dieresis" x="268" y="874" flags="0x1004"/>
    </TTGlyph>
    <TTGlyph name="Z" xMin="109" yMin="0" xMax="1726" yMax="1597">
      <contour>
        <pt x="721" y="1114" on="1"/>
        <pt x="170" y="1114" on="1"/>
        <pt x="170" y="1597" on="1"/>
        <pt x="1726" y="1597" on="1"/>
        <pt x="1726" y="1475" on="1"/>
        <pt x="1110" y="457" on="1"/>
        <pt x="1726" y="457" on="1"/>
        <pt x="1726" y="0" on="1"/>
        <pt x="109" y="0" on="1"/>
        <pt x="109" y="92" on="1"/>
      </contour>
    </TTGlyph>
    <TTGlyph name="Zcaron" xMin="109" yMin="0" xMax="1726" yMax="2379">
      <component glyphName="Z" x="0" y="0" flags="0x1204"/>
      <component glyphName="caron" x="555" y="874" flags="0x1004"/>
    </TTGlyph>
    <TTGlyph name="a" xMin="84" yMin="-37" xMax="1608" yMax="1290">
      <contour>
        <pt x="179" y="185" on="0"/>
        <pt x="84" y="412" on="0"/>
        <pt x="84" y="674" on="0"/>
        <pt x="110" y="770" on="1"/>
        <pt x="162" y="961" on="0"/>
        <pt x="292" y="1091" on="1"/>
        <pt x="354" y="1155" on="0"/>
        <pt x="430" y="1199" on="1"/>
        <pt x="586" y="1290" on="0"/>
        <pt x="933" y="1290" on="0"/>
        <pt x="1064" y="1175" on="1"/>
        <pt x="1106" y="1138" on="0"/>
        <pt x="1137" y="1090" on="1"/>
        <pt x="1280" y="1243" on="1"/>
        <pt x="1608" y="1243" on="1"/>
        <pt x="1608" y="0" on="1"/>
        <pt x="1280" y="0" on="1"/>
        <pt x="1137" y="207" on="1"/>
        <pt x="973" y="-35" on="0"/>
        <pt x="640" y="-36" on="1"/>
        <pt x="548" y="-37" on="0"/>
        <pt x="339" y="36" on="0"/>
      </contour>
      <contour>
        <pt x="1069" y="866" on="1"/>
        <pt x="1033" y="887" on="0"/>
        <pt x="933" y="887" on="0"/>
        <pt x="822" y="816" on="0"/>
        <pt x="778" y="762" on="1"/>
        <pt x="680" y="641" on="0"/>
        <pt x="680" y="516" on="1"/>
        <pt x="680" y="428" on="0"/>
        <pt x="734" y="392" on="1"/>
        <pt x="784" y="359" on="0"/>
        <pt x="989" y="444" on="0"/>
        <pt x="1069" y="512" on="1"/>
      </contour>
    </TTGlyph>
    <TTGlyph name="aacute" xMin="84" yMin="-37" xMax="1608" yMax="2040">
      <component glyphName="a" x="0" y="0" flags="0x1004"/>
      <component glyphName="acute" x="817" y="563" flags="0x1004"/>
    </TTGlyph>
    <TTGlyph name="acircumflex" xMin="84" yMin="-37" xMax="1608" yMax="2074">
      <component glyphName="a" x="0" y="0" flags="0x1004"/>
      <component glyphName="circumflex" x="477" y="563" flags="0x1004"/>
    </TTGlyph>
    <TTGlyph name="acute" xMin="33" yMin="869" xMax="592" yMax="1477">
      <contour>
        <pt x="162" y="939" on="1"/>
        <pt x="106" y="869" on="0"/>
        <pt x="33" y="869" on="0"/>
        <pt x="33" y="924" on="1"/>
        <pt x="33" y="952" on="0"/>
        <pt x="41" y="978" on="1"/>
        <pt x="184" y="1477" on="1"/>
        <pt x="592" y="1477" on="1"/>
      </contour>
    </TTGlyph>
    <TTGlyph name="adieresis" xMin="84" yMin="-37" xMax="1608" yMax="1847">
      <component glyphName="a" x="0" y="0" flags="0x1004"/>
      <component glyphName="dieresis" x="240" y="563" flags="0x1004"/>
    </TTGlyph>
    <TTGlyph name="ae" xMin="74" yMin="-38" xMax="2365" yMax="1292">
      <contour>
        <pt x="1288" y="1126" on="1"/>
        <pt x="1503" y="1292" on="0"/>
        <pt x="2086" y="1292" on="0"/>
        <pt x="2365" y="1054" on="0"/>
        <pt x="2364" y="704" on="0"/>
        <pt x="2031" y="432" on="0"/>
        <pt x="1747" y="432" on="1"/>
        <pt x="1694" y="432" on="1"/>
        <pt x="1666" y="432" on="0"/>
        <pt x="1642" y="434" on="1"/>
        <pt x="1642" y="315" on="0"/>
        <pt x="1769" y="304" on="1"/>
        <pt x="1804" y="301" on="0"/>
        <pt x="1837" y="301" on="1"/>
        <pt x="1922" y="301" on="0"/>
        <pt x="2179" y="379" on="0"/>
        <pt x="2281" y="467" on="1"/>
        <pt x="2343" y="156" on="1"/>
        <pt x="2120" y="-37" on="0"/>
        <pt x="1669" y="-37" on="1"/>
        <pt x="1440" y="-37" on="0"/>
        <pt x="1264" y="83" on="1"/>
        <pt x="1206" y="123" on="0"/>
        <pt x="1159" y="176" on="1"/>
        <pt x="888" y="-37" on="0"/>
        <pt x="407" y="-38" on="0"/>
        <pt x="74" y="273" on="0"/>
        <pt x="74" y="565" on="1"/>
        <pt x="74" y="774" on="0"/>
        <pt x="184" y="946" on="1"/>
        <pt x="341" y="1190" on="0"/>
        <pt x="642" y="1266" on="1"/>
        <pt x="737" y="1290" on="0"/>
        <pt x="859" y="1290" on="0"/>
        <pt x="930" y="1281" on="0"/>
        <pt x="972" y="1272" on="1"/>
        <pt x="1196" y="1227" on="0"/>
      </contour>
      <contour>
        <pt x="1018" y="866" on="1"/>
        <pt x="982" y="887" on="0"/>
        <pt x="882" y="887" on="0"/>
        <pt x="771" y="816" on="0"/>
        <pt x="727" y="762" on="1"/>
        <pt x="629" y="641" on="0"/>
        <pt x="629" y="516" on="1"/>
        <pt x="628" y="428" on="0"/>
        <pt x="682" y="392" on="1"/>
        <pt x="732" y="358" on="0"/>
        <pt x="938" y="444" on="0"/>
        <pt x="1018" y="512" on="1"/>
      </contour>
      <contour>
        <pt x="1882" y="887" on="1"/>
        <pt x="1882" y="975" on="0"/>
        <pt x="1800" y="975" on="1"/>
        <pt x="1706" y="966" on="0"/>
        <pt x="1678" y="878" on="1"/>
        <pt x="1664" y="836" on="0"/>
        <pt x="1653" y="725" on="0"/>
        <pt x="1642" y="662" on="1"/>
        <pt x="1862" y="711" on="1"/>
        <pt x="1880" y="864" on="1"/>
      </contour>
    </TTGlyph>
    <TTGlyph name="agrave" xMin="84" yMin="-37" xMax="1608" yMax="2039">
      <component glyphName="a" x="0" y="0" flags="0x1004"/>
      <component glyphName="grave" x="332" y="563" flags="0x1004"/>
    </TTGlyph>
    <TTGlyph name="ainvertedbreve" xMin="84" yMin="-37" xMax="1608" yMax="2013">
      <component glyphName="a" x="0" y="0" flags="0x1204"/>
      <component glyphName="uni0311" x="248" y="563" flags="0x1004"/>
    </TTGlyph>
    <TTGlyph name="ampersand" xMin="66" yMin="-28" xMax="2189" yMax="1640">
      <contour>
        <pt x="1202" y="1266" on="1"/>
        <pt x="1202" y="1356" on="0"/>
        <pt x="1075" y="1356" on="1"/>
        <pt x="1030" y="1356" on="0"/>
        <pt x="952" y="1301" on="0"/>
        <pt x="952" y="1229" on="0"/>
        <pt x="985" y="1190" on="1"/>
        <pt x="1040" y="1126" on="1"/>
        <pt x="1050" y="1132" on="0"/>
        <pt x="1076" y="1144" on="1"/>
        <pt x="1202" y="1201" on="0"/>
      </contour>
      <contour>
        <pt x="1370" y="739" on="1"/>
        <pt x="1625" y="930" on="0"/>
        <pt x="1718" y="1137" on="1"/>
        <pt x="2189" y="1010" on="1"/>
        <pt x="2190" y="876" on="0"/>
        <pt x="1870" y="466" on="0"/>
        <pt x="1729" y="389" on="1"/>
        <pt x="1846" y="279" on="0"/>
        <pt x="2039" y="167" on="0"/>
        <pt x="2187" y="139" on="1"/>
        <pt x="2187" y="0" on="1"/>
        <pt x="1350" y="0" on="1"/>
        <pt x="1257" y="102" on="1"/>
        <pt x="1146" y="25" on="0"/>
        <pt x="1055" y="1" on="1"/>
        <pt x="822" y="-61" on="0"/>
        <pt x="421" y="6" on="0"/>
        <pt x="288" y="93" on="1"/>
        <pt x="66" y="239" on="0"/>
        <pt x="66" y="502" on="1"/>
        <pt x="66" y="695" on="0"/>
        <pt x="288" y="964" on="0"/>
        <pt x="492" y="1036" on="1"/>
        <pt x="534" y="1051" on="0"/>
        <pt x="551" y="1059" on="1"/>
        <pt x="487" y="1181" on="0"/>
        <pt x="487" y="1338" on="0"/>
        <pt x="510" y="1389" on="1"/>
        <pt x="574" y="1535" on="0"/>
        <pt x="778" y="1601" on="1"/>
        <pt x="898" y="1640" on="0"/>
        <pt x="1232" y="1640" on="0"/>
        <pt x="1382" y="1564" on="1"/>
        <pt x="1494" y="1507" on="0"/>
        <pt x="1542" y="1409" on="1"/>
        <pt x="1566" y="1358" on="0"/>
        <pt x="1567" y="1239" on="0"/>
        <pt x="1521" y="1144" on="0"/>
        <pt x="1450" y="1064" on="0"/>
        <pt x="1366" y="999" on="0"/>
        <pt x="1289" y="950" on="0"/>
        <pt x="1231" y="917" on="0"/>
        <pt x="1223" y="909" on="1"/>
      </contour>
      <contour>
        <pt x="772" y="733" on="1"/>
        <pt x="659" y="679" on="0"/>
        <pt x="659" y="569" on="1"/>
        <pt x="658" y="480" on="0"/>
        <pt x="738" y="444" on="1"/>
        <pt x="764" y="432" on="0"/>
        <pt x="786" y="432" on="1"/>
        <pt x="830" y="432" on="0"/>
        <pt x="946" y="460" on="0"/>
        <pt x="977" y="481" on="1"/>
      </contour>
    </TTGlyph>
    <TTGlyph name="aring" xMin="84" yMin="-37" xMax="1608" yMax="2070">
      <component glyphName="a" x="0" y="0" flags="0x1004"/>
      <component glyphName="ring" x="516" y="563" flags="0x1004"/>
    </TTGlyph>
    <TTGlyph name="asciicircum" xMin="47" yMin="1366" xMax="772" yMax="1972">
      <contour>
        <pt x="268" y="1882" on="1"/>
        <pt x="289" y="1925" on="0"/>
        <pt x="370" y="1972" on="0"/>
        <pt x="450" y="1972" on="0"/>
        <pt x="530" y="1929" on="0"/>
        <pt x="553" y="1882" on="1"/>
        <pt x="758" y="1464" on="1"/>
        <pt x="772" y="1429" on="0"/>
        <pt x="772" y="1366" on="0"/>
        <pt x="700" y="1366" on="0"/>
        <pt x="637" y="1425" on="1"/>
        <pt x="410" y="1632" on="1"/>
        <pt x="184" y="1425" on="1"/>
        <pt x="121" y="1366" on="0"/>
        <pt x="47" y="1366" on="0"/>
        <pt x="47" y="1401" on="1"/>
        <pt x="47" y="1430" on="0"/>
        <pt x="63" y="1464" on="1"/>
      </contour>
    </TTGlyph>
    <TTGlyph name="asciitilde" xMin="78" yMin="1321" xMax="1012" yMax="1729">
      <contour>
        <pt x="995" y="1686" on="1"/>
        <pt x="1012" y="1686" on="0"/>
        <pt x="1012" y="1669" on="1"/>
        <pt x="1012" y="1390" on="0"/>
        <pt x="870" y="1337" on="1"/>
        <pt x="827" y="1321" on="0"/>
        <pt x="715" y="1321" on="0"/>
        <pt x="576" y="1354" on="0"/>
        <pt x="319" y="1427" on="0"/>
        <pt x="193" y="1427" on="0"/>
        <pt x="129" y="1386" on="0"/>
        <pt x="104" y="1368" on="0"/>
        <pt x="96" y="1368" on="1"/>
        <pt x="78" y="1368" on="0"/>
        <pt x="78" y="1384" on="1"/>
        <pt x="78" y="1660" on="0"/>
        <pt x="228" y="1713" on="1"/>
        <pt x="274" y="1729" on="0"/>
        <pt x="332" y="1729" on="1"/>
        <pt x="413" y="1729" on="0"/>
        <pt x="787" y="1624" on="0"/>
        <pt x="880" y="1624" on="0"/>
        <pt x="926" y="1643" on="0"/>
        <pt x="961" y="1667" on="0"/>
        <pt x="987" y="1686" on="0"/>
      </contour>
    </TTGlyph>
    <TTGlyph name="asterisk" xMin="74" yMin="233" xMax="1448" yMax="1755">
      <contour>
        <pt x="760" y="1755" on="1"/>
        <pt x="938" y="1755" on="0"/>
        <pt x="938" y="1548" on="1"/>
        <pt x="938" y="1481" on="0"/>
        <pt x="899" y="1351" on="1"/>
        <pt x="844" y="1167" on="0"/>
        <pt x="836" y="1128" on="1"/>
        <pt x="872" y="1163" on="1"/>
        <pt x="915" y="1205" on="0"/>
        <pt x="964" y="1257" on="1"/>
        <pt x="1162" y="1464" on="0"/>
        <pt x="1276" y="1464" on="1"/>
        <pt x="1336" y="1464" on="0"/>
        <pt x="1448" y="1355" on="0"/>
        <pt x="1448" y="1225" on="0"/>
        <pt x="1392" y="1152" on="0"/>
        <pt x="1301" y="1100" on="0"/>
        <pt x="1186" y="1064" on="0"/>
        <pt x="1067" y="1035" on="0"/>
        <pt x="955" y="1009" on="0"/>
        <pt x="913" y="993" on="1"/>
        <pt x="952" y="983" on="0"/>
        <pt x="1062" y="961" on="0"/>
        <pt x="1121" y="946" on="1"/>
        <pt x="1448" y="863" on="0"/>
        <pt x="1448" y="713" on="1"/>
        <pt x="1448" y="634" on="0"/>
        <pt x="1336" y="522" on="0"/>
        <pt x="1223" y="522" on="0"/>
        <pt x="1118" y="587" on="0"/>
        <pt x="1015" y="681" on="0"/>
        <pt x="917" y="785" on="0"/>
        <pt x="872" y="825" on="1"/>
        <pt x="840" y="854" on="1"/>
        <pt x="850" y="813" on="1"/>
        <pt x="859" y="765" on="0"/>
        <pt x="889" y="665" on="0"/>
        <pt x="938" y="486" on="0"/>
        <pt x="938" y="432" on="1"/>
        <pt x="938" y="336" on="0"/>
        <pt x="844" y="234" on="0"/>
        <pt x="760" y="233" on="1"/>
        <pt x="634" y="234" on="0"/>
        <pt x="596" y="344" on="1"/>
        <pt x="584" y="378" on="0"/>
        <pt x="584" y="468" on="0"/>
        <pt x="608" y="588" on="0"/>
        <pt x="640" y="707" on="0"/>
        <pt x="674" y="817" on="0"/>
        <pt x="684" y="858" on="1"/>
        <pt x="649" y="825" on="1"/>
        <pt x="602" y="785" on="0"/>
        <pt x="506" y="681" on="0"/>
        <pt x="456" y="634" on="1"/>
        <pt x="338" y="522" on="0"/>
        <pt x="246" y="522" on="1"/>
        <pt x="186" y="522" on="0"/>
        <pt x="74" y="627" on="0"/>
        <pt x="74" y="758" on="0"/>
        <pt x="132" y="833" on="0"/>
        <pt x="226" y="887" on="0"/>
        <pt x="345" y="926" on="0"/>
        <pt x="465" y="955" on="0"/>
        <pt x="576" y="980" on="0"/>
        <pt x="616" y="993" on="1"/>
        <pt x="576" y="1006" on="0"/>
        <pt x="465" y="1031" on="0"/>
        <pt x="405" y="1046" on="1"/>
        <pt x="253" y="1084" on="0"/>
        <pt x="179" y="1128" on="1"/>
        <pt x="74" y="1189" on="0"/>
        <pt x="74" y="1360" on="0"/>
        <pt x="185" y="1466" on="0"/>
        <pt x="302" y="1466" on="0"/>
        <pt x="407" y="1402" on="0"/>
        <pt x="507" y="1309" on="0"/>
        <pt x="603" y="1204" on="0"/>
        <pt x="649" y="1163" on="1"/>
        <pt x="678" y="1137" on="1"/>
        <pt x="675" y="1146" on="0"/>
        <pt x="674" y="1156" on="1"/>
        <pt x="667" y="1194" on="0"/>
        <pt x="630" y="1322" on="0"/>
        <pt x="584" y="1498" on="0"/>
        <pt x="584" y="1556" on="1"/>
        <pt x="584" y="1655" on="0"/>
        <pt x="676" y="1755" on="0"/>
      </contour>
    </TTGlyph>
    <TTGlyph name="at" xMin="76" yMin="-246" xMax="2308" yMax="1774">
      <contour>
        <pt x="1755" y="-90" on="1"/>
        <pt x="1498" y="-246" on="0"/>
        <pt x="1192" y="-246" on="1"/>
        <pt x="740" y="-246" on="0"/>
        <pt x="424" y="-3" on="1"/>
        <pt x="205" y="165" on="0"/>
        <pt x="120" y="430" on="1"/>
        <pt x="76" y="566" on="0"/>
        <pt x="76" y="903" on="0"/>
        <pt x="164" y="1193" on="0"/>
        <pt x="242" y="1309" on="1"/>
        <pt x="393" y="1536" on="0"/>
        <pt x="902" y="1774" on="0"/>
        <pt x="1481" y="1774" on="0"/>
        <pt x="1729" y="1658" on="1"/>
        <pt x="2137" y="1467" on="0"/>
        <pt x="2264" y="1048" on="1"/>
        <pt x="2308" y="903" on="0"/>
        <pt x="2308" y="612" on="0"/>
        <pt x="2228" y="426" on="0"/>
        <pt x="2162" y="360" on="1"/>
        <pt x="2025" y="226" on="0"/>
        <pt x="1823" y="225" on="1"/>
        <pt x="1578" y="225" on="0"/>
        <pt x="1391" y="424" on="1"/>
        <pt x="1294" y="272" on="0"/>
        <pt x="1114" y="224" on="1"/>
        <pt x="1058" y="209" on="0"/>
        <pt x="914" y="209" on="0"/>
        <pt x="756" y="276" on="0"/>
        <pt x="696" y="344" on="1"/>
        <pt x="566" y="491" on="0"/>
        <pt x="568" y="983" on="0"/>
        <pt x="810" y="1270" on="0"/>
        <pt x="1152" y="1270" on="0"/>
        <pt x="1280" y="1158" on="1"/>
        <pt x="1321" y="1122" on="0"/>
        <pt x="1350" y="1077" on="1"/>
        <pt x="1464" y="1233" on="1"/>
        <pt x="1726" y="1233" on="1"/>
        <pt x="1726" y="594" on="1"/>
        <pt x="1726" y="540" on="0"/>
        <pt x="1832" y="469" on="0"/>
        <pt x="1918" y="469" on="0"/>
        <pt x="1940" y="482" on="1"/>
        <pt x="2014" y="526" on="0"/>
        <pt x="2014" y="697" on="1"/>
        <pt x="2016" y="1049" on="0"/>
        <pt x="1817" y="1280" on="1"/>
        <pt x="1750" y="1357" on="0"/>
        <pt x="1658" y="1413" on="1"/>
        <pt x="1464" y="1532" on="0"/>
        <pt x="932" y="1532" on="0"/>
        <pt x="738" y="1414" on="1"/>
        <pt x="471" y="1251" on="0"/>
        <pt x="396" y="932" on="1"/>
        <pt x="373" y="834" on="0"/>
        <pt x="373" y="594" on="0"/>
        <pt x="475" y="330" on="0"/>
        <pt x="577" y="227" on="1"/>
        <pt x="802" y="0" on="0"/>
        <pt x="1192" y="0" on="1"/>
        <pt x="1464" y="0" on="0"/>
        <pt x="1667" y="117" on="1"/>
      </contour>
      <contour>
        <pt x="1251" y="622" on="1"/>
        <pt x="1278" y="648" on="0"/>
        <pt x="1296" y="674" on="1"/>
        <pt x="1296" y="920" on="1"/>
        <pt x="1196" y="920" on="0"/>
        <pt x="972" y="746" on="0"/>
        <pt x="973" y="532" on="0"/>
        <pt x="1156" y="532" on="0"/>
      </contour>
    </TTGlyph>
    <TTGlyph name="atilde" xMin="84" yMin="-37" xMax="1608" yMax="1853">
      <component glyphName="a" x="0" y="0" flags="0x1004"/>
      <component glyphName="tilde" x="312" y="563" flags="0x1004"/>
    </TTGlyph>
    <TTGlyph name="b" xMin="123" yMin="-39" xMax="1657" yMax="1683">
      <contour>
        <pt x="1072" y="-3" on="1"/>
        <pt x="938" y="-39" on="0"/>
        <pt x="472" y="-39" on="0"/>
        <pt x="123" y="16" on="1"/>
        <pt x="123" y="1683" on="1"/>
        <pt x="705" y="1683" on="1"/>
        <pt x="705" y="1096" on="1"/>
        <pt x="834" y="1218" on="0"/>
        <pt x="1018" y="1251" on="1"/>
        <pt x="1068" y="1260" on="0"/>
        <pt x="1106" y="1260" on="1"/>
        <pt x="1367" y="1260" on="0"/>
        <pt x="1657" y="910" on="0"/>
        <pt x="1657" y="657" on="1"/>
        <pt x="1657" y="522" on="0"/>
        <pt x="1580" y="376" on="1"/>
        <pt x="1430" y="92" on="0"/>
      </contour>
      <contour>
        <pt x="993" y="844" on="1"/>
        <pt x="862" y="844" on="0"/>
        <pt x="702" y="713" on="1"/>
        <pt x="702" y="336" on="1"/>
        <pt x="801" y="336" on="1"/>
        <pt x="901" y="336" on="0"/>
        <pt x="1092" y="579" on="0"/>
        <pt x="1092" y="707" on="1"/>
        <pt x="1092" y="798" on="0"/>
        <pt x="1039" y="832" on="1"/>
        <pt x="1020" y="844" on="0"/>
      </contour>
    </TTGlyph>
    <TTGlyph name="backslash" xMin="49" yMin="0" xMax="1030" yMax="1597">
      <contour>
        <pt x="1030" y="0" on="1"/>
        <pt x="356" y="0" on="1"/>
        <pt x="49" y="1597" on="1"/>
        <pt x="580" y="1597" on="1"/>
      </contour>
    </TTGlyph>
    <TTGlyph name="bar" xMin="96" yMin="-205" xMax="725" yMax="1802">
      <contour>
        <pt x="647" y="-205" on="1"/>
        <pt x="162" y="-205" on="1"/>
        <pt x="96" y="1802" on="1"/>
        <pt x="725" y="1802" on="1"/>
      </contour>
    </TTGlyph>
    <TTGlyph name="braceleft" xMin="33" yMin="-143" xMax="924" yMax="1714">
      <contour>
        <pt x="190" y="432" on="1"/>
        <pt x="190" y="556" on="0"/>
        <pt x="98" y="604" on="1"/>
        <pt x="69" y="619" on="0"/>
        <pt x="33" y="621" on="1"/>
        <pt x="33" y="950" on="1"/>
        <pt x="104" y="952" on="0"/>
        <pt x="190" y="1059" on="0"/>
        <pt x="190" y="1267" on="0"/>
        <pt x="274" y="1478" on="0"/>
        <pt x="362" y="1554" on="1"/>
        <pt x="549" y="1714" on="0"/>
        <pt x="924" y="1714" on="1"/>
        <pt x="924" y="1333" on="1"/>
        <pt x="810" y="1332" on="0"/>
        <pt x="772" y="1254" on="1"/>
        <pt x="750" y="1208" on="0"/>
        <pt x="750" y="1135" on="1"/>
        <pt x="750" y="1005" on="0"/>
        <pt x="618" y="813" on="0"/>
        <pt x="510" y="784" on="1"/>
        <pt x="616" y="755" on="0"/>
        <pt x="750" y="568" on="0"/>
        <pt x="750" y="365" on="0"/>
        <pt x="770" y="325" on="1"/>
        <pt x="812" y="238" on="0"/>
        <pt x="924" y="238" on="1"/>
        <pt x="924" y="-143" on="1"/>
        <pt x="548" y="-143" on="0"/>
        <pt x="190" y="163" on="0"/>
      </contour>
    </TTGlyph>
    <TTGlyph name="braceright" xMin="123" yMin="-143" xMax="1014" yMax="1714">
      <contour>
        <pt x="856" y="432" on="1"/>
        <pt x="856" y="18" on="0"/>
        <pt x="457" y="-102" on="1"/>
        <pt x="318" y="-144" on="0"/>
        <pt x="123" y="-143" on="1"/>
        <pt x="123" y="238" on="1"/>
        <pt x="236" y="238" on="0"/>
        <pt x="274" y="318" on="1"/>
        <pt x="296" y="364" on="0"/>
        <pt x="296" y="437" on="1"/>
        <pt x="297" y="568" on="0"/>
        <pt x="429" y="756" on="0"/>
        <pt x="537" y="784" on="1"/>
        <pt x="429" y="813" on="0"/>
        <pt x="297" y="1005" on="0"/>
        <pt x="298" y="1209" on="0"/>
        <pt x="278" y="1248" on="1"/>
        <pt x="236" y="1333" on="0"/>
        <pt x="123" y="1333" on="1"/>
        <pt x="123" y="1714" on="1"/>
        <pt x="498" y="1714" on="0"/>
        <pt x="856" y="1408" on="0"/>
        <pt x="856" y="1139" on="1"/>
        <pt x="856" y="1014" on="0"/>
        <pt x="949" y="966" on="1"/>
        <pt x="978" y="951" on="0"/>
        <pt x="1014" y="950" on="1"/>
        <pt x="1014" y="621" on="1"/>
        <pt x="944" y="617" on="0"/>
        <pt x="856" y="513" on="0"/>
      </contour>
    </TTGlyph>
    <TTGlyph name="bracketleft" xMin="123" yMin="-37" xMax="1067" yMax="1640">
      <contour>
        <pt x="123" y="-37" on="1"/>
        <pt x="123" y="1640" on="1"/>
        <pt x="1067" y="1640" on="1"/>
        <pt x="1067" y="1354" on="1"/>
        <pt x="745" y="1354" on="1"/>
        <pt x="745" y="236" on="1"/>
        <pt x="1067" y="236" on="1"/>
        <pt x="1067" y="-37" on="1"/>
      </contour>
    </TTGlyph>
    <TTGlyph name="bracketright" xMin="123" yMin="-37" xMax="1067" yMax="1640">
      <contour>
        <pt x="123" y="-37" on="1"/>
        <pt x="123" y="236" on="1"/>
        <pt x="444" y="236" on="1"/>
        <pt x="444" y="1354" on="1"/>
        <pt x="123" y="1354" on="1"/>
        <pt x="123" y="1640" on="1"/>
        <pt x="1067" y="1640" on="1"/>
        <pt x="1067" y="-37" on="1"/>
      </contour>
    </TTGlyph>
    <TTGlyph name="breve" xMin="41" yMin="855" xMax="1274" yMax="1472">
      <contour>
        <pt x="1274" y="1465" on="1"/>
        <pt x="1274" y="1213" on="0"/>
        <pt x="950" y="855" on="0"/>
        <pt x="657" y="855" on="1"/>
        <pt x="364" y="855" on="0"/>
        <pt x="41" y="1216" on="0"/>
        <pt x="41" y="1472" on="1"/>
        <pt x="471" y="1472" on="1"/>
        <pt x="470" y="1360" on="0"/>
        <pt x="569" y="1205" on="0"/>
        <pt x="744" y="1205" on="0"/>
        <pt x="842" y="1355" on="0"/>
        <pt x="842" y="1465" on="1"/>
      </contour>
    </TTGlyph>
    <TTGlyph name="brokenbar" xMin="98" yMin="-205" xMax="707" yMax="1802">
      <contour>
        <pt x="127" y="918" on="1"/>
        <pt x="156" y="1802" on="1"/>
        <pt x="641" y="1802" on="1"/>
        <pt x="676" y="918" on="1"/>
      </contour>
      <contour>
        <pt x="672" y="680" on="1"/>
        <pt x="707" y="-205" on="1"/>
        <pt x="98" y="-205" on="1"/>
        <pt x="127" y="680" on="1"/>
      </contour>
    </TTGlyph>
    <TTGlyph name="bullet" xMin="-6" yMin="-37" xMax="766" yMax="715">
      <contour>
        <pt x="406" y="715" on="1"/>
        <pt x="500" y="715" on="0"/>
        <pt x="634" y="656" on="0"/>
        <pt x="678" y="606" on="1"/>
        <pt x="766" y="508" on="0"/>
        <pt x="766" y="200" on="0"/>
        <pt x="550" y="-37" on="0"/>
        <pt x="174" y="-37" on="0"/>
        <pt x="-6" y="166" on="0"/>
        <pt x="-6" y="470" on="0"/>
        <pt x="226" y="715" on="0"/>
      </contour>
    </TTGlyph>
    <TTGlyph name="c" xMin="74" yMin="-2" xMax="1130" yMax="1292">
      <contour>
        <pt x="838" y="379" on="1"/>
        <pt x="939" y="379" on="0"/>
        <pt x="1130" y="522" on="1"/>
        <pt x="1130" y="33" on="1"/>
        <pt x="802" y="-91" on="0"/>
        <pt x="248" y="87" on="0"/>
        <pt x="132" y="316" on="1"/>
        <pt x="74" y="432" on="0"/>
        <pt x="74" y="588" on="1"/>
        <pt x="74" y="902" on="0"/>
        <pt x="506" y="1292" on="0"/>
        <pt x="852" y="1292" on="1"/>
        <pt x="995" y="1292" on="0"/>
        <pt x="1110" y="1249" on="1"/>
        <pt x="1110" y="864" on="1"/>
        <pt x="1083" y="887" on="0"/>
        <pt x="985" y="887" on="0"/>
        <pt x="873" y="825" on="0"/>
        <pt x="827" y="773" on="1"/>
        <pt x="721" y="653" on="0"/>
        <pt x="722" y="400" on="0"/>
        <pt x="798" y="384" on="1"/>
        <pt x="818" y="380" on="0"/>
      </contour>
    </TTGlyph>
    <TTGlyph name="cacute" xMin="74" yMin="-2" xMax="1186" yMax="2040">
      <component glyphName="c" x="0" y="0" flags="0x1204"/>
      <component glyphName="acute" x="594" y="563" flags="0x1004"/>
    </TTGlyph>
    <TTGlyph name="caron" xMin="31" yMin="899" xMax="756" yMax="1505">
      <contour>
        <pt x="47" y="1407" on="1"/>
        <pt x="31" y="1445" on="0"/>
        <pt x="31" y="1505" on="0"/>
        <pt x="103" y="1505" on="0"/>
        <pt x="168" y="1446" on="1"/>
        <pt x="393" y="1239" on="1"/>
        <pt x="621" y="1446" on="1"/>
        <pt x="684" y="1505" on="0"/>
        <pt x="756" y="1505" on="0"/>
        <pt x="756" y="1437" on="0"/>
        <pt x="741" y="1407" on="1"/>
        <pt x="537" y="989" on="1"/>
        <pt x="493" y="899" on="0"/>
        <pt x="395" y="899" on="1"/>
        <pt x="354" y="899" on="0"/>
        <pt x="273" y="946" on="0"/>
        <pt x="252" y="989" on="1"/>
      </contour>
    </TTGlyph>
    <TTGlyph name="ccaron" xMin="74" yMin="-2" xMax="1130" yMax="2068">
      <component glyphName="c" x="0" y="0" flags="0x1204"/>
      <component glyphName="caron" x="271" y="563" flags="0x1004"/>
    </TTGlyph>
    <TTGlyph name="ccedilla" xMin="38" yMin="-631" xMax="1094" yMax="1292">
      <component glyphName="c" x="-36" y="0" flags="0x1204"/>
      <component glyphName="cedilla" x="406" y="0" flags="0x1004"/>
    </TTGlyph>
    <TTGlyph name="ccircumflex" xMin="38" yMin="-2" xMax="1094" yMax="2074">
      <component glyphName="c" x="-36" y="0" flags="0x1204"/>
      <component glyphName="circumflex" x="254" y="563" flags="0x1004"/>
    </TTGlyph>
    <TTGlyph name="cedilla" xMin="20" yMin="-631" xMax="658" yMax="0">
      <contour>
        <pt x="209" y="-328" on="1"/>
        <pt x="303" y="0" on="1"/>
        <pt x="440" y="0" on="1"/>
        <pt x="379" y="-190" on="1"/>
        <pt x="401" y="-192" on="1"/>
        <pt x="503" y="-202" on="0"/>
        <pt x="546" y="-224" on="1"/>
        <pt x="658" y="-281" on="0"/>
        <pt x="658" y="-391" on="1"/>
        <pt x="657" y="-517" on="0"/>
        <pt x="486" y="-631" on="0"/>
        <pt x="362" y="-631" on="1"/>
        <pt x="186" y="-631" on="0"/>
        <pt x="59" y="-545" on="1"/>
        <pt x="20" y="-514" on="0"/>
        <pt x="20" y="-459" on="0"/>
        <pt x="57" y="-422" on="0"/>
        <pt x="87" y="-422" on="0"/>
        <pt x="126" y="-442" on="0"/>
        <pt x="234" y="-486" on="0"/>
        <pt x="272" y="-486" on="1"/>
        <pt x="387" y="-484" on="0"/>
        <pt x="386" y="-425" on="1"/>
        <pt x="385" y="-398" on="0"/>
        <pt x="370" y="-381" on="1"/>
        <pt x="323" y="-328" on="0"/>
      </contour>
    </TTGlyph>
    <TTGlyph name="cent" xMin="29" yMin="-205" xMax="1085" yMax="1452">
      <contour>
        <pt x="778" y="401" on="1"/>
        <pt x="869" y="401" on="0"/>
        <pt x="1085" y="561" on="1"/>
        <pt x="1085" y="33" on="1"/>
        <pt x="929" y="-24" on="0"/>
        <pt x="784" y="-35" on="1"/>
        <pt x="774" y="-205" on="1"/>
        <pt x="623" y="-205" on="1"/>
        <pt x="631" y="-31" on="1"/>
        <pt x="376" y="-6" on="0"/>
        <pt x="29" y="319" on="0"/>
        <pt x="29" y="878" on="0"/>
        <pt x="395" y="1259" on="0"/>
        <pt x="696" y="1288" on="1"/>
        <pt x="705" y="1452" on="1"/>
        <pt x="858" y="1452" on="1"/>
        <pt x="848" y="1290" on="1"/>
        <pt x="986" y="1276" on="0"/>
        <pt x="1065" y="1249" on="1"/>
        <pt x="1065" y="829" on="1"/>
        <pt x="1022" y="842" on="0"/>
        <pt x="967" y="842" on="1"/>
        <pt x="847" y="842" on="0"/>
        <pt x="668" y="696" on="0"/>
        <pt x="668" y="569" on="1"/>
        <pt x="668" y="401" on="0"/>
      </contour>
    </TTGlyph>
    <TTGlyph name="circumflex" xMin="47" yMin="905" xMax="772" yMax="1511">
      <contour>
        <pt x="268" y="1421" on="1"/>
        <pt x="289" y="1465" on="0"/>
        <pt x="370" y="1511" on="0"/>
        <pt x="412" y="1511" on="1"/>
        <pt x="509" y="1511" on="0"/>
        <pt x="553" y="1421" on="1"/>
        <pt x="758" y="1004" on="1"/>
        <pt x="772" y="976" on="0"/>
        <pt x="772" y="905" on="0"/>
        <pt x="743" y="905" on="1"/>
        <pt x="701" y="905" on="0"/>
        <pt x="637" y="965" on="1"/>
        <pt x="410" y="1171" on="1"/>
        <pt x="184" y="965" on="1"/>
        <pt x="118" y="905" on="0"/>
        <pt x="47" y="905" on="0"/>
        <pt x="47" y="940" on="1"/>
        <pt x="47" y="968" on="0"/>
        <pt x="63" y="1004" on="1"/>
      </contour>
    </TTGlyph>
    <TTGlyph name="colon" xMin="82" yMin="0" xMax="636" yMax="1290">
      <contour>
        <pt x="502" y="1290" on="0"/>
        <pt x="636" y="1142" on="0"/>
        <pt x="636" y="928" on="0"/>
        <pt x="476" y="755" on="0"/>
        <pt x="206" y="756" on="0"/>
        <pt x="82" y="897" on="0"/>
        <pt x="82" y="1110" on="0"/>
        <pt x="250" y="1290" on="0"/>
      </contour>
      <contour>
        <pt x="500" y="535" on="0"/>
        <pt x="636" y="388" on="0"/>
        <pt x="636" y="174" on="0"/>
        <pt x="477" y="0" on="0"/>
        <pt x="207" y="0" on="0"/>
        <pt x="82" y="144" on="0"/>
        <pt x="82" y="356" on="0"/>
        <pt x="250" y="536" on="0"/>
      </contour>
    </TTGlyph>
    <TTGlyph name="comma" xMin="123" yMin="-465" xMax="731" yMax="422">
      <contour>
        <pt x="123" y="-207" on="1"/>
        <pt x="234" y="-207" on="0"/>
        <pt x="280" y="-104" on="1"/>
        <pt x="299" y="-58" on="0"/>
        <pt x="303" y="0" on="1"/>
        <pt x="123" y="0" on="1"/>
        <pt x="123" y="422" on="1"/>
        <pt x="731" y="422" on="1"/>
        <pt x="731" y="18" on="1"/>
        <pt x="731" y="-336" on="0"/>
        <pt x="397" y="-432" on="1"/>
        <pt x="282" y="-465" on="0"/>
        <pt x="123" y="-465" on="1"/>
      </contour>
    </TTGlyph>
    <TTGlyph name="commaaccent" xMin="53" yMin="-1022" xMax="662" yMax="-135">
      <contour>
        <pt x="53" y="-764" on="1"/>
        <pt x="164" y="-764" on="0"/>
        <pt x="210" y="-661" on="1"/>
        <pt x="229" y="-615" on="0"/>
        <pt x="233" y="-557" on="1"/>
        <pt x="53" y="-557" on="1"/>
        <pt x="53" y="-135" on="1"/>
        <pt x="662" y="-135" on="1"/>
        <pt x="662" y="-539" on="1"/>
        <pt x="662" y="-893" on="0"/>
        <pt x="327" y="-989" on="1"/>
        <pt x="212" y="-1022" on="0"/>
        <pt x="53" y="-1022" on="1"/>
      </contour>
    </TTGlyph>
    <TTGlyph name="copyright" xMin="76" yMin="-283" xMax="2308" yMax="1892">
      <contour>
        <pt x="1149" y="786" on="1"/>
        <pt x="1149" y="633" on="0"/>
        <pt x="1257" y="633" on="1"/>
        <pt x="1321" y="633" on="0"/>
        <pt x="1464" y="719" on="0"/>
        <pt x="1528" y="766" on="1"/>
        <pt x="1528" y="293" on="1"/>
        <pt x="1375" y="233" on="0"/>
        <pt x="1232" y="233" on="1"/>
        <pt x="955" y="233" on="0"/>
        <pt x="782" y="378" on="1"/>
        <pt x="590" y="536" on="0"/>
        <pt x="590" y="1084" on="0"/>
        <pt x="965" y="1440" on="0"/>
        <pt x="1264" y="1440" on="1"/>
        <pt x="1415" y="1440" on="0"/>
        <pt x="1507" y="1405" on="1"/>
        <pt x="1507" y="1026" on="1"/>
        <pt x="1464" y="1042" on="0"/>
        <pt x="1410" y="1042" on="1"/>
        <pt x="1304" y="1042" on="0"/>
        <pt x="1226" y="968" on="1"/>
        <pt x="1148" y="892" on="0"/>
      </contour>
      <contour>
        <pt x="1743" y="1566" on="0"/>
        <pt x="1412" y="1710" on="0"/>
        <pt x="1045" y="1710" on="0"/>
        <pt x="923" y="1677" on="1"/>
        <pt x="567" y="1581" on="0"/>
        <pt x="409" y="1258" on="1"/>
        <pt x="311" y="1057" on="0"/>
        <pt x="311" y="805" on="1"/>
        <pt x="312" y="417" on="0"/>
        <pt x="532" y="168" on="1"/>
        <pt x="682" y="-2" on="0"/>
        <pt x="923" y="-66" on="1"/>
        <pt x="1045" y="-98" on="0"/>
        <pt x="1412" y="-98" on="0"/>
        <pt x="1743" y="45" on="0"/>
        <pt x="1853" y="168" on="1"/>
        <pt x="2073" y="414" on="0"/>
        <pt x="2073" y="1194" on="0"/>
        <pt x="1853" y="1442" on="1"/>
      </contour>
      <contour>
        <pt x="76" y="805" on="1"/>
        <pt x="76" y="1151" on="0"/>
        <pt x="392" y="1644" on="0"/>
        <pt x="901" y="1893" on="0"/>
        <pt x="1192" y="1892" on="1"/>
        <pt x="1641" y="1892" on="0"/>
        <pt x="1959" y="1620" on="1"/>
        <pt x="2177" y="1433" on="0"/>
        <pt x="2264" y="1137" on="1"/>
        <pt x="2308" y="986" on="0"/>
        <pt x="2308" y="805" on="1"/>
        <pt x="2308" y="459" on="0"/>
        <pt x="1991" y="-34" on="0"/>
        <pt x="1482" y="-282" on="0"/>
        <pt x="1192" y="-283" on="1"/>
        <pt x="740" y="-283" on="0"/>
        <pt x="424" y="-11" on="1"/>
        <pt x="206" y="177" on="0"/>
        <pt x="120" y="473" on="1"/>
        <pt x="76" y="624" on="0"/>
      </contour>
    </TTGlyph>
    <TTGlyph name="currency" xMin="90" yMin="217" xMax="1528" yMax="1599">
      <contour>
        <pt x="1190" y="360" on="1"/>
        <pt x="1024" y="276" on="0"/>
        <pt x="596" y="276" on="0"/>
        <pt x="436" y="356" on="1"/>
        <pt x="313" y="217" on="1"/>
        <pt x="184" y="315" on="1"/>
        <pt x="299" y="446" on="1"/>
        <pt x="90" y="627" on="0"/>
        <pt x="90" y="907" on="1"/>
        <pt x="90" y="1106" on="0"/>
        <pt x="208" y="1269" on="1"/>
        <pt x="247" y="1323" on="0"/>
        <pt x="299" y="1368" on="1"/>
        <pt x="184" y="1501" on="1"/>
        <pt x="313" y="1599" on="1"/>
        <pt x="436" y="1458" on="1"/>
        <pt x="605" y="1538" on="0"/>
        <pt x="1024" y="1538" on="0"/>
        <pt x="1188" y="1454" on="1"/>
        <pt x="1317" y="1599" on="1"/>
        <pt x="1446" y="1501" on="1"/>
        <pt x="1323" y="1364" on="1"/>
        <pt x="1474" y="1230" on="0"/>
        <pt x="1515" y="1032" on="1"/>
        <pt x="1528" y="970" on="0"/>
        <pt x="1528" y="907" on="1"/>
        <pt x="1528" y="780" on="0"/>
        <pt x="1427" y="542" on="0"/>
        <pt x="1325" y="451" on="1"/>
        <pt x="1446" y="315" on="1"/>
        <pt x="1317" y="217" on="1"/>
      </contour>
      <contour>
        <pt x="809" y="635" on="1"/>
        <pt x="922" y="635" on="0"/>
        <pt x="1086" y="783" on="0"/>
        <pt x="1085" y="1044" on="0"/>
        <pt x="920" y="1186" on="0"/>
        <pt x="697" y="1186" on="0"/>
        <pt x="532" y="1044" on="0"/>
        <pt x="532" y="783" on="0"/>
        <pt x="696" y="635" on="0"/>
      </contour>
    </TTGlyph>
    <TTGlyph name="d" xMin="74" yMin="-35" xMax="1665" yMax="1683">
      <contour>
        <pt x="838" y="1288" on="1"/>
        <pt x="957" y="1288" on="0"/>
        <pt x="1083" y="1249" on="1"/>
        <pt x="1083" y="1683" on="1"/>
        <pt x="1665" y="1683" on="1"/>
        <pt x="1665" y="0" on="1"/>
        <pt x="1294" y="0" on="1"/>
        <pt x="1151" y="207" on="1"/>
        <pt x="968" y="-35" on="0"/>
        <pt x="670" y="-35" on="1"/>
        <pt x="431" y="-35" on="0"/>
        <pt x="74" y="290" on="0"/>
        <pt x="74" y="798" on="0"/>
        <pt x="178" y="962" on="1"/>
        <pt x="384" y="1288" on="0"/>
      </contour>
      <contour>
        <pt x="1083" y="866" on="1"/>
        <pt x="1049" y="887" on="0"/>
        <pt x="969" y="887" on="0"/>
        <pt x="932" y="871" on="1"/>
        <pt x="856" y="838" on="0"/>
        <pt x="796" y="764" on="1"/>
        <pt x="764" y="728" on="0"/>
        <pt x="742" y="687" on="1"/>
        <pt x="694" y="599" on="0"/>
        <pt x="694" y="426" on="0"/>
        <pt x="747" y="392" on="1"/>
        <pt x="766" y="380" on="0"/>
        <pt x="793" y="379" on="1"/>
        <pt x="923" y="379" on="0"/>
        <pt x="1083" y="510" on="1"/>
      </contour>
    </TTGlyph>
    <TTGlyph name="dcaron" xMin="74" yMin="-35" xMax="2363" yMax="2312">
      <component glyphName="d" x="0" y="0" flags="0x1204"/>
      <component glyphName="commaaccent" x="1701" y="2447" flags="0x1004"/>
    </TTGlyph>
    <TTGlyph name="dcroat" xMin="74" yMin="-35" xMax="1809" yMax="1683">
      <contour>
        <pt x="838" y="1288" on="1"/>
        <pt x="957" y="1288" on="0"/>
        <pt x="1083" y="1249" on="1"/>
        <pt x="1083" y="1364" on="1"/>
        <pt x="896" y="1364" on="1"/>
        <pt x="896" y="1513" on="1"/>
        <pt x="1083" y="1513" on="1"/>
        <pt x="1083" y="1683" on="1"/>
        <pt x="1665" y="1683" on="1"/>
        <pt x="1665" y="1513" on="1"/>
        <pt x="1809" y="1513" on="1"/>
        <pt x="1809" y="1364" on="1"/>
        <pt x="1665" y="1364" on="1"/>
        <pt x="1665" y="0" on="1"/>
        <pt x="1294" y="0" on="1"/>
        <pt x="1151" y="207" on="1"/>
        <pt x="968" y="-35" on="0"/>
        <pt x="670" y="-35" on="1"/>
        <pt x="431" y="-35" on="0"/>
        <pt x="74" y="290" on="0"/>
        <pt x="74" y="798" on="0"/>
        <pt x="178" y="962" on="1"/>
        <pt x="384" y="1288" on="0"/>
      </contour>
      <contour>
        <pt x="1083" y="866" on="1"/>
        <pt x="1049" y="887" on="0"/>
        <pt x="969" y="887" on="0"/>
        <pt x="932" y="871" on="1"/>
        <pt x="856" y="838" on="0"/>
        <pt x="796" y="764" on="1"/>
        <pt x="764" y="728" on="0"/>
        <pt x="742" y="687" on="1"/>
        <pt x="694" y="599" on="0"/>
        <pt x="694" y="426" on="0"/>
        <pt x="747" y="392" on="1"/>
        <pt x="766" y="380" on="0"/>
        <pt x="793" y="379" on="1"/>
        <pt x="923" y="379" on="0"/>
        <pt x="1083" y="510" on="1"/>
      </contour>
    </TTGlyph>
    <TTGlyph name="degree" xMin="78" yMin="1006" xMax="728" yMax="1640">
      <contour>
        <pt x="336" y="1460" on="0"/>
        <pt x="260" y="1379" on="0"/>
        <pt x="260" y="1340" on="1"/>
        <pt x="260" y="1272" on="0"/>
        <pt x="337" y="1188" on="0"/>
        <pt x="389" y="1188" on="1"/>
        <pt x="472" y="1188" on="0"/>
        <pt x="548" y="1269" on="0"/>
        <pt x="547" y="1348" on="0"/>
        <pt x="529" y="1398" on="0"/>
        <pt x="510" y="1417" on="1"/>
        <pt x="469" y="1460" on="0"/>
      </contour>
      <contour>
        <pt x="78" y="1473" on="0"/>
        <pt x="270" y="1640" on="0"/>
        <pt x="532" y="1640" on="0"/>
        <pt x="727" y="1472" on="0"/>
        <pt x="728" y="1174" on="0"/>
        <pt x="534" y="1006" on="0"/>
        <pt x="403" y="1006" on="1"/>
        <pt x="272" y="1006" on="0"/>
        <pt x="78" y="1174" on="0"/>
      </contour>
    </TTGlyph>
    <TTGlyph name="dieresis" xMin="102" yMin="842" xMax="1188" yMax="1284">
      <contour>
        <pt x="464" y="1284" on="0"/>
        <pt x="582" y="1170" on="0"/>
        <pt x="582" y="1083" on="1"/>
        <pt x="582" y="924" on="0"/>
        <pt x="444" y="863" on="1"/>
        <pt x="396" y="842" on="0"/>
        <pt x="334" y="842" on="1"/>
        <pt x="219" y="842" on="0"/>
        <pt x="102" y="959" on="0"/>
        <pt x="102" y="1143" on="0"/>
        <pt x="243" y="1284" on="0"/>
      </contour>
      <contour>
        <pt x="1070" y="1284" on="0"/>
        <pt x="1188" y="1170" on="0"/>
        <pt x="1188" y="1083" on="1"/>
        <pt x="1188" y="923" on="0"/>
        <pt x="1052" y="863" on="1"/>
        <pt x="1004" y="842" on="0"/>
        <pt x="943" y="842" on="1"/>
        <pt x="830" y="842" on="0"/>
        <pt x="709" y="959" on="0"/>
        <pt x="710" y="1142" on="0"/>
        <pt x="848" y="1284" on="0"/>
      </contour>
    </TTGlyph>
    <TTGlyph name="divide" xMin="82" yMin="0" xMax="636" yMax="1290">
      <component glyphName="colon" x="0" y="0" flags="0x1204"/>
    </TTGlyph>
    <TTGlyph name="dollar" xMin="68" yMin="-205" xMax="1328" yMax="1802">
      <contour>
        <pt x="453" y="451" on="1"/>
        <pt x="553" y="451" on="0"/>
        <pt x="553" y="512" on="1"/>
        <pt x="553" y="558" on="0"/>
        <pt x="477" y="600" on="1"/>
        <pt x="443" y="618" on="0"/>
        <pt x="356" y="660" on="0"/>
        <pt x="310" y="687" on="1"/>
        <pt x="68" y="831" on="0"/>
        <pt x="68" y="1101" on="1"/>
        <pt x="68" y="1247" on="0"/>
        <pt x="112" y="1336" on="1"/>
        <pt x="234" y="1583" on="0"/>
        <pt x="614" y="1632" on="1"/>
        <pt x="623" y="1802" on="1"/>
        <pt x="776" y="1802" on="1"/>
        <pt x="768" y="1640" on="1"/>
        <pt x="969" y="1638" on="0"/>
        <pt x="1172" y="1598" on="1"/>
        <pt x="1215" y="1590" on="0"/>
        <pt x="1229" y="1585" on="1"/>
        <pt x="1229" y="1114" on="1"/>
        <pt x="962" y="1171" on="0"/>
        <pt x="838" y="1171" on="1"/>
        <pt x="791" y="1171" on="0"/>
        <pt x="745" y="1140" on="0"/>
        <pt x="745" y="1124" on="1"/>
        <pt x="745" y="1100" on="0"/>
        <pt x="788" y="1064" on="0"/>
        <pt x="916" y="1014" on="0"/>
        <pt x="978" y="989" on="1"/>
        <pt x="1189" y="904" on="0"/>
        <pt x="1264" y="771" on="1"/>
        <pt x="1328" y="661" on="0"/>
        <pt x="1327" y="357" on="0"/>
        <pt x="1235" y="164" on="0"/>
        <pt x="1151" y="98" on="1"/>
        <pt x="981" y="-34" on="0"/>
        <pt x="682" y="-37" on="1"/>
        <pt x="674" y="-205" on="1"/>
        <pt x="520" y="-205" on="1"/>
        <pt x="528" y="-33" on="1"/>
        <pt x="304" y="-21" on="0"/>
        <pt x="164" y="27" on="1"/>
        <pt x="103" y="48" on="0"/>
        <pt x="72" y="72" on="1"/>
        <pt x="72" y="545" on="1"/>
        <pt x="76" y="544" on="0"/>
        <pt x="96" y="536" on="1"/>
        <pt x="208" y="496" on="0"/>
        <pt x="389" y="450" on="0"/>
      </contour>
    </TTGlyph>
    <TTGlyph name="dotaccent" xMin="42" yMin="928" xMax="651" yMax="1516">
      <contour>
        <pt x="507" y="1516" on="0"/>
        <pt x="650" y="1356" on="0"/>
        <pt x="651" y="1117" on="0"/>
        <pt x="475" y="928" on="0"/>
        <pt x="182" y="928" on="0"/>
        <pt x="42" y="1083" on="0"/>
        <pt x="43" y="1320" on="0"/>
        <pt x="229" y="1516" on="0"/>
      </contour>
    </TTGlyph>
    <TTGlyph name="dotaccentcmb" xMin="42" yMin="928" xMax="651" yMax="1516">
      <contour>
        <pt x="507" y="1516" on="0"/>
        <pt x="650" y="1356" on="0"/>
        <pt x="651" y="1117" on="0"/>
        <pt x="475" y="928" on="0"/>
        <pt x="182" y="928" on="0"/>
        <pt x="42" y="1083" on="0"/>
        <pt x="43" y="1320" on="0"/>
        <pt x="229" y="1516" on="0"/>
      </contour>
    </TTGlyph>
    <TTGlyph name="dotlessi" xMin="61" yMin="0" xMax="639" yMax="1243">
      <contour>
        <pt x="639" y="0" on="1"/>
        <pt x="61" y="0" on="1"/>
        <pt x="61" y="1243" on="1"/>
        <pt x="639" y="1243" on="1"/>
      </contour>
    </TTGlyph>
    <TTGlyph name="dotlessj" xMin="29" yMin="-332" xMax="909" yMax="1243">
      <contour>
        <pt x="449" y="-332" on="1"/>
        <pt x="208" y="-332" on="0"/>
        <pt x="29" y="-188" on="1"/>
        <pt x="31" y="70" on="1"/>
        <pt x="71" y="53" on="0"/>
        <pt x="163" y="53" on="0"/>
        <pt x="225" y="104" on="0"/>
        <pt x="251" y="142" on="1"/>
        <pt x="311" y="231" on="0"/>
        <pt x="311" y="317" on="1"/>
        <pt x="311" y="1243" on="1"/>
        <pt x="909" y="1243" on="1"/>
        <pt x="909" y="111" on="1"/>
        <pt x="909" y="-92" on="0"/>
        <pt x="644" y="-332" on="0"/>
      </contour>
    </TTGlyph>
    <TTGlyph name="dz" xMin="74" yMin="-35" xMax="3060" yMax="1683">
      <component glyphName="d" x="0" y="0" flags="0x1004"/>
      <component glyphName="z" x="1665" y="0" flags="0x1004"/>
    </TTGlyph>
    <TTGlyph name="dzcaron" xMin="74" yMin="-35" xMax="3120" yMax="2068">
      <component glyphName="d" x="0" y="0" flags="0x1004"/>
      <component glyphName="z" x="1725" y="0" flags="0x1004"/>
      <component glyphName="caron" x="2102" y="563" flags="0x1004"/>
    </TTGlyph>
    <TTGlyph name="e" xMin="74" yMin="-37" xMax="1417" yMax="1292">
      <contour>
        <pt x="934" y="887" on="1"/>
        <pt x="934" y="975" on="0"/>
        <pt x="852" y="975" on="1"/>
        <pt x="758" y="966" on="0"/>
        <pt x="730" y="878" on="1"/>
        <pt x="716" y="836" on="0"/>
        <pt x="705" y="725" on="0"/>
        <pt x="694" y="662" on="1"/>
        <pt x="913" y="711" on="1"/>
        <pt x="932" y="864" on="1"/>
      </contour>
      <contour>
        <pt x="799" y="432" on="1"/>
        <pt x="799" y="432" on="0"/>
        <pt x="744" y="432" on="1"/>
        <pt x="718" y="432" on="0"/>
        <pt x="694" y="434" on="1"/>
        <pt x="694" y="315" on="0"/>
        <pt x="821" y="304" on="1"/>
        <pt x="856" y="301" on="0"/>
        <pt x="889" y="301" on="1"/>
        <pt x="974" y="301" on="0"/>
        <pt x="1231" y="379" on="0"/>
        <pt x="1333" y="467" on="1"/>
        <pt x="1395" y="156" on="1"/>
        <pt x="1172" y="-37" on="0"/>
        <pt x="721" y="-37" on="1"/>
        <pt x="462" y="-37" on="0"/>
        <pt x="276" y="114" on="1"/>
        <pt x="74" y="279" on="0"/>
        <pt x="74" y="571" on="1"/>
        <pt x="74" y="791" on="0"/>
        <pt x="188" y="966" on="1"/>
        <pt x="294" y="1126" on="0"/>
        <pt x="656" y="1292" on="0"/>
        <pt x="866" y="1292" on="1"/>
        <pt x="1138" y="1292" on="0"/>
        <pt x="1417" y="1054" on="0"/>
        <pt x="1416" y="704" on="0"/>
        <pt x="1082" y="432" on="0"/>
      </contour>
    </TTGlyph>
    <TTGlyph name="eacute" xMin="74" yMin="-37" xMax="1417" yMax="2038">
      <component glyphName="e" x="0" y="0" flags="0x1204"/>
      <component glyphName="acute" x="741" y="561" flags="0x1004"/>
    </TTGlyph>
    <TTGlyph name="ecaron" xMin="74" yMin="-37" xMax="1417" yMax="2066">
      <component glyphName="e" x="0" y="0" flags="0x1204"/>
      <component glyphName="caron" x="418" y="561" flags="0x1004"/>
    </TTGlyph>
    <TTGlyph name="ecircumflex" xMin="74" yMin="-37" xMax="1417" yMax="2072">
      <component glyphName="e" x="0" y="0" flags="0x1204"/>
      <component glyphName="circumflex" x="401" y="561" flags="0x1004"/>
    </TTGlyph>
    <TTGlyph name="edieresis" xMin="74" yMin="-37" xMax="1417" yMax="1845">
      <component glyphName="e" x="0" y="0" flags="0x1204"/>
      <component glyphName="dieresis" x="164" y="561" flags="0x1004"/>
    </TTGlyph>
    <TTGlyph name="egrave" xMin="74" yMin="-37" xMax="1417" yMax="2037">
      <component glyphName="e" x="0" y="0" flags="0x1204"/>
      <component glyphName="grave" x="256" y="561" flags="0x1004"/>
    </TTGlyph>
    <TTGlyph name="eight" xMin="86" yMin="-37" xMax="1683" yMax="1642">
      <contour>
        <pt x="885" y="-37" on="1"/>
        <pt x="267" y="-36" on="0"/>
        <pt x="123" y="258" on="1"/>
        <pt x="86" y="334" on="0"/>
        <pt x="86" y="426" on="1"/>
        <pt x="86" y="599" on="0"/>
        <pt x="230" y="790" on="0"/>
        <pt x="389" y="862" on="1"/>
        <pt x="248" y="936" on="0"/>
        <pt x="146" y="1078" on="0"/>
        <pt x="145" y="1310" on="0"/>
        <pt x="182" y="1377" on="1"/>
        <pt x="281" y="1556" on="0"/>
        <pt x="578" y="1614" on="1"/>
        <pt x="721" y="1642" on="0"/>
        <pt x="949" y="1642" on="0"/>
        <pt x="1029" y="1636" on="1"/>
        <pt x="1203" y="1623" on="0"/>
        <pt x="1430" y="1538" on="0"/>
        <pt x="1490" y="1491" on="1"/>
        <pt x="1624" y="1387" on="0"/>
        <pt x="1624" y="1076" on="0"/>
        <pt x="1521" y="935" on="0"/>
        <pt x="1380" y="862" on="1"/>
        <pt x="1540" y="790" on="0"/>
        <pt x="1684" y="597" on="0"/>
        <pt x="1682" y="244" on="0"/>
        <pt x="1546" y="130" on="1"/>
        <pt x="1348" y="-36" on="0"/>
      </contour>
      <contour>
        <pt x="986" y="448" on="1"/>
        <pt x="1042" y="482" on="0"/>
        <pt x="1042" y="631" on="0"/>
        <pt x="948" y="721" on="0"/>
        <pt x="821" y="721" on="0"/>
        <pt x="727" y="631" on="0"/>
        <pt x="727" y="516" on="0"/>
        <pt x="754" y="466" on="0"/>
        <pt x="812" y="430" on="0"/>
        <pt x="885" y="430" on="1"/>
        <pt x="958" y="430" on="0"/>
      </contour>
      <contour>
        <pt x="885" y="1233" on="1"/>
        <pt x="750" y="1232" on="0"/>
        <pt x="750" y="1122" on="1"/>
        <pt x="750" y="1060" on="0"/>
        <pt x="797" y="1019" on="1"/>
        <pt x="885" y="943" on="0"/>
        <pt x="1020" y="1062" on="0"/>
        <pt x="1020" y="1109" on="1"/>
        <pt x="1020" y="1187" on="0"/>
        <pt x="943" y="1233" on="0"/>
      </contour>
    </TTGlyph>
    <TTGlyph name="einvertedbreve" xMin="74" yMin="-37" xMax="1417" yMax="2011">
      <component glyphName="e" x="0" y="0" flags="0x1204"/>
      <component glyphName="uni0311" x="152" y="561" flags="0x1004"/>
    </TTGlyph>
    <TTGlyph name="emdash" xMin="123" yMin="614" xMax="1036" yMax="911">
      <contour>
        <pt x="123" y="911" on="1"/>
        <pt x="1036" y="911" on="1"/>
        <pt x="1036" y="614" on="1"/>
        <pt x="123" y="614" on="1"/>
      </contour>
    </TTGlyph>
    <TTGlyph name="endash" xMin="123" yMin="614" xMax="1036" yMax="911">
      <contour>
        <pt x="123" y="911" on="1"/>
        <pt x="1036" y="911" on="1"/>
        <pt x="1036" y="614" on="1"/>
        <pt x="123" y="614" on="1"/>
      </contour>
    </TTGlyph>
    <TTGlyph name="equal" xMin="123" yMin="55" xMax="1036" yMax="911">
      <contour>
        <pt x="123" y="911" on="1"/>
        <pt x="1036" y="911" on="1"/>
        <pt x="1036" y="614" on="1"/>
        <pt x="123" y="614" on="1"/>
      </contour>
      <contour>
        <pt x="123" y="352" on="1"/>
        <pt x="1036" y="352" on="1"/>
        <pt x="1036" y="55" on="1"/>
        <pt x="123" y="55" on="1"/>
      </contour>
    </TTGlyph>
    <TTGlyph name="eth" xMin="74" yMin="-37" xMax="1587" yMax="1855">
      <contour>
        <pt x="714" y="983" on="1"/>
        <pt x="860" y="983" on="0"/>
        <pt x="1028" y="928" on="1"/>
        <pt x="1028" y="1167" on="0"/>
        <pt x="813" y="1245" on="1"/>
        <pt x="760" y="1063" on="1"/>
        <pt x="551" y="1104" on="1"/>
        <pt x="602" y="1278" on="1"/>
        <pt x="432" y="1278" on="0"/>
        <pt x="264" y="1229" on="1"/>
        <pt x="207" y="1532" on="1"/>
        <pt x="475" y="1597" on="0"/>
        <pt x="688" y="1597" on="1"/>
        <pt x="698" y="1597" on="1"/>
        <pt x="776" y="1855" on="1"/>
        <pt x="983" y="1815" on="1"/>
        <pt x="911" y="1573" on="1"/>
        <pt x="1212" y="1507" on="0"/>
        <pt x="1586" y="1059" on="0"/>
        <pt x="1587" y="727" on="1"/>
        <pt x="1587" y="344" on="0"/>
        <pt x="1334" y="142" on="1"/>
        <pt x="1109" y="-38" on="0"/>
        <pt x="766" y="-37" on="1"/>
        <pt x="490" y="-37" on="0"/>
        <pt x="304" y="75" on="1"/>
        <pt x="74" y="214" on="0"/>
        <pt x="74" y="506" on="1"/>
        <pt x="74" y="750" on="0"/>
        <pt x="265" y="876" on="1"/>
        <pt x="428" y="984" on="0"/>
      </contour>
      <contour>
        <pt x="1022" y="694" on="1"/>
        <pt x="997" y="715" on="0"/>
        <pt x="944" y="715" on="1"/>
        <pt x="836" y="715" on="0"/>
        <pt x="633" y="526" on="0"/>
        <pt x="634" y="338" on="0"/>
        <pt x="686" y="302" on="1"/>
        <pt x="704" y="290" on="0"/>
        <pt x="731" y="289" on="1"/>
        <pt x="862" y="289" on="0"/>
        <pt x="1022" y="420" on="1"/>
      </contour>
    </TTGlyph>
    <TTGlyph name="exclam" xMin="100" yMin="-37" xMax="678" yMax="1599">
      <contour>
        <pt x="575" y="639" on="1"/>
        <pt x="203" y="639" on="1"/>
        <pt x="100" y="1599" on="1"/>
        <pt x="678" y="1599" on="1"/>
      </contour>
      <contour>
        <pt x="414" y="479" on="1"/>
        <pt x="484" y="479" on="0"/>
        <pt x="582" y="440" on="0"/>
        <pt x="614" y="406" on="1"/>
        <pt x="678" y="340" on="0"/>
        <pt x="678" y="130" on="0"/>
        <pt x="512" y="-36" on="0"/>
        <pt x="232" y="-37" on="0"/>
        <pt x="102" y="100" on="0"/>
        <pt x="102" y="306" on="0"/>
        <pt x="280" y="479" on="0"/>
      </contour>
    </TTGlyph>
    <TTGlyph name="exclamdown" xMin="102" yMin="-37" xMax="680" yMax="1600">
      <contour>
        <pt x="281" y="1083" on="0"/>
        <pt x="104" y="1257" on="0"/>
        <pt x="104" y="1364" on="1"/>
        <pt x="104" y="1522" on="0"/>
        <pt x="248" y="1580" on="1"/>
        <pt x="297" y="1600" on="0"/>
        <pt x="370" y="1600" on="1"/>
        <pt x="513" y="1599" on="0"/>
        <pt x="680" y="1432" on="0"/>
        <pt x="680" y="1222" on="0"/>
        <pt x="546" y="1082" on="0"/>
      </contour>
      <contour>
        <pt x="680" y="-37" on="1"/>
        <pt x="102" y="-37" on="1"/>
        <pt x="205" y="924" on="1"/>
        <pt x="578" y="924" on="1"/>
      </contour>
    </TTGlyph>
    <TTGlyph name="f" xMin="68" yMin="0" xMax="1063" yMax="1815">
      <contour>
        <pt x="1061" y="1413" on="1"/>
        <pt x="1012" y="1427" on="0"/>
        <pt x="964" y="1427" on="1"/>
        <pt x="877" y="1427" on="0"/>
        <pt x="786" y="1328" on="0"/>
        <pt x="780" y="1243" on="1"/>
        <pt x="1063" y="1243" on="1"/>
        <pt x="1063" y="926" on="1"/>
        <pt x="780" y="926" on="1"/>
        <pt x="780" y="0" on="1"/>
        <pt x="182" y="0" on="1"/>
        <pt x="182" y="926" on="1"/>
        <pt x="68" y="926" on="1"/>
        <pt x="68" y="1243" on="1"/>
        <pt x="182" y="1243" on="1"/>
        <pt x="182" y="1454" on="1"/>
        <pt x="182" y="1620" on="0"/>
        <pt x="446" y="1814" on="0"/>
        <pt x="886" y="1815" on="0"/>
        <pt x="1061" y="1712" on="1"/>
      </contour>
    </TTGlyph>
    <TTGlyph name="ff" xMin="68" yMin="0" xMax="2056" yMax="1815">
      <contour>
        <pt x="2054" y="1413" on="1"/>
        <pt x="2005" y="1427" on="0"/>
        <pt x="1958" y="1427" on="1"/>
        <pt x="1871" y="1427" on="0"/>
        <pt x="1781" y="1327" on="0"/>
        <pt x="1774" y="1243" on="1"/>
        <pt x="2056" y="1243" on="1"/>
        <pt x="2056" y="926" on="1"/>
        <pt x="1774" y="926" on="1"/>
        <pt x="1774" y="0" on="1"/>
        <pt x="1176" y="0" on="1"/>
        <pt x="1176" y="926" on="1"/>
        <pt x="780" y="926" on="1"/>
        <pt x="780" y="0" on="1"/>
        <pt x="182" y="0" on="1"/>
        <pt x="182" y="926" on="1"/>
        <pt x="68" y="926" on="1"/>
        <pt x="68" y="1243" on="1"/>
        <pt x="182" y="1243" on="1"/>
        <pt x="182" y="1454" on="1"/>
        <pt x="182" y="1620" on="0"/>
        <pt x="446" y="1814" on="0"/>
        <pt x="886" y="1815" on="0"/>
        <pt x="1061" y="1712" on="1"/>
        <pt x="1061" y="1413" on="1"/>
        <pt x="1012" y="1427" on="0"/>
        <pt x="964" y="1427" on="1"/>
        <pt x="877" y="1427" on="0"/>
        <pt x="786" y="1328" on="0"/>
        <pt x="780" y="1243" on="1"/>
        <pt x="1176" y="1243" on="1"/>
        <pt x="1176" y="1454" on="1"/>
        <pt x="1176" y="1620" on="0"/>
        <pt x="1439" y="1814" on="0"/>
        <pt x="1879" y="1815" on="0"/>
        <pt x="2054" y="1712" on="1"/>
      </contour>
    </TTGlyph>
    <TTGlyph name="ffi" xMin="68" yMin="0" xMax="2948" yMax="1855">
      <contour>
        <pt x="2204" y="1454" on="1"/>
        <pt x="2164" y="1468" on="0"/>
        <pt x="2118" y="1468" on="1"/>
        <pt x="2028" y="1468" on="0"/>
        <pt x="1911" y="1347" on="0"/>
        <pt x="1903" y="1243" on="1"/>
        <pt x="2935" y="1243" on="1"/>
        <pt x="2935" y="0" on="1"/>
        <pt x="2367" y="0" on="1"/>
        <pt x="2367" y="926" on="1"/>
        <pt x="1903" y="926" on="1"/>
        <pt x="1903" y="0" on="1"/>
        <pt x="1305" y="0" on="1"/>
        <pt x="1305" y="926" on="1"/>
        <pt x="862" y="926" on="1"/>
        <pt x="862" y="0" on="1"/>
        <pt x="264" y="0" on="1"/>
        <pt x="264" y="926" on="1"/>
        <pt x="68" y="926" on="1"/>
        <pt x="68" y="1243" on="1"/>
        <pt x="264" y="1243" on="1"/>
        <pt x="264" y="1454" on="1"/>
        <pt x="264" y="1620" on="0"/>
        <pt x="528" y="1814" on="0"/>
        <pt x="968" y="1815" on="0"/>
        <pt x="1143" y="1712" on="1"/>
        <pt x="1143" y="1413" on="1"/>
        <pt x="1094" y="1427" on="0"/>
        <pt x="1046" y="1427" on="1"/>
        <pt x="959" y="1427" on="0"/>
        <pt x="868" y="1328" on="0"/>
        <pt x="862" y="1243" on="1"/>
        <pt x="1305" y="1243" on="1"/>
        <pt x="1305" y="1495" on="1"/>
        <pt x="1304" y="1661" on="0"/>
        <pt x="1568" y="1855" on="0"/>
        <pt x="1765" y="1855" on="1"/>
        <pt x="2020" y="1855" on="0"/>
        <pt x="2204" y="1753" on="1"/>
      </contour>
      <contour>
        <pt x="2806" y="1819" on="0"/>
        <pt x="2948" y="1696" on="0"/>
        <pt x="2947" y="1506" on="0"/>
        <pt x="2766" y="1346" on="0"/>
        <pt x="2471" y="1346" on="0"/>
        <pt x="2337" y="1462" on="0"/>
        <pt x="2337" y="1656" on="0"/>
        <pt x="2514" y="1818" on="0"/>
      </contour>
    </TTGlyph>
    <TTGlyph name="ffl" xMin="68" yMin="0" xMax="2714" yMax="1837">
      <contour>
        <pt x="1720" y="1335" on="1"/>
        <pt x="1720" y="1292" on="0"/>
        <pt x="1735" y="1243" on="1"/>
        <pt x="2042" y="1243" on="1"/>
        <pt x="2042" y="926" on="1"/>
        <pt x="1759" y="926" on="1"/>
        <pt x="1759" y="0" on="1"/>
        <pt x="1161" y="0" on="1"/>
        <pt x="1161" y="926" on="1"/>
        <pt x="780" y="926" on="1"/>
        <pt x="780" y="0" on="1"/>
        <pt x="182" y="0" on="1"/>
        <pt x="182" y="926" on="1"/>
        <pt x="68" y="926" on="1"/>
        <pt x="68" y="1243" on="1"/>
        <pt x="182" y="1243" on="1"/>
        <pt x="182" y="1454" on="1"/>
        <pt x="182" y="1620" on="0"/>
        <pt x="446" y="1814" on="0"/>
        <pt x="886" y="1815" on="0"/>
        <pt x="1061" y="1712" on="1"/>
        <pt x="1061" y="1413" on="1"/>
        <pt x="1012" y="1427" on="0"/>
        <pt x="964" y="1427" on="1"/>
        <pt x="877" y="1427" on="0"/>
        <pt x="786" y="1328" on="0"/>
        <pt x="780" y="1243" on="1"/>
        <pt x="1161" y="1243" on="1"/>
        <pt x="1161" y="1352" on="1"/>
        <pt x="1161" y="1738" on="0"/>
        <pt x="1660" y="1814" on="1"/>
        <pt x="1812" y="1837" on="0"/>
        <pt x="1948" y="1837" on="1"/>
        <pt x="2174" y="1837" on="0"/>
        <pt x="2589" y="1762" on="0"/>
        <pt x="2714" y="1712" on="1"/>
        <pt x="2714" y="0" on="1"/>
        <pt x="2148" y="0" on="1"/>
        <pt x="2148" y="1475" on="1"/>
        <pt x="2055" y="1507" on="0"/>
        <pt x="1958" y="1507" on="1"/>
        <pt x="1720" y="1507" on="0"/>
      </contour>
    </TTGlyph>
    <TTGlyph name="fi" xMin="68" yMin="0" xMax="1778" yMax="1882">
      <contour>
        <pt x="1081" y="1454" on="1"/>
        <pt x="1041" y="1468" on="0"/>
        <pt x="996" y="1468" on="1"/>
        <pt x="906" y="1468" on="0"/>
        <pt x="788" y="1346" on="0"/>
        <pt x="780" y="1243" on="1"/>
        <pt x="1778" y="1243" on="1"/>
        <pt x="1778" y="0" on="1"/>
        <pt x="1200" y="0" on="1"/>
        <pt x="1200" y="926" on="1"/>
        <pt x="780" y="926" on="1"/>
        <pt x="780" y="0" on="1"/>
        <pt x="182" y="0" on="1"/>
        <pt x="182" y="926" on="1"/>
        <pt x="68" y="926" on="1"/>
        <pt x="68" y="1243" on="1"/>
        <pt x="182" y="1243" on="1"/>
        <pt x="182" y="1495" on="1"/>
        <pt x="182" y="1662" on="0"/>
        <pt x="447" y="1855" on="0"/>
        <pt x="643" y="1855" on="1"/>
        <pt x="899" y="1855" on="0"/>
        <pt x="1081" y="1753" on="1"/>
      </contour>
      <contour>
        <pt x="1644" y="1882" on="0"/>
        <pt x="1778" y="1742" on="0"/>
        <pt x="1778" y="1532" on="0"/>
        <pt x="1612" y="1366" on="0"/>
        <pt x="1332" y="1366" on="0"/>
        <pt x="1202" y="1503" on="0"/>
        <pt x="1202" y="1709" on="0"/>
        <pt x="1380" y="1882" on="0"/>
      </contour>
    </TTGlyph>
    <TTGlyph name="five" xMin="68" yMin="-37" xMax="1708" yMax="1599">
      <contour>
        <pt x="305" y="559" on="1"/>
        <pt x="540" y="430" on="0"/>
        <pt x="838" y="430" on="1"/>
        <pt x="924" y="430" on="0"/>
        <pt x="1024" y="508" on="0"/>
        <pt x="1024" y="603" on="0"/>
        <pt x="998" y="653" on="0"/>
        <pt x="977" y="669" on="1"/>
        <pt x="939" y="698" on="0"/>
        <pt x="833" y="713" on="0"/>
        <pt x="664" y="713" on="0"/>
        <pt x="479" y="676" on="1"/>
        <pt x="188" y="797" on="1"/>
        <pt x="356" y="1599" on="1"/>
        <pt x="1681" y="1599" on="1"/>
        <pt x="1597" y="1196" on="1"/>
        <pt x="811" y="1196" on="1"/>
        <pt x="782" y="1034" on="1"/>
        <pt x="877" y="1047" on="0"/>
        <pt x="1052" y="1047" on="0"/>
        <pt x="1229" y="1025" on="0"/>
        <pt x="1311" y="1000" on="1"/>
        <pt x="1492" y="945" on="0"/>
        <pt x="1708" y="717" on="0"/>
        <pt x="1708" y="320" on="0"/>
        <pt x="1578" y="184" on="1"/>
        <pt x="1368" y="-36" on="0"/>
        <pt x="883" y="-37" on="1"/>
        <pt x="541" y="-37" on="0"/>
        <pt x="270" y="66" on="1"/>
        <pt x="162" y="107" on="0"/>
        <pt x="68" y="172" on="1"/>
      </contour>
    </TTGlyph>
    <TTGlyph name="fl" xMin="68" yMin="0" xMax="1776" yMax="1837">
      <contour>
        <pt x="741" y="1335" on="1"/>
        <pt x="741" y="1292" on="0"/>
        <pt x="756" y="1243" on="1"/>
        <pt x="1063" y="1243" on="1"/>
        <pt x="1063" y="926" on="1"/>
        <pt x="780" y="926" on="1"/>
        <pt x="780" y="0" on="1"/>
        <pt x="182" y="0" on="1"/>
        <pt x="182" y="926" on="1"/>
        <pt x="68" y="926" on="1"/>
        <pt x="68" y="1243" on="1"/>
        <pt x="182" y="1243" on="1"/>
        <pt x="182" y="1352" on="1"/>
        <pt x="182" y="1738" on="0"/>
        <pt x="681" y="1814" on="1"/>
        <pt x="833" y="1837" on="0"/>
        <pt x="968" y="1837" on="1"/>
        <pt x="1198" y="1837" on="0"/>
        <pt x="1655" y="1761" on="0"/>
        <pt x="1776" y="1712" on="1"/>
        <pt x="1776" y="0" on="1"/>
        <pt x="1198" y="0" on="1"/>
        <pt x="1198" y="1475" on="1"/>
        <pt x="1096" y="1507" on="0"/>
        <pt x="979" y="1507" on="1"/>
        <pt x="741" y="1507" on="0"/>
      </contour>
    </TTGlyph>
    <TTGlyph name="four" xMin="47" yMin="0" xMax="1778" yMax="1599">
      <contour>
        <pt x="47" y="686" on="1"/>
        <pt x="676" y="1599" on="1"/>
        <pt x="1636" y="1599" on="1"/>
        <pt x="1636" y="702" on="1"/>
        <pt x="1778" y="702" on="1"/>
        <pt x="1778" y="215" on="1"/>
        <pt x="1636" y="215" on="1"/>
        <pt x="1636" y="0" on="1"/>
        <pt x="961" y="0" on="1"/>
        <pt x="961" y="215" on="1"/>
        <pt x="47" y="215" on="1"/>
      </contour>
      <contour>
        <pt x="670" y="686" on="1"/>
        <pt x="961" y="686" on="1"/>
        <pt x="961" y="1139" on="1"/>
      </contour>
    </TTGlyph>
    <TTGlyph name="foursuperior" xMin="47" yMin="0" xMax="1432" yMax="1280">
      <contour>
        <pt x="47" y="549" on="1"/>
        <pt x="549" y="1280" on="1"/>
        <pt x="1317" y="1280" on="1"/>
        <pt x="1317" y="561" on="1"/>
        <pt x="1432" y="561" on="1"/>
        <pt x="1432" y="172" on="1"/>
        <pt x="1317" y="172" on="1"/>
        <pt x="1317" y="0" on="1"/>
        <pt x="776" y="0" on="1"/>
        <pt x="776" y="172" on="1"/>
        <pt x="47" y="172" on="1"/>
      </contour>
      <contour>
        <pt x="545" y="549" on="1"/>
        <pt x="776" y="549" on="1"/>
        <pt x="776" y="911" on="1"/>
      </contour>
    </TTGlyph>
    <TTGlyph name="fraction" xMin="20" yMin="0" xMax="1165" yMax="1597">
      <contour>
        <pt x="285" y="0" on="1"/>
        <pt x="20" y="0" on="1"/>
        <pt x="573" y="1597" on="1"/>
        <pt x="1165" y="1597" on="1"/>
      </contour>
    </TTGlyph>
    <TTGlyph name="g" xMin="74" yMin="-555" xMax="1591" yMax="1290">
      <contour>
        <pt x="573" y="-512" on="1"/>
        <pt x="573" y="-158" on="1"/>
        <pt x="624" y="-164" on="0"/>
        <pt x="745" y="-186" on="0"/>
        <pt x="859" y="-186" on="0"/>
        <pt x="956" y="-160" on="0"/>
        <pt x="994" y="-122" on="1"/>
        <pt x="1076" y="-40" on="0"/>
        <pt x="1077" y="154" on="1"/>
        <pt x="902" y="-37" on="0"/>
        <pt x="405" y="-38" on="0"/>
        <pt x="74" y="278" on="0"/>
        <pt x="74" y="571" on="1"/>
        <pt x="74" y="781" on="0"/>
        <pt x="258" y="1108" on="0"/>
        <pt x="569" y="1290" on="0"/>
        <pt x="920" y="1290" on="0"/>
        <pt x="1048" y="1175" on="1"/>
        <pt x="1090" y="1138" on="0"/>
        <pt x="1120" y="1090" on="1"/>
        <pt x="1264" y="1243" on="1"/>
        <pt x="1591" y="1243" on="1"/>
        <pt x="1591" y="0" on="1"/>
        <pt x="1592" y="-385" on="0"/>
        <pt x="1244" y="-506" on="1"/>
        <pt x="1104" y="-555" on="0"/>
        <pt x="743" y="-555" on="0"/>
      </contour>
      <contour>
        <pt x="1053" y="866" on="1"/>
        <pt x="1017" y="887" on="0"/>
        <pt x="938" y="887" on="0"/>
        <pt x="901" y="871" on="1"/>
        <pt x="825" y="838" on="0"/>
        <pt x="765" y="764" on="1"/>
        <pt x="664" y="647" on="0"/>
        <pt x="664" y="516" on="1"/>
        <pt x="664" y="428" on="0"/>
        <pt x="716" y="392" on="1"/>
        <pt x="760" y="363" on="0"/>
        <pt x="852" y="393" on="1"/>
        <pt x="940" y="422" on="0"/>
        <pt x="1053" y="510" on="1"/>
      </contour>
    </TTGlyph>
    <TTGlyph name="gacute" xMin="74" yMin="-555" xMax="1591" yMax="2038">
      <component glyphName="g" x="0" y="0" flags="0x1204"/>
      <component glyphName="acute" x="685" y="561" flags="0x1004"/>
    </TTGlyph>
    <TTGlyph name="gbreve" xMin="74" yMin="-555" xMax="1591" yMax="2033">
      <component glyphName="g" x="0" y="0" flags="0x1204"/>
      <component glyphName="breve" x="98" y="561" flags="0x1004"/>
    </TTGlyph>
    <TTGlyph name="germandbls" xMin="55" yMin="-59" xMax="1761" yMax="1595">
      <contour>
        <pt x="817" y="950" on="1"/>
        <pt x="975" y="1033" on="0"/>
        <pt x="975" y="1147" on="1"/>
        <pt x="974" y="1189" on="0"/>
        <pt x="922" y="1233" on="0"/>
        <pt x="890" y="1233" on="1"/>
        <pt x="836" y="1233" on="0"/>
        <pt x="680" y="1134" on="0"/>
        <pt x="680" y="1112" on="1"/>
        <pt x="680" y="-55" on="1"/>
        <pt x="55" y="-55" on="1"/>
        <pt x="55" y="989" on="1"/>
        <pt x="55" y="1299" on="0"/>
        <pt x="345" y="1457" on="1"/>
        <pt x="598" y="1595" on="0"/>
        <pt x="975" y="1595" on="1"/>
        <pt x="1257" y="1595" on="0"/>
        <pt x="1640" y="1393" on="0"/>
        <pt x="1640" y="1219" on="1"/>
        <pt x="1640" y="1072" on="0"/>
        <pt x="1504" y="988" on="1"/>
        <pt x="1460" y="961" on="0"/>
        <pt x="1407" y="936" on="1"/>
        <pt x="1525" y="898" on="0"/>
        <pt x="1570" y="872" on="1"/>
        <pt x="1665" y="818" on="0"/>
        <pt x="1760" y="642" on="0"/>
        <pt x="1761" y="361" on="0"/>
        <pt x="1676" y="183" on="0"/>
        <pt x="1605" y="122" on="1"/>
        <pt x="1394" y="-59" on="0"/>
        <pt x="846" y="-59" on="1"/>
        <pt x="834" y="-59" on="1"/>
        <pt x="825" y="-59" on="0"/>
        <pt x="817" y="-57" on="1"/>
        <pt x="817" y="373" on="1"/>
        <pt x="857" y="396" on="0"/>
        <pt x="899" y="419" on="1"/>
        <pt x="1053" y="503" on="0"/>
        <pt x="1053" y="650" on="1"/>
        <pt x="1053" y="758" on="0"/>
        <pt x="961" y="758" on="1"/>
        <pt x="931" y="758" on="0"/>
        <pt x="833" y="729" on="0"/>
        <pt x="817" y="725" on="1"/>
      </contour>
    </TTGlyph>
    <TTGlyph name="grave" xMin="33" yMin="868" xMax="592" yMax="1476">
      <contour>
        <pt x="592" y="923" on="1"/>
        <pt x="592" y="868" on="0"/>
        <pt x="519" y="868" on="0"/>
        <pt x="463" y="938" on="1"/>
        <pt x="33" y="1476" on="1"/>
        <pt x="440" y="1476" on="1"/>
        <pt x="584" y="977" on="1"/>
        <pt x="592" y="951" on="0"/>
      </contour>
    </TTGlyph>
    <TTGlyph name="greater" xMin="123" yMin="139" xMax="1014" yMax="1466">
      <contour>
        <pt x="123" y="705" on="1"/>
        <pt x="346" y="840" on="1"/>
        <pt x="123" y="969" on="1"/>
        <pt x="123" y="1466" on="1"/>
        <pt x="975" y="895" on="1"/>
        <pt x="1014" y="874" on="0"/>
        <pt x="1014" y="763" on="0"/>
        <pt x="975" y="735" on="1"/>
        <pt x="123" y="139" on="1"/>
      </contour>
    </TTGlyph>
    <TTGlyph name="guillemotleft" xMin="27" yMin="160" xMax="1485" yMax="1446">
      <contour>
        <pt x="1485" y="963" on="1"/>
        <pt x="1249" y="797" on="1"/>
        <pt x="1485" y="616" on="1"/>
        <pt x="1485" y="160" on="1"/>
        <pt x="797" y="711" on="1"/>
        <pt x="758" y="743" on="0"/>
        <pt x="758" y="838" on="0"/>
        <pt x="797" y="870" on="1"/>
        <pt x="1485" y="1446" on="1"/>
      </contour>
      <contour>
        <pt x="754" y="963" on="1"/>
        <pt x="518" y="797" on="1"/>
        <pt x="754" y="616" on="1"/>
        <pt x="754" y="160" on="1"/>
        <pt x="66" y="711" on="1"/>
        <pt x="27" y="743" on="0"/>
        <pt x="27" y="838" on="0"/>
        <pt x="66" y="870" on="1"/>
        <pt x="754" y="1446" on="1"/>
      </contour>
    </TTGlyph>
    <TTGlyph name="guillemotright" xMin="123" yMin="160" xMax="1581" yMax="1446">
      <contour>
        <pt x="123" y="643" on="1"/>
        <pt x="358" y="809" on="1"/>
        <pt x="123" y="989" on="1"/>
        <pt x="123" y="1446" on="1"/>
        <pt x="811" y="895" on="1"/>
        <pt x="850" y="863" on="0"/>
        <pt x="850" y="767" on="0"/>
        <pt x="811" y="735" on="1"/>
        <pt x="123" y="160" on="1"/>
      </contour>
      <contour>
        <pt x="854" y="643" on="1"/>
        <pt x="1090" y="809" on="1"/>
        <pt x="854" y="989" on="1"/>
        <pt x="854" y="1446" on="1"/>
        <pt x="1542" y="895" on="1"/>
        <pt x="1581" y="863" on="0"/>
        <pt x="1581" y="767" on="0"/>
        <pt x="1542" y="735" on="1"/>
        <pt x="854" y="160" on="1"/>
      </contour>
    </TTGlyph>
    <TTGlyph name="guilsinglleft" xMin="0" yMin="139" xMax="891" yMax="1466">
      <contour>
        <pt x="891" y="901" on="1"/>
        <pt x="668" y="766" on="1"/>
        <pt x="891" y="637" on="1"/>
        <pt x="891" y="139" on="1"/>
        <pt x="39" y="711" on="1"/>
        <pt x="0" y="732" on="0"/>
        <pt x="0" y="847" on="0"/>
        <pt x="39" y="870" on="1"/>
        <pt x="891" y="1466" on="1"/>
      </contour>
    </TTGlyph>
    <TTGlyph name="guilsinglright" xMin="123" yMin="139" xMax="1014" yMax="1466">
      <contour>
        <pt x="123" y="705" on="1"/>
        <pt x="346" y="840" on="1"/>
        <pt x="123" y="969" on="1"/>
        <pt x="123" y="1466" on="1"/>
        <pt x="975" y="895" on="1"/>
        <pt x="1014" y="874" on="0"/>
        <pt x="1014" y="763" on="0"/>
        <pt x="975" y="735" on="1"/>
        <pt x="123" y="139" on="1"/>
      </contour>
    </TTGlyph>
    <TTGlyph name="h" xMin="121" yMin="0" xMax="1583" yMax="1683">
      <contour>
        <pt x="715" y="1110" on="1"/>
        <pt x="850" y="1290" on="0"/>
        <pt x="1124" y="1290" on="1"/>
        <pt x="1202" y="1290" on="0"/>
        <pt x="1378" y="1218" on="0"/>
        <pt x="1443" y="1150" on="1"/>
        <pt x="1583" y="1005" on="0"/>
        <pt x="1583" y="766" on="1"/>
        <pt x="1583" y="0" on="1"/>
        <pt x="985" y="0" on="1"/>
        <pt x="985" y="539" on="1"/>
        <pt x="985" y="700" on="0"/>
        <pt x="881" y="907" on="0"/>
        <pt x="811" y="907" on="1"/>
        <pt x="715" y="907" on="0"/>
        <pt x="715" y="776" on="1"/>
        <pt x="715" y="0" on="1"/>
        <pt x="121" y="0" on="1"/>
        <pt x="121" y="1683" on="1"/>
        <pt x="715" y="1683" on="1"/>
      </contour>
    </TTGlyph>
    <TTGlyph name="hbar" xMin="-10" yMin="0" xMax="1608" yMax="1683">
      <contour>
        <pt x="740" y="1110" on="1"/>
        <pt x="874" y="1290" on="0"/>
        <pt x="1148" y="1290" on="1"/>
        <pt x="1227" y="1290" on="0"/>
        <pt x="1403" y="1218" on="0"/>
        <pt x="1468" y="1150" on="1"/>
        <pt x="1608" y="1005" on="0"/>
        <pt x="1608" y="766" on="1"/>
        <pt x="1608" y="0" on="1"/>
        <pt x="1010" y="0" on="1"/>
        <pt x="1010" y="539" on="1"/>
        <pt x="1010" y="700" on="0"/>
        <pt x="906" y="907" on="0"/>
        <pt x="836" y="907" on="1"/>
        <pt x="740" y="907" on="0"/>
        <pt x="740" y="776" on="1"/>
        <pt x="740" y="0" on="1"/>
        <pt x="146" y="0" on="1"/>
        <pt x="146" y="1336" on="1"/>
        <pt x="-10" y="1336" on="1"/>
        <pt x="-10" y="1539" on="1"/>
        <pt x="146" y="1539" on="1"/>
        <pt x="146" y="1683" on="1"/>
        <pt x="740" y="1683" on="1"/>
        <pt x="740" y="1539" on="1"/>
        <pt x="903" y="1539" on="1"/>
        <pt x="903" y="1336" on="1"/>
        <pt x="740" y="1336" on="1"/>
      </contour>
    </TTGlyph>
    <TTGlyph name="hungarumlaut" xMin="145" yMin="877" xMax="1153" yMax="1485">
      <contour>
        <pt x="145" y="958" on="1"/>
        <pt x="188" y="1485" on="1"/>
        <pt x="596" y="1485" on="1"/>
        <pt x="268" y="946" on="1"/>
        <pt x="225" y="877" on="0"/>
        <pt x="145" y="877" on="0"/>
      </contour>
      <contour>
        <pt x="594" y="930" on="1"/>
        <pt x="596" y="985" on="1"/>
        <pt x="725" y="1485" on="1"/>
        <pt x="1153" y="1485" on="1"/>
        <pt x="723" y="946" on="1"/>
        <pt x="671" y="881" on="0"/>
        <pt x="627" y="881" on="1"/>
        <pt x="594" y="881" on="0"/>
      </contour>
    </TTGlyph>
    <TTGlyph name="hyphen" xMin="123" yMin="479" xMax="887" yMax="911">
      <contour>
        <pt x="123" y="911" on="1"/>
        <pt x="887" y="911" on="1"/>
        <pt x="887" y="479" on="1"/>
        <pt x="123" y="479" on="1"/>
      </contour>
    </TTGlyph>
    <TTGlyph name="i" xMin="106" yMin="0" xMax="718" yMax="1819">
      <contour>
        <pt x="576" y="1819" on="0"/>
        <pt x="718" y="1696" on="0"/>
        <pt x="717" y="1506" on="0"/>
        <pt x="536" y="1346" on="0"/>
        <pt x="385" y="1346" on="1"/>
        <pt x="173" y="1346" on="0"/>
        <pt x="121" y="1474" on="1"/>
        <pt x="106" y="1510" on="0"/>
        <pt x="106" y="1598" on="0"/>
        <pt x="148" y="1694" on="0"/>
        <pt x="190" y="1732" on="1"/>
        <pt x="283" y="1819" on="0"/>
      </contour>
      <contour>
        <pt x="700" y="0" on="1"/>
        <pt x="121" y="0" on="1"/>
        <pt x="121" y="1243" on="1"/>
        <pt x="700" y="1243" on="1"/>
      </contour>
    </TTGlyph>
    <TTGlyph name="iacute" xMin="61" yMin="0" xMax="877" yMax="2040">
      <component glyphName="dotlessi" x="0" y="0" flags="0x1204"/>
      <component glyphName="acute" x="285" y="563" flags="0x1004"/>
    </TTGlyph>
    <TTGlyph name="icircumflex" xMin="-7" yMin="0" xMax="718" yMax="2074">
      <component glyphName="dotlessi" x="0" y="0" flags="0x1204"/>
      <component glyphName="circumflex" x="-54" y="563" flags="0x1004"/>
    </TTGlyph>
    <TTGlyph name="idieresis" xMin="-190" yMin="0" xMax="896" yMax="1847">
      <component glyphName="dotlessi" x="0" y="0" flags="0x1204"/>
      <component glyphName="dieresis" x="-292" y="563" flags="0x1004"/>
    </TTGlyph>
    <TTGlyph name="igrave" xMin="-167" yMin="0" xMax="639" yMax="2039">
      <component glyphName="dotlessi" x="0" y="0" flags="0x1204"/>
      <component glyphName="grave" x="-200" y="563" flags="0x1004"/>
    </TTGlyph>
    <TTGlyph name="ij" xMin="106" yMin="-402" xMax="1620" yMax="1819">
      <contour>
        <pt x="1156" y="-402" on="1"/>
        <pt x="915" y="-402" on="0"/>
        <pt x="736" y="-258" on="1"/>
        <pt x="738" y="-70" on="1"/>
        <pt x="778" y="-87" on="0"/>
        <pt x="870" y="-87" on="0"/>
        <pt x="932" y="-36" on="0"/>
        <pt x="958" y="2" on="1"/>
        <pt x="1018" y="91" on="0"/>
        <pt x="1018" y="177" on="1"/>
        <pt x="1018" y="1243" on="1"/>
        <pt x="1616" y="1243" on="1"/>
        <pt x="1616" y="41" on="1"/>
        <pt x="1616" y="-162" on="0"/>
        <pt x="1351" y="-402" on="0"/>
      </contour>
      <contour>
        <pt x="1478" y="1819" on="0"/>
        <pt x="1620" y="1696" on="0"/>
        <pt x="1620" y="1506" on="0"/>
        <pt x="1439" y="1346" on="0"/>
        <pt x="1289" y="1346" on="1"/>
        <pt x="1077" y="1346" on="0"/>
        <pt x="1025" y="1474" on="1"/>
        <pt x="1010" y="1510" on="0"/>
        <pt x="1010" y="1598" on="0"/>
        <pt x="1052" y="1694" on="0"/>
        <pt x="1094" y="1732" on="1"/>
        <pt x="1187" y="1819" on="0"/>
      </contour>
      <contour>
        <pt x="576" y="1819" on="0"/>
        <pt x="718" y="1696" on="0"/>
        <pt x="717" y="1506" on="0"/>
        <pt x="536" y="1346" on="0"/>
        <pt x="385" y="1346" on="1"/>
        <pt x="173" y="1346" on="0"/>
        <pt x="121" y="1474" on="1"/>
        <pt x="106" y="1510" on="0"/>
        <pt x="106" y="1598" on="0"/>
        <pt x="148" y="1694" on="0"/>
        <pt x="190" y="1732" on="1"/>
        <pt x="283" y="1819" on="0"/>
      </contour>
      <contour>
        <pt x="700" y="0" on="1"/>
        <pt x="121" y="0" on="1"/>
        <pt x="121" y="1243" on="1"/>
        <pt x="700" y="1243" on="1"/>
      </contour>
    </TTGlyph>
    <TTGlyph name="iogonek" xMin="92" yMin="-629" xMax="718" yMax="1819">
      <component glyphName="i" x="0" y="0" flags="0x1004"/>
      <component glyphName="ogonek" x="41" y="0" flags="0x1004"/>
    </TTGlyph>
    <TTGlyph name="itilde" xMin="-102" yMin="0" xMax="832" yMax="1853">
      <component glyphName="dotlessi" x="0" y="0" flags="0x1204"/>
      <component glyphName="tilde" x="-247" y="563" flags="0x1004"/>
    </TTGlyph>
    <TTGlyph name="j" xMin="31" yMin="-332" xMax="916" yMax="1819">
      <contour>
        <pt x="451" y="-332" on="1"/>
        <pt x="210" y="-332" on="0"/>
        <pt x="31" y="-188" on="1"/>
        <pt x="33" y="70" on="1"/>
        <pt x="73" y="53" on="0"/>
        <pt x="165" y="53" on="0"/>
        <pt x="227" y="104" on="0"/>
        <pt x="253" y="142" on="1"/>
        <pt x="313" y="231" on="0"/>
        <pt x="313" y="317" on="1"/>
        <pt x="313" y="1243" on="1"/>
        <pt x="911" y="1243" on="1"/>
        <pt x="911" y="111" on="1"/>
        <pt x="911" y="-92" on="0"/>
        <pt x="646" y="-332" on="0"/>
      </contour>
      <contour>
        <pt x="774" y="1819" on="0"/>
        <pt x="916" y="1696" on="0"/>
        <pt x="915" y="1506" on="0"/>
        <pt x="734" y="1346" on="0"/>
        <pt x="584" y="1346" on="1"/>
        <pt x="372" y="1346" on="0"/>
        <pt x="320" y="1474" on="1"/>
        <pt x="305" y="1510" on="0"/>
        <pt x="305" y="1598" on="0"/>
        <pt x="347" y="1694" on="0"/>
        <pt x="388" y="1732" on="1"/>
        <pt x="482" y="1819" on="0"/>
      </contour>
    </TTGlyph>
    <TTGlyph name="jcircumflex" xMin="29" yMin="-332" xMax="965" yMax="2074">
      <component glyphName="dotlessj" x="0" y="0" flags="0x1204"/>
      <component glyphName="circumflex" x="193" y="563" flags="0x1004"/>
    </TTGlyph>
    <TTGlyph name="k" xMin="123" yMin="0" xMax="1528" yMax="1683">
      <contour>
        <pt x="668" y="403" on="1"/>
        <pt x="654" y="380" on="0"/>
        <pt x="651" y="369" on="1"/>
        <pt x="651" y="0" on="1"/>
        <pt x="123" y="0" on="1"/>
        <pt x="123" y="1683" on="1"/>
        <pt x="641" y="1683" on="1"/>
        <pt x="641" y="872" on="1"/>
        <pt x="877" y="1243" on="1"/>
        <pt x="1466" y="1243" on="1"/>
        <pt x="1083" y="700" on="1"/>
        <pt x="1528" y="0" on="1"/>
        <pt x="918" y="0" on="1"/>
      </contour>
    </TTGlyph>
    <TTGlyph name="kcommaaccent" xMin="123" yMin="-1022" xMax="1528" yMax="1683">
      <component glyphName="k" x="0" y="0" flags="0x1004"/>
      <component glyphName="uni0326" x="365" y="0" flags="0x1004"/>
    </TTGlyph>
    <TTGlyph name="kgreenlandic" xMin="123" yMin="0" xMax="1528" yMax="1243">
      <contour>
        <pt x="641" y="1243" on="1"/>
        <pt x="641" y="852" on="1"/>
        <pt x="877" y="1243" on="1"/>
        <pt x="1466" y="1243" on="1"/>
        <pt x="1071" y="668" on="1"/>
        <pt x="1528" y="0" on="1"/>
        <pt x="918" y="0" on="1"/>
        <pt x="651" y="416" on="1"/>
        <pt x="651" y="0" on="1"/>
        <pt x="123" y="0" on="1"/>
        <pt x="123" y="1243" on="1"/>
      </contour>
    </TTGlyph>
    <TTGlyph name="l" xMin="123" yMin="0" xMax="690" yMax="1683">
      <contour>
        <pt x="690" y="0" on="1"/>
        <pt x="123" y="0" on="1"/>
        <pt x="123" y="1683" on="1"/>
        <pt x="690" y="1683" on="1"/>
      </contour>
    </TTGlyph>
    <TTGlyph name="lacute" xMin="123" yMin="0" xMax="934" yMax="2409">
      <component glyphName="l" x="0" y="0" flags="0x1204"/>
      <component glyphName="acute" x="342" y="932" flags="0x1004"/>
    </TTGlyph>
    <TTGlyph name="lcaron" xMin="50" yMin="0" xMax="775" yMax="2437">
      <component glyphName="l" x="0" y="0" flags="0x1204"/>
      <component glyphName="caron" x="19" y="932" flags="0x1004"/>
    </TTGlyph>
    <TTGlyph name="ldot" xMin="123" yMin="0" xMax="1464" yMax="1683">
      <component glyphName="l" x="0" y="0" flags="0x1004"/>
      <component glyphName="periodcentered" x="780" y="0" flags="0x1004"/>
    </TTGlyph>
    <TTGlyph name="less" xMin="0" yMin="139" xMax="891" yMax="1466">
      <contour>
        <pt x="891" y="901" on="1"/>
        <pt x="668" y="766" on="1"/>
        <pt x="891" y="637" on="1"/>
        <pt x="891" y="139" on="1"/>
        <pt x="39" y="711" on="1"/>
        <pt x="0" y="732" on="0"/>
        <pt x="0" y="847" on="0"/>
        <pt x="39" y="870" on="1"/>
        <pt x="891" y="1466" on="1"/>
      </contour>
    </TTGlyph>
    <TTGlyph name="lj" xMin="123" yMin="-332" xMax="1726" yMax="1819">
      <contour>
        <pt x="690" y="0" on="1"/>
        <pt x="123" y="0" on="1"/>
        <pt x="123" y="1683" on="1"/>
        <pt x="690" y="1683" on="1"/>
      </contour>
      <contour>
        <pt x="1262" y="-332" on="1"/>
        <pt x="1021" y="-332" on="0"/>
        <pt x="842" y="-188" on="1"/>
        <pt x="844" y="70" on="1"/>
        <pt x="884" y="53" on="0"/>
        <pt x="976" y="53" on="0"/>
        <pt x="1038" y="104" on="0"/>
        <pt x="1064" y="142" on="1"/>
        <pt x="1124" y="231" on="0"/>
        <pt x="1124" y="317" on="1"/>
        <pt x="1124" y="1241" on="1"/>
        <pt x="1722" y="1241" on="1"/>
        <pt x="1722" y="111" on="1"/>
        <pt x="1722" y="-92" on="0"/>
        <pt x="1457" y="-332" on="0"/>
      </contour>
      <contour>
        <pt x="1584" y="1819" on="0"/>
        <pt x="1726" y="1696" on="0"/>
        <pt x="1726" y="1506" on="0"/>
        <pt x="1545" y="1346" on="0"/>
        <pt x="1395" y="1346" on="1"/>
        <pt x="1183" y="1346" on="0"/>
        <pt x="1131" y="1474" on="1"/>
        <pt x="1116" y="1510" on="0"/>
        <pt x="1116" y="1598" on="0"/>
        <pt x="1158" y="1694" on="0"/>
        <pt x="1200" y="1732" on="1"/>
        <pt x="1293" y="1819" on="0"/>
      </contour>
    </TTGlyph>
    <TTGlyph name="logicalnot" xMin="39" yMin="305" xMax="1098" yMax="911">
      <contour>
        <pt x="39" y="911" on="1"/>
        <pt x="1098" y="911" on="1"/>
        <pt x="1098" y="305" on="1"/>
        <pt x="801" y="305" on="1"/>
        <pt x="801" y="479" on="1"/>
        <pt x="39" y="479" on="1"/>
      </contour>
    </TTGlyph>
    <TTGlyph name="lslash" xMin="-55" yMin="0" xMax="872" yMax="1774">
      <contour>
        <pt x="690" y="1176" on="1"/>
        <pt x="872" y="1241" on="1"/>
        <pt x="872" y="870" on="1"/>
        <pt x="690" y="805" on="1"/>
        <pt x="690" y="0" on="1"/>
        <pt x="123" y="0" on="1"/>
        <pt x="123" y="604" on="1"/>
        <pt x="-55" y="541" on="1"/>
        <pt x="-55" y="911" on="1"/>
        <pt x="123" y="973" on="1"/>
        <pt x="123" y="1774" on="1"/>
        <pt x="690" y="1774" on="1"/>
      </contour>
    </TTGlyph>
    <TTGlyph name="m" xMin="121" yMin="0" xMax="2284" yMax="1290">
      <contour>
        <pt x="1446" y="1073" on="1"/>
        <pt x="1616" y="1290" on="0"/>
        <pt x="1878" y="1290" on="1"/>
        <pt x="1950" y="1290" on="0"/>
        <pt x="2103" y="1230" on="0"/>
        <pt x="2160" y="1173" on="1"/>
        <pt x="2284" y="1049" on="0"/>
        <pt x="2284" y="848" on="1"/>
        <pt x="2284" y="0" on="1"/>
        <pt x="1704" y="0" on="1"/>
        <pt x="1704" y="641" on="1"/>
        <pt x="1704" y="764" on="0"/>
        <pt x="1626" y="905" on="0"/>
        <pt x="1519" y="906" on="0"/>
        <pt x="1502" y="836" on="1"/>
        <pt x="1497" y="816" on="0"/>
        <pt x="1497" y="791" on="1"/>
        <pt x="1497" y="0" on="1"/>
        <pt x="930" y="0" on="1"/>
        <pt x="930" y="641" on="1"/>
        <pt x="930" y="764" on="0"/>
        <pt x="845" y="905" on="0"/>
        <pt x="795" y="905" on="1"/>
        <pt x="715" y="905" on="0"/>
        <pt x="715" y="776" on="1"/>
        <pt x="715" y="0" on="1"/>
        <pt x="121" y="0" on="1"/>
        <pt x="121" y="1243" on="1"/>
        <pt x="449" y="1243" on="1"/>
        <pt x="592" y="1049" on="1"/>
        <pt x="665" y="1159" on="0"/>
        <pt x="936" y="1290" on="0"/>
        <pt x="1077" y="1290" on="1"/>
        <pt x="1260" y="1290" on="0"/>
        <pt x="1380" y="1166" on="1"/>
        <pt x="1419" y="1126" on="0"/>
      </contour>
    </TTGlyph>
    <TTGlyph name="macron" xMin="123" yMin="946" xMax="1036" yMax="1243">
      <contour>
        <pt x="123" y="1243" on="1"/>
        <pt x="1036" y="1243" on="1"/>
        <pt x="1036" y="946" on="1"/>
        <pt x="123" y="946" on="1"/>
      </contour>
    </TTGlyph>
    <TTGlyph name="mu" xMin="123" yMin="-233" xMax="1571" yMax="1243">
      <contour>
        <pt x="848" y="0" on="1"/>
        <pt x="787" y="0" on="0"/>
        <pt x="721" y="27" on="1"/>
        <pt x="721" y="-233" on="1"/>
        <pt x="123" y="-233" on="1"/>
        <pt x="123" y="1243" on="1"/>
        <pt x="721" y="1243" on="1"/>
        <pt x="721" y="438" on="1"/>
        <pt x="721" y="386" on="0"/>
        <pt x="785" y="322" on="0"/>
        <pt x="873" y="322" on="0"/>
        <pt x="955" y="390" on="0"/>
        <pt x="977" y="467" on="1"/>
        <pt x="977" y="1243" on="1"/>
        <pt x="1571" y="1243" on="1"/>
        <pt x="1571" y="0" on="1"/>
        <pt x="1243" y="0" on="1"/>
        <pt x="1100" y="195" on="1"/>
        <pt x="1030" y="0" on="0"/>
      </contour>
    </TTGlyph>
    <TTGlyph name="multiply" xMin="66" yMin="129" xMax="1108" yMax="1171">
      <contour>
        <pt x="326" y="651" on="1"/>
        <pt x="66" y="911" on="1"/>
        <pt x="326" y="1171" on="1"/>
        <pt x="588" y="911" on="1"/>
        <pt x="846" y="1171" on="1"/>
        <pt x="1108" y="909" on="1"/>
        <pt x="848" y="651" on="1"/>
        <pt x="1108" y="391" on="1"/>
        <pt x="846" y="131" on="1"/>
        <pt x="588" y="389" on="1"/>
        <pt x="326" y="129" on="1"/>
        <pt x="66" y="389" on="1"/>
      </contour>
    </TTGlyph>
    <TTGlyph name="n" xMin="121" yMin="0" xMax="1569" yMax="1290">
      <contour>
        <pt x="795" y="905" on="1"/>
        <pt x="715" y="905" on="0"/>
        <pt x="715" y="776" on="1"/>
        <pt x="715" y="0" on="1"/>
        <pt x="121" y="0" on="1"/>
        <pt x="121" y="1243" on="1"/>
        <pt x="449" y="1243" on="1"/>
        <pt x="592" y="1049" on="1"/>
        <pt x="672" y="1160" on="0"/>
        <pt x="955" y="1290" on="0"/>
        <pt x="1078" y="1290" on="1"/>
        <pt x="1304" y="1290" on="0"/>
        <pt x="1569" y="1050" on="0"/>
        <pt x="1569" y="848" on="1"/>
        <pt x="1569" y="0" on="1"/>
        <pt x="971" y="0" on="1"/>
        <pt x="971" y="600" on="1"/>
        <pt x="971" y="905" on="0"/>
      </contour>
    </TTGlyph>
    <TTGlyph name="nacute" xMin="121" yMin="0" xMax="1569" yMax="2040">
      <component glyphName="n" x="0" y="0" flags="0x1204"/>
      <component glyphName="acute" x="766" y="563" flags="0x1004"/>
    </TTGlyph>
    <TTGlyph name="ncaron" xMin="121" yMin="0" xMax="1569" yMax="2068">
      <component glyphName="n" x="0" y="0" flags="0x1204"/>
      <component glyphName="caron" x="443" y="563" flags="0x1004"/>
    </TTGlyph>
    <TTGlyph name="nine" xMin="74" yMin="-38" xMax="1710" yMax="1642">
      <contour>
        <pt x="670" y="1208" on="1"/>
        <pt x="670" y="1084" on="0"/>
        <pt x="772" y="954" on="1"/>
        <pt x="1042" y="954" on="1"/>
        <pt x="1042" y="1102" on="0"/>
        <pt x="884" y="1293" on="0"/>
        <pt x="776" y="1292" on="1"/>
        <pt x="708" y="1292" on="0"/>
        <pt x="680" y="1246" on="1"/>
        <pt x="670" y="1230" on="0"/>
      </contour>
      <contour>
        <pt x="1049" y="649" on="1"/>
        <pt x="958" y="625" on="0"/>
        <pt x="710" y="625" on="0"/>
        <pt x="534" y="642" on="0"/>
        <pt x="454" y="663" on="1"/>
        <pt x="74" y="762" on="0"/>
        <pt x="74" y="1100" on="1"/>
        <pt x="74" y="1302" on="0"/>
        <pt x="202" y="1434" on="1"/>
        <pt x="405" y="1642" on="0"/>
        <pt x="866" y="1642" on="1"/>
        <pt x="1208" y="1642" on="0"/>
        <pt x="1450" y="1444" on="1"/>
        <pt x="1710" y="1233" on="0"/>
        <pt x="1710" y="866" on="1"/>
        <pt x="1710" y="591" on="0"/>
        <pt x="1592" y="380" on="1"/>
        <pt x="1480" y="179" on="0"/>
        <pt x="1076" y="-37" on="0"/>
        <pt x="594" y="-38" on="0"/>
        <pt x="394" y="70" on="1"/>
        <pt x="258" y="144" on="0"/>
        <pt x="186" y="256" on="1"/>
        <pt x="150" y="314" on="0"/>
        <pt x="137" y="383" on="1"/>
        <pt x="145" y="385" on="0"/>
        <pt x="639" y="520" on="1"/>
        <pt x="670" y="460" on="0"/>
        <pt x="776" y="397" on="0"/>
        <pt x="825" y="397" on="1"/>
        <pt x="923" y="397" on="0"/>
        <pt x="1050" y="508" on="0"/>
        <pt x="1051" y="614" on="1"/>
        <pt x="1051" y="630" on="1"/>
        <pt x="1051" y="636" on="0"/>
      </contour>
    </TTGlyph>
    <TTGlyph name="nj" xMin="121" yMin="-412" xMax="2486" yMax="1819">
      <contour>
        <pt x="795" y="905" on="1"/>
        <pt x="715" y="905" on="0"/>
        <pt x="715" y="776" on="1"/>
        <pt x="715" y="0" on="1"/>
        <pt x="121" y="0" on="1"/>
        <pt x="121" y="1243" on="1"/>
        <pt x="449" y="1243" on="1"/>
        <pt x="592" y="1049" on="1"/>
        <pt x="672" y="1160" on="0"/>
        <pt x="955" y="1290" on="0"/>
        <pt x="1078" y="1290" on="1"/>
        <pt x="1304" y="1290" on="0"/>
        <pt x="1569" y="1050" on="0"/>
        <pt x="1569" y="848" on="1"/>
        <pt x="1569" y="0" on="1"/>
        <pt x="971" y="0" on="1"/>
        <pt x="971" y="600" on="1"/>
        <pt x="971" y="905" on="0"/>
      </contour>
      <contour>
        <pt x="2021" y="-412" on="1"/>
        <pt x="1773" y="-412" on="0"/>
        <pt x="1601" y="-338" on="1"/>
        <pt x="1603" y="-80" on="1"/>
        <pt x="1643" y="-97" on="0"/>
        <pt x="1735" y="-97" on="0"/>
        <pt x="1797" y="-46" on="0"/>
        <pt x="1823" y="-8" on="1"/>
        <pt x="1883" y="81" on="0"/>
        <pt x="1883" y="167" on="1"/>
        <pt x="1883" y="1241" on="1"/>
        <pt x="2481" y="1241" on="1"/>
        <pt x="2481" y="31" on="1"/>
        <pt x="2481" y="-172" on="0"/>
        <pt x="2216" y="-412" on="0"/>
      </contour>
      <contour>
        <pt x="2344" y="1819" on="0"/>
        <pt x="2486" y="1696" on="0"/>
        <pt x="2485" y="1506" on="0"/>
        <pt x="2304" y="1346" on="0"/>
        <pt x="2154" y="1346" on="1"/>
        <pt x="1942" y="1346" on="0"/>
        <pt x="1890" y="1474" on="1"/>
        <pt x="1875" y="1510" on="0"/>
        <pt x="1875" y="1598" on="0"/>
        <pt x="1917" y="1694" on="0"/>
        <pt x="1958" y="1732" on="1"/>
        <pt x="2052" y="1819" on="0"/>
      </contour>
    </TTGlyph>
    <TTGlyph name="nonbreakingspace" xMin="0" yMin="0" xMax="0" yMax="0">
      <component glyphName="space" x="0" y="0" flags="0x1204"/>
    </TTGlyph>
    <TTGlyph name="ntilde" xMin="121" yMin="0" xMax="1569" yMax="1853">
      <component glyphName="n" x="0" y="0" flags="0x1204"/>
      <component glyphName="tilde" x="233" y="563" flags="0x1004"/>
    </TTGlyph>
    <TTGlyph name="numbersign" xMin="76" yMin="0" xMax="1997" yMax="1597">
      <contour>
        <pt x="211" y="1241" on="1"/>
        <pt x="373" y="1241" on="1"/>
        <pt x="424" y="1597" on="1"/>
        <pt x="1057" y="1597" on="1"/>
        <pt x="975" y="1241" on="1"/>
        <pt x="1206" y="1241" on="1"/>
        <pt x="1284" y="1597" on="1"/>
        <pt x="1958" y="1597" on="1"/>
        <pt x="1825" y="1241" on="1"/>
        <pt x="1997" y="1241" on="1"/>
        <pt x="1915" y="942" on="1"/>
        <pt x="1714" y="942" on="1"/>
        <pt x="1616" y="680" on="1"/>
        <pt x="1841" y="680" on="1"/>
        <pt x="1759" y="381" on="1"/>
        <pt x="1505" y="381" on="1"/>
        <pt x="1364" y="0" on="1"/>
        <pt x="936" y="0" on="1"/>
        <pt x="1018" y="381" on="1"/>
        <pt x="776" y="381" on="1"/>
        <pt x="688" y="0" on="1"/>
        <pt x="199" y="0" on="1"/>
        <pt x="252" y="381" on="1"/>
        <pt x="76" y="381" on="1"/>
        <pt x="117" y="680" on="1"/>
        <pt x="293" y="680" on="1"/>
        <pt x="330" y="942" on="1"/>
        <pt x="170" y="942" on="1"/>
      </contour>
      <contour>
        <pt x="844" y="680" on="1"/>
        <pt x="1083" y="680" on="1"/>
        <pt x="1141" y="942" on="1"/>
        <pt x="905" y="942" on="1"/>
      </contour>
    </TTGlyph>
    <TTGlyph name="o" xMin="74" yMin="-37" xMax="1511" yMax="1290">
      <contour>
        <pt x="982" y="889" on="1"/>
        <pt x="962" y="899" on="0"/>
        <pt x="899" y="899" on="0"/>
        <pt x="823" y="862" on="0"/>
        <pt x="786" y="830" on="1"/>
        <pt x="708" y="762" on="0"/>
        <pt x="602" y="568" on="0"/>
        <pt x="602" y="405" on="0"/>
        <pt x="664" y="377" on="1"/>
        <pt x="686" y="367" on="0"/>
        <pt x="750" y="367" on="0"/>
        <pt x="820" y="406" on="0"/>
        <pt x="855" y="439" on="1"/>
        <pt x="928" y="508" on="0"/>
        <pt x="1038" y="705" on="0"/>
        <pt x="1038" y="861" on="0"/>
      </contour>
      <contour>
        <pt x="788" y="-37" on="1"/>
        <pt x="502" y="-37" on="0"/>
        <pt x="295" y="144" on="1"/>
        <pt x="74" y="336" on="0"/>
        <pt x="74" y="919" on="0"/>
        <pt x="488" y="1290" on="0"/>
        <pt x="1096" y="1290" on="0"/>
        <pt x="1510" y="927" on="0"/>
        <pt x="1511" y="623" on="1"/>
        <pt x="1512" y="428" on="0"/>
        <pt x="1312" y="128" on="0"/>
        <pt x="978" y="-36" on="0"/>
      </contour>
    </TTGlyph>
    <TTGlyph name="oacute" xMin="74" yMin="-37" xMax="1511" yMax="2038">
      <component glyphName="o" x="0" y="0" flags="0x1204"/>
      <component glyphName="acute" x="715" y="561" flags="0x1004"/>
    </TTGlyph>
    <TTGlyph name="ocircumflex" xMin="74" yMin="-37" xMax="1511" yMax="2072">
      <component glyphName="o" x="0" y="0" flags="0x1204"/>
      <component glyphName="circumflex" x="375" y="561" flags="0x1004"/>
    </TTGlyph>
    <TTGlyph name="odieresis" xMin="74" yMin="-37" xMax="1511" yMax="1845">
      <component glyphName="o" x="0" y="0" flags="0x1204"/>
      <component glyphName="dieresis" x="137" y="561" flags="0x1004"/>
    </TTGlyph>
    <TTGlyph name="oe" xMin="74" yMin="-37" xMax="2258" yMax="1292">
      <contour>
        <pt x="1210" y="137" on="1"/>
        <pt x="994" y="-37" on="0"/>
        <pt x="721" y="-37" on="1"/>
        <pt x="414" y="-38" on="0"/>
        <pt x="74" y="344" on="0"/>
        <pt x="74" y="880" on="0"/>
        <pt x="251" y="1075" on="1"/>
        <pt x="446" y="1290" on="0"/>
        <pt x="782" y="1290" on="1"/>
        <pt x="1045" y="1290" on="0"/>
        <pt x="1233" y="1106" on="1"/>
        <pt x="1447" y="1292" on="0"/>
        <pt x="1759" y="1292" on="1"/>
        <pt x="2004" y="1292" on="0"/>
        <pt x="2258" y="1067" on="0"/>
        <pt x="2258" y="716" on="0"/>
        <pt x="1947" y="412" on="0"/>
        <pt x="1692" y="412" on="1"/>
        <pt x="1673" y="412" on="0"/>
        <pt x="1635" y="412" on="0"/>
        <pt x="1612" y="414" on="1"/>
        <pt x="1612" y="334" on="0"/>
        <pt x="1718" y="328" on="1"/>
        <pt x="1748" y="326" on="0"/>
        <pt x="1778" y="326" on="1"/>
        <pt x="1856" y="326" on="0"/>
        <pt x="2027" y="377" on="0"/>
        <pt x="2165" y="467" on="1"/>
        <pt x="2226" y="156" on="1"/>
        <pt x="2150" y="60" on="0"/>
        <pt x="1816" y="-37" on="0"/>
        <pt x="1634" y="-37" on="1"/>
        <pt x="1390" y="-37" on="0"/>
      </contour>
      <contour>
        <pt x="721" y="381" on="1"/>
        <pt x="798" y="382" on="0"/>
        <pt x="974" y="661" on="0"/>
        <pt x="973" y="776" on="1"/>
        <pt x="973" y="827" on="0"/>
        <pt x="920" y="897" on="0"/>
        <pt x="833" y="897" on="0"/>
        <pt x="804" y="879" on="1"/>
        <pt x="746" y="843" on="0"/>
        <pt x="694" y="760" on="1"/>
        <pt x="606" y="631" on="0"/>
        <pt x="606" y="381" on="0"/>
      </contour>
      <contour>
        <pt x="1784" y="864" on="1"/>
        <pt x="1786" y="887" on="1"/>
        <pt x="1786" y="975" on="0"/>
        <pt x="1704" y="975" on="1"/>
        <pt x="1622" y="966" on="0"/>
        <pt x="1594" y="878" on="1"/>
        <pt x="1580" y="836" on="0"/>
        <pt x="1568" y="725" on="0"/>
        <pt x="1559" y="662" on="1"/>
        <pt x="1765" y="711" on="1"/>
      </contour>
    </TTGlyph>
    <TTGlyph name="ogonek" xMin="51" yMin="-629" xMax="676" yMax="0">
      <contour>
        <pt x="311" y="-387" on="1"/>
        <pt x="311" y="-483" on="0"/>
        <pt x="486" y="-483" on="0"/>
        <pt x="590" y="-430" on="1"/>
        <pt x="610" y="-420" on="0"/>
        <pt x="639" y="-420" on="0"/>
        <pt x="676" y="-457" on="0"/>
        <pt x="676" y="-512" on="0"/>
        <pt x="637" y="-543" on="1"/>
        <pt x="506" y="-629" on="0"/>
        <pt x="136" y="-629" on="0"/>
        <pt x="64" y="-504" on="1"/>
        <pt x="19" y="-424" on="0"/>
        <pt x="51" y="-326" on="1"/>
        <pt x="99" y="-162" on="0"/>
        <pt x="317" y="0" on="1"/>
        <pt x="455" y="0" on="1"/>
        <pt x="311" y="-256" on="0"/>
      </contour>
    </TTGlyph>
    <TTGlyph name="ograve" xMin="74" yMin="-37" xMax="1511" yMax="2037">
      <component glyphName="o" x="0" y="0" flags="0x1204"/>
      <component glyphName="grave" x="229" y="561" flags="0x1004"/>
    </TTGlyph>
    <TTGlyph name="ohungarumlaut" xMin="74" yMin="-37" xMax="1531" yMax="2046">
      <component glyphName="o" x="0" y="0" flags="0x1204"/>
      <component glyphName="hungarumlaut" x="378" y="561" flags="0x1004"/>
    </TTGlyph>
    <TTGlyph name="one" xMin="20" yMin="0" xMax="1034" yMax="1597">
      <contour>
        <pt x="375" y="860" on="1"/>
        <pt x="20" y="731" on="1"/>
        <pt x="20" y="1217" on="1"/>
        <pt x="850" y="1597" on="1"/>
        <pt x="1034" y="1597" on="1"/>
        <pt x="1034" y="0" on="1"/>
        <pt x="375" y="0" on="1"/>
      </contour>
    </TTGlyph>
    <TTGlyph name="onehalf" xMin="20" yMin="0" xMax="3326" yMax="1597">
      <component glyphName="onesuperior" x="0" y="319" flags="0x1004"/>
      <component glyphName="fraction" x="944" y="0" flags="0x1004"/>
      <component glyphName="twosuperior" x="2013" y="0" flags="0x1004"/>
    </TTGlyph>
    <TTGlyph name="onequarter" xMin="20" yMin="0" xMax="3304" yMax="1597">
      <component glyphName="onesuperior" x="0" y="319" flags="0x1004"/>
      <component glyphName="fraction" x="1004" y="0" flags="0x1004"/>
      <component glyphName="foursuperior" x="1872" y="0" flags="0x1004"/>
    </TTGlyph>
    <TTGlyph name="onesuperior" xMin="20" yMin="0" xMax="831" yMax="1278">
      <contour>
        <pt x="303" y="688" on="1"/>
        <pt x="20" y="586" on="1"/>
        <pt x="20" y="973" on="1"/>
        <pt x="684" y="1278" on="1"/>
        <pt x="831" y="1278" on="1"/>
        <pt x="831" y="0" on="1"/>
        <pt x="303" y="0" on="1"/>
      </contour>
    </TTGlyph>
    <TTGlyph name="ordfeminine" xMin="88" yMin="580" xMax="1245" yMax="1640">
      <contour>
        <pt x="88" y="1352" on="0"/>
        <pt x="330" y="1640" on="0"/>
        <pt x="674" y="1640" on="0"/>
        <pt x="798" y="1529" on="1"/>
        <pt x="838" y="1493" on="0"/>
        <pt x="868" y="1448" on="1"/>
        <pt x="983" y="1604" on="1"/>
        <pt x="1245" y="1604" on="1"/>
        <pt x="1245" y="608" on="1"/>
        <pt x="983" y="608" on="1"/>
        <pt x="868" y="774" on="1"/>
        <pt x="784" y="638" on="0"/>
        <pt x="622" y="594" on="1"/>
        <pt x="572" y="580" on="0"/>
        <pt x="434" y="580" on="0"/>
        <pt x="276" y="648" on="0"/>
        <pt x="217" y="716" on="1"/>
        <pt x="88" y="863" on="0"/>
      </contour>
      <contour>
        <pt x="492" y="903" on="0"/>
        <pt x="676" y="903" on="0"/>
        <pt x="770" y="992" on="1"/>
        <pt x="796" y="1017" on="0"/>
        <pt x="815" y="1044" on="1"/>
        <pt x="815" y="1290" on="1"/>
        <pt x="714" y="1290" on="0"/>
        <pt x="492" y="1117" on="0"/>
      </contour>
    </TTGlyph>
    <TTGlyph name="ordmasculine" xMin="76" yMin="580" xMax="1226" yMax="1640">
      <contour>
        <pt x="723" y="1325" on="1"/>
        <pt x="683" y="1325" on="0"/>
        <pt x="646" y="1286" on="1"/>
        <pt x="589" y="1225" on="0"/>
        <pt x="520" y="1077" on="0"/>
        <pt x="520" y="1014" on="1"/>
        <pt x="520" y="913" on="0"/>
        <pt x="612" y="913" on="1"/>
        <pt x="673" y="913" on="0"/>
        <pt x="813" y="1137" on="0"/>
        <pt x="813" y="1325" on="0"/>
      </contour>
      <contour>
        <pt x="419" y="580" on="0"/>
        <pt x="76" y="876" on="0"/>
        <pt x="76" y="1342" on="0"/>
        <pt x="406" y="1640" on="0"/>
        <pt x="896" y="1640" on="0"/>
        <pt x="1226" y="1349" on="0"/>
        <pt x="1226" y="872" on="0"/>
        <pt x="884" y="580" on="0"/>
      </contour>
    </TTGlyph>
    <TTGlyph name="oslash" xMin="74" yMin="-184" xMax="1511" yMax="1454">
      <contour>
        <pt x="381" y="1194" on="0"/>
        <pt x="639" y="1290" on="0"/>
        <pt x="874" y="1290" on="0"/>
        <pt x="981" y="1270" on="1"/>
        <pt x="1053" y="1454" on="1"/>
        <pt x="1217" y="1399" on="1"/>
        <pt x="1147" y="1212" on="1"/>
        <pt x="1407" y="1088" on="0"/>
        <pt x="1485" y="818" on="1"/>
        <pt x="1511" y="728" on="0"/>
        <pt x="1511" y="522" on="0"/>
        <pt x="1484" y="434" on="1"/>
        <pt x="1429" y="258" on="0"/>
        <pt x="1291" y="140" on="1"/>
        <pt x="1075" y="-36" on="0"/>
        <pt x="784" y="-37" on="1"/>
        <pt x="726" y="-37" on="0"/>
        <pt x="664" y="-27" on="1"/>
        <pt x="602" y="-184" on="1"/>
        <pt x="438" y="-129" on="1"/>
        <pt x="496" y="18" on="1"/>
        <pt x="309" y="96" on="0"/>
        <pt x="74" y="416" on="0"/>
        <pt x="74" y="627" on="1"/>
        <pt x="74" y="919" on="0"/>
        <pt x="284" y="1107" on="1"/>
      </contour>
      <contour>
        <pt x="982" y="889" on="1"/>
        <pt x="962" y="899" on="0"/>
        <pt x="899" y="899" on="0"/>
        <pt x="823" y="862" on="0"/>
        <pt x="786" y="830" on="1"/>
        <pt x="708" y="762" on="0"/>
        <pt x="602" y="568" on="0"/>
        <pt x="602" y="405" on="0"/>
        <pt x="664" y="377" on="1"/>
        <pt x="686" y="367" on="0"/>
        <pt x="750" y="367" on="0"/>
        <pt x="820" y="406" on="0"/>
        <pt x="855" y="439" on="1"/>
        <pt x="928" y="508" on="0"/>
        <pt x="1038" y="705" on="0"/>
        <pt x="1038" y="861" on="0"/>
      </contour>
    </TTGlyph>
    <TTGlyph name="otilde" xMin="74" yMin="-37" xMax="1511" yMax="1851">
      <component glyphName="o" x="0" y="0" flags="0x1204"/>
      <component glyphName="tilde" x="182" y="561" flags="0x1004"/>
    </TTGlyph>
    <TTGlyph name="p" xMin="121" yMin="-324" xMax="1569" yMax="1290">
      <contour>
        <pt x="1569" y="788" on="1"/>
        <pt x="1568" y="502" on="0"/>
        <pt x="1380" y="278" on="1"/>
        <pt x="1240" y="111" on="0"/>
        <pt x="999" y="40" on="1"/>
        <pt x="874" y="3" on="0"/>
        <pt x="715" y="0" on="1"/>
        <pt x="715" y="-324" on="1"/>
        <pt x="121" y="-324" on="1"/>
        <pt x="121" y="1243" on="1"/>
        <pt x="449" y="1243" on="1"/>
        <pt x="588" y="1051" on="1"/>
        <pt x="812" y="1290" on="0"/>
        <pt x="1306" y="1290" on="0"/>
        <pt x="1569" y="1006" on="0"/>
      </contour>
      <contour>
        <pt x="1014" y="869" on="1"/>
        <pt x="993" y="877" on="0"/>
        <pt x="962" y="877" on="1"/>
        <pt x="899" y="877" on="0"/>
        <pt x="754" y="732" on="0"/>
        <pt x="715" y="639" on="1"/>
        <pt x="715" y="352" on="1"/>
        <pt x="732" y="364" on="0"/>
        <pt x="799" y="405" on="0"/>
        <pt x="839" y="434" on="1"/>
        <pt x="1075" y="602" on="0"/>
        <pt x="1075" y="776" on="1"/>
        <pt x="1075" y="846" on="0"/>
      </contour>
    </TTGlyph>
    <TTGlyph name="paragraph" xMin="39" yMin="0" xMax="1628" yMax="1597">
      <contour>
        <pt x="864" y="453" on="1"/>
        <pt x="707" y="449" on="1"/>
        <pt x="414" y="449" on="0"/>
        <pt x="39" y="824" on="0"/>
        <pt x="39" y="1116" on="1"/>
        <pt x="39" y="1313" on="0"/>
        <pt x="306" y="1597" on="0"/>
        <pt x="539" y="1597" on="1"/>
        <pt x="1628" y="1597" on="1"/>
        <pt x="1628" y="0" on="1"/>
        <pt x="1307" y="0" on="1"/>
        <pt x="1307" y="1292" on="1"/>
        <pt x="1192" y="1292" on="1"/>
        <pt x="1192" y="0" on="1"/>
        <pt x="864" y="0" on="1"/>
      </contour>
    </TTGlyph>
    <TTGlyph name="parenleft" xMin="41" yMin="-66" xMax="901" yMax="1673">
      <contour>
        <pt x="897" y="1333" on="1"/>
        <pt x="674" y="1162" on="0"/>
        <pt x="617" y="892" on="1"/>
        <pt x="600" y="812" on="0"/>
        <pt x="600" y="652" on="0"/>
        <pt x="642" y="496" on="0"/>
        <pt x="682" y="436" on="1"/>
        <pt x="769" y="304" on="0"/>
        <pt x="901" y="303" on="1"/>
        <pt x="901" y="-66" on="1"/>
        <pt x="545" y="-66" on="0"/>
        <pt x="303" y="146" on="1"/>
        <pt x="138" y="292" on="0"/>
        <pt x="74" y="516" on="1"/>
        <pt x="42" y="630" on="0"/>
        <pt x="41" y="968" on="0"/>
        <pt x="166" y="1300" on="0"/>
        <pt x="279" y="1419" on="1"/>
        <pt x="516" y="1669" on="0"/>
        <pt x="897" y="1673" on="1"/>
      </contour>
    </TTGlyph>
    <TTGlyph name="parenright" xMin="123" yMin="-66" xMax="983" yMax="1673">
      <contour>
        <pt x="127" y="1673" on="1"/>
        <pt x="508" y="1669" on="0"/>
        <pt x="983" y="1168" on="0"/>
        <pt x="983" y="375" on="0"/>
        <pt x="721" y="146" on="1"/>
        <pt x="479" y="-66" on="0"/>
        <pt x="123" y="-66" on="1"/>
        <pt x="123" y="303" on="1"/>
        <pt x="254" y="304" on="0"/>
        <pt x="424" y="560" on="0"/>
        <pt x="424" y="737" on="1"/>
        <pt x="424" y="992" on="0"/>
        <pt x="262" y="1200" on="1"/>
        <pt x="206" y="1272" on="0"/>
        <pt x="127" y="1333" on="1"/>
      </contour>
    </TTGlyph>
    <TTGlyph name="percent" xMin="59" yMin="-37" xMax="3256" yMax="1640">
      <contour>
        <pt x="2454" y="663" on="0"/>
        <pt x="2454" y="463" on="0"/>
        <pt x="2552" y="313" on="0"/>
        <pt x="2727" y="314" on="0"/>
        <pt x="2824" y="459" on="0"/>
        <pt x="2824" y="559" on="1"/>
        <pt x="2824" y="721" on="0"/>
        <pt x="2720" y="787" on="1"/>
        <pt x="2686" y="809" on="0"/>
        <pt x="2640" y="809" on="1"/>
        <pt x="2552" y="809" on="0"/>
      </contour>
      <contour>
        <pt x="2348" y="-37" on="0"/>
        <pt x="2023" y="318" on="0"/>
        <pt x="2023" y="561" on="1"/>
        <pt x="2023" y="804" on="0"/>
        <pt x="2177" y="972" on="1"/>
        <pt x="2348" y="1159" on="0"/>
        <pt x="2930" y="1159" on="0"/>
        <pt x="3102" y="972" on="1"/>
        <pt x="3256" y="805" on="0"/>
        <pt x="3256" y="561" on="1"/>
        <pt x="3256" y="317" on="0"/>
        <pt x="3102" y="150" on="1"/>
        <pt x="2930" y="-37" on="0"/>
      </contour>
      <contour>
        <pt x="594" y="1269" on="1"/>
        <pt x="491" y="1205" on="0"/>
        <pt x="489" y="1045" on="1"/>
        <pt x="488" y="944" on="0"/>
        <pt x="588" y="795" on="0"/>
        <pt x="763" y="796" on="0"/>
        <pt x="860" y="941" on="0"/>
        <pt x="860" y="1040" on="1"/>
        <pt x="860" y="1202" on="0"/>
        <pt x="756" y="1268" on="1"/>
        <pt x="722" y="1290" on="0"/>
        <pt x="629" y="1290" on="0"/>
      </contour>
      <contour>
        <pt x="384" y="444" on="0"/>
        <pt x="59" y="799" on="0"/>
        <pt x="59" y="1042" on="1"/>
        <pt x="59" y="1285" on="0"/>
        <pt x="213" y="1453" on="1"/>
        <pt x="384" y="1640" on="0"/>
        <pt x="966" y="1640" on="0"/>
        <pt x="1138" y="1453" on="1"/>
        <pt x="1292" y="1286" on="0"/>
        <pt x="1292" y="1042" on="1"/>
        <pt x="1292" y="798" on="0"/>
        <pt x="1138" y="631" on="1"/>
        <pt x="966" y="444" on="0"/>
      </contour>
      <contour>
        <pt x="1430" y="0" on="1"/>
        <pt x="1165" y="0" on="1"/>
        <pt x="1718" y="1597" on="1"/>
        <pt x="2310" y="1597" on="1"/>
      </contour>
    </TTGlyph>
    <TTGlyph name="period" xMin="76" yMin="-37" xMax="684" yMax="551">
      <contour>
        <pt x="541" y="551" on="0"/>
        <pt x="684" y="392" on="0"/>
        <pt x="684" y="154" on="0"/>
        <pt x="508" y="-37" on="0"/>
        <pt x="216" y="-36" on="0"/>
        <pt x="76" y="119" on="0"/>
        <pt x="76" y="354" on="0"/>
        <pt x="262" y="550" on="0"/>
      </contour>
    </TTGlyph>
    <TTGlyph name="periodcentered" xMin="76" yMin="653" xMax="684" yMax="1241">
      <contour>
        <pt x="541" y="1241" on="0"/>
        <pt x="684" y="1082" on="0"/>
        <pt x="684" y="844" on="0"/>
        <pt x="508" y="653" on="0"/>
        <pt x="216" y="654" on="0"/>
        <pt x="76" y="809" on="0"/>
        <pt x="76" y="1044" on="0"/>
        <pt x="262" y="1240" on="0"/>
      </contour>
    </TTGlyph>
    <TTGlyph name="plus" xMin="33" yMin="268" xMax="1055" yMax="1290">
      <contour>
        <pt x="360" y="963" on="1"/>
        <pt x="360" y="1290" on="1"/>
        <pt x="729" y="1290" on="1"/>
        <pt x="729" y="963" on="1"/>
        <pt x="1055" y="963" on="1"/>
        <pt x="1055" y="594" on="1"/>
        <pt x="729" y="594" on="1"/>
        <pt x="729" y="268" on="1"/>
        <pt x="360" y="268" on="1"/>
        <pt x="360" y="594" on="1"/>
        <pt x="33" y="594" on="1"/>
        <pt x="33" y="963" on="1"/>
      </contour>
    </TTGlyph>
    <TTGlyph name="plusminus" xMin="59" yMin="0" xMax="877" yMax="1241">
      <contour>
        <pt x="322" y="979" on="1"/>
        <pt x="322" y="1241" on="1"/>
        <pt x="616" y="1241" on="1"/>
        <pt x="616" y="979" on="1"/>
        <pt x="877" y="979" on="1"/>
        <pt x="877" y="684" on="1"/>
        <pt x="616" y="684" on="1"/>
        <pt x="616" y="424" on="1"/>
        <pt x="322" y="424" on="1"/>
        <pt x="322" y="684" on="1"/>
        <pt x="59" y="684" on="1"/>
        <pt x="59" y="979" on="1"/>
      </contour>
      <contour>
        <pt x="102" y="238" on="1"/>
        <pt x="831" y="238" on="1"/>
        <pt x="831" y="0" on="1"/>
        <pt x="102" y="0" on="1"/>
      </contour>
    </TTGlyph>
    <TTGlyph name="q" xMin="74" yMin="-326" xMax="1583" yMax="1284">
      <contour>
        <pt x="643" y="1247" on="1"/>
        <pt x="786" y="1284" on="0"/>
        <pt x="1247" y="1284" on="0"/>
        <pt x="1583" y="1229" on="1"/>
        <pt x="1583" y="-326" on="1"/>
        <pt x="1042" y="-326" on="1"/>
        <pt x="1042" y="127" on="1"/>
        <pt x="918" y="6" on="0"/>
        <pt x="730" y="-28" on="1"/>
        <pt x="680" y="-37" on="0"/>
        <pt x="641" y="-37" on="1"/>
        <pt x="370" y="-37" on="0"/>
        <pt x="74" y="312" on="0"/>
        <pt x="74" y="814" on="0"/>
        <pt x="235" y="1012" on="1"/>
        <pt x="369" y="1176" on="0"/>
      </contour>
      <contour>
        <pt x="1044" y="866" on="1"/>
        <pt x="1010" y="887" on="0"/>
        <pt x="931" y="887" on="0"/>
        <pt x="856" y="855" on="0"/>
        <pt x="822" y="828" on="1"/>
        <pt x="749" y="772" on="0"/>
        <pt x="656" y="599" on="0"/>
        <pt x="655" y="426" on="0"/>
        <pt x="708" y="392" on="1"/>
        <pt x="727" y="380" on="0"/>
        <pt x="754" y="379" on="1"/>
        <pt x="884" y="379" on="0"/>
        <pt x="1044" y="510" on="1"/>
      </contour>
    </TTGlyph>
    <TTGlyph name="question" xMin="82" yMin="-37" xMax="1120" yMax="1638">
      <contour>
        <pt x="82" y="1585" on="1"/>
        <pt x="269" y="1638" on="0"/>
        <pt x="473" y="1638" on="1"/>
        <pt x="980" y="1638" on="0"/>
        <pt x="1094" y="1358" on="1"/>
        <pt x="1120" y="1294" on="0"/>
        <pt x="1120" y="1214" on="1"/>
        <pt x="1120" y="1007" on="0"/>
        <pt x="1006" y="902" on="1"/>
        <pt x="963" y="862" on="0"/>
        <pt x="822" y="766" on="0"/>
        <pt x="788" y="734" on="1"/>
        <pt x="708" y="659" on="0"/>
        <pt x="676" y="553" on="1"/>
        <pt x="311" y="553" on="1"/>
        <pt x="281" y="643" on="0"/>
        <pt x="281" y="792" on="0"/>
        <pt x="322" y="886" on="0"/>
        <pt x="385" y="953" on="0"/>
        <pt x="457" y="1000" on="0"/>
        <pt x="520" y="1041" on="0"/>
        <pt x="561" y="1082" on="0"/>
        <pt x="561" y="1110" on="1"/>
        <pt x="561" y="1227" on="0"/>
        <pt x="401" y="1227" on="1"/>
        <pt x="288" y="1227" on="0"/>
        <pt x="133" y="1174" on="1"/>
        <pt x="98" y="1162" on="0"/>
        <pt x="82" y="1155" on="1"/>
      </contour>
      <contour>
        <pt x="522" y="479" on="1"/>
        <pt x="592" y="479" on="0"/>
        <pt x="690" y="440" on="0"/>
        <pt x="722" y="406" on="1"/>
        <pt x="786" y="340" on="0"/>
        <pt x="786" y="130" on="0"/>
        <pt x="620" y="-36" on="0"/>
        <pt x="342" y="-37" on="0"/>
        <pt x="212" y="100" on="0"/>
        <pt x="211" y="306" on="0"/>
        <pt x="389" y="479" on="0"/>
      </contour>
    </TTGlyph>
    <TTGlyph name="questiondown" xMin="180" yMin="-34" xMax="1219" yMax="1641">
      <component glyphName="question" x="1300" y="1604" scale="-0.999938964844" flags="0x1004"/>
    </TTGlyph>
    <TTGlyph name="quotedbl" xMin="98" yMin="844" xMax="1214" yMax="1597">
      <contour>
        <pt x="1133" y="844" on="1"/>
        <pt x="801" y="844" on="1"/>
        <pt x="698" y="1597" on="1"/>
        <pt x="1214" y="1597" on="1"/>
      </contour>
      <contour>
        <pt x="532" y="844" on="1"/>
        <pt x="201" y="844" on="1"/>
        <pt x="98" y="1597" on="1"/>
        <pt x="614" y="1597" on="1"/>
      </contour>
    </TTGlyph>
    <TTGlyph name="quotedblbase" xMin="123" yMin="-465" xMax="1483" yMax="422">
      <contour>
        <pt x="874" y="-207" on="1"/>
        <pt x="986" y="-207" on="0"/>
        <pt x="1032" y="-104" on="1"/>
        <pt x="1052" y="-58" on="0"/>
        <pt x="1055" y="0" on="1"/>
        <pt x="874" y="0" on="1"/>
        <pt x="874" y="422" on="1"/>
        <pt x="1483" y="422" on="1"/>
        <pt x="1483" y="18" on="1"/>
        <pt x="1483" y="-336" on="0"/>
        <pt x="1148" y="-432" on="1"/>
        <pt x="1033" y="-465" on="0"/>
        <pt x="874" y="-465" on="1"/>
      </contour>
      <contour>
        <pt x="123" y="-207" on="1"/>
        <pt x="234" y="-207" on="0"/>
        <pt x="280" y="-104" on="1"/>
        <pt x="299" y="-58" on="0"/>
        <pt x="303" y="0" on="1"/>
        <pt x="123" y="0" on="1"/>
        <pt x="123" y="422" on="1"/>
        <pt x="731" y="422" on="1"/>
        <pt x="731" y="18" on="1"/>
        <pt x="731" y="-336" on="0"/>
        <pt x="397" y="-432" on="1"/>
        <pt x="282" y="-465" on="0"/>
        <pt x="123" y="-465" on="1"/>
      </contour>
    </TTGlyph>
    <TTGlyph name="quotedblleft" xMin="104" yMin="713" xMax="1464" yMax="1599">
      <contour>
        <pt x="713" y="1341" on="1"/>
        <pt x="604" y="1341" on="0"/>
        <pt x="555" y="1238" on="1"/>
        <pt x="535" y="1192" on="0"/>
        <pt x="532" y="1135" on="1"/>
        <pt x="713" y="1135" on="1"/>
        <pt x="713" y="713" on="1"/>
        <pt x="104" y="713" on="1"/>
        <pt x="104" y="1116" on="1"/>
        <pt x="104" y="1470" on="0"/>
        <pt x="439" y="1566" on="1"/>
        <pt x="554" y="1599" on="0"/>
        <pt x="713" y="1599" on="1"/>
      </contour>
      <contour>
        <pt x="1464" y="1341" on="1"/>
        <pt x="1349" y="1341" on="0"/>
        <pt x="1306" y="1238" on="1"/>
        <pt x="1286" y="1192" on="0"/>
        <pt x="1284" y="1135" on="1"/>
        <pt x="1464" y="1135" on="1"/>
        <pt x="1464" y="713" on="1"/>
        <pt x="856" y="713" on="1"/>
        <pt x="856" y="1116" on="1"/>
        <pt x="856" y="1470" on="0"/>
        <pt x="1190" y="1566" on="1"/>
        <pt x="1305" y="1599" on="0"/>
        <pt x="1464" y="1599" on="1"/>
      </contour>
    </TTGlyph>
    <TTGlyph name="quotedblright" xMin="123" yMin="713" xMax="1483" yMax="1599">
      <contour>
        <pt x="874" y="971" on="1"/>
        <pt x="986" y="971" on="0"/>
        <pt x="1032" y="1074" on="1"/>
        <pt x="1052" y="1120" on="0"/>
        <pt x="1055" y="1178" on="1"/>
        <pt x="874" y="1178" on="1"/>
        <pt x="874" y="1599" on="1"/>
        <pt x="1483" y="1599" on="1"/>
        <pt x="1483" y="1196" on="1"/>
        <pt x="1483" y="842" on="0"/>
        <pt x="1148" y="746" on="1"/>
        <pt x="1033" y="713" on="0"/>
        <pt x="874" y="713" on="1"/>
      </contour>
      <contour>
        <pt x="123" y="971" on="1"/>
        <pt x="234" y="971" on="0"/>
        <pt x="280" y="1074" on="1"/>
        <pt x="299" y="1120" on="0"/>
        <pt x="303" y="1178" on="1"/>
        <pt x="123" y="1178" on="1"/>
        <pt x="123" y="1599" on="1"/>
        <pt x="731" y="1599" on="1"/>
        <pt x="731" y="1196" on="1"/>
        <pt x="731" y="842" on="0"/>
        <pt x="397" y="746" on="1"/>
        <pt x="282" y="713" on="0"/>
        <pt x="123" y="713" on="1"/>
      </contour>
    </TTGlyph>
    <TTGlyph name="quoteleft" xMin="82" yMin="713" xMax="690" yMax="1599">
      <contour>
        <pt x="690" y="1341" on="1"/>
        <pt x="575" y="1341" on="0"/>
        <pt x="532" y="1238" on="1"/>
        <pt x="512" y="1192" on="0"/>
        <pt x="510" y="1135" on="1"/>
        <pt x="690" y="1135" on="1"/>
        <pt x="690" y="713" on="1"/>
        <pt x="82" y="713" on="1"/>
        <pt x="82" y="1116" on="1"/>
        <pt x="82" y="1470" on="0"/>
        <pt x="416" y="1566" on="1"/>
        <pt x="531" y="1599" on="0"/>
        <pt x="690" y="1599" on="1"/>
      </contour>
    </TTGlyph>
    <TTGlyph name="quoteright" xMin="123" yMin="713" xMax="731" yMax="1599">
      <contour>
        <pt x="123" y="971" on="1"/>
        <pt x="234" y="971" on="0"/>
        <pt x="280" y="1074" on="1"/>
        <pt x="299" y="1120" on="0"/>
        <pt x="303" y="1178" on="1"/>
        <pt x="123" y="1178" on="1"/>
        <pt x="123" y="1599" on="1"/>
        <pt x="731" y="1599" on="1"/>
        <pt x="731" y="1196" on="1"/>
        <pt x="731" y="842" on="0"/>
        <pt x="397" y="746" on="1"/>
        <pt x="282" y="713" on="0"/>
        <pt x="123" y="713" on="1"/>
      </contour>
    </TTGlyph>
    <TTGlyph name="quotesinglbase" xMin="123" yMin="-465" xMax="731" yMax="422">
      <contour>
        <pt x="123" y="-207" on="1"/>
        <pt x="234" y="-207" on="0"/>
        <pt x="280" y="-104" on="1"/>
        <pt x="299" y="-58" on="0"/>
        <pt x="303" y="0" on="1"/>
        <pt x="123" y="0" on="1"/>
        <pt x="123" y="422" on="1"/>
        <pt x="731" y="422" on="1"/>
        <pt x="731" y="18" on="1"/>
        <pt x="731" y="-336" on="0"/>
        <pt x="397" y="-432" on="1"/>
        <pt x="282" y="-465" on="0"/>
        <pt x="123" y="-465" on="1"/>
      </contour>
    </TTGlyph>
    <TTGlyph name="quotesingle" xMin="74" yMin="844" xMax="590" yMax="1597">
      <contour>
        <pt x="508" y="844" on="1"/>
        <pt x="176" y="844" on="1"/>
        <pt x="74" y="1597" on="1"/>
        <pt x="590" y="1597" on="1"/>
      </contour>
    </TTGlyph>
    <TTGlyph name="r" xMin="121" yMin="0" xMax="1010" yMax="1288">
      <contour>
        <pt x="1010" y="774" on="1"/>
        <pt x="918" y="774" on="0"/>
        <pt x="724" y="640" on="0"/>
        <pt x="723" y="580" on="1"/>
        <pt x="723" y="0" on="1"/>
        <pt x="121" y="0" on="1"/>
        <pt x="121" y="1243" on="1"/>
        <pt x="723" y="1243" on="1"/>
        <pt x="723" y="1110" on="1"/>
        <pt x="774" y="1187" on="0"/>
        <pt x="925" y="1279" on="0"/>
        <pt x="1010" y="1288" on="1"/>
      </contour>
    </TTGlyph>
    <TTGlyph name="racute" xMin="121" yMin="0" xMax="1010" yMax="2040">
      <component glyphName="r" x="0" y="0" flags="0x1204"/>
      <component glyphName="acute" x="414" y="563" flags="0x1004"/>
    </TTGlyph>
    <TTGlyph name="rcaron" xMin="108" yMin="0" xMax="997" yMax="2068">
      <component glyphName="r" x="-13" y="0" flags="0x1204"/>
      <component glyphName="caron" x="135" y="563" flags="0x1004"/>
    </TTGlyph>
    <TTGlyph name="rcommaaccent" xMin="108" yMin="-1022" xMax="997" yMax="1288">
      <component glyphName="r" x="-13" y="0" flags="0x1204"/>
      <component glyphName="commaaccent" x="71" y="0" flags="0x1004"/>
    </TTGlyph>
    <TTGlyph name="registered" xMin="76" yMin="-283" xMax="2308" yMax="1892">
      <contour>
        <pt x="1761" y="1008" on="1"/>
        <pt x="1761" y="800" on="0"/>
        <pt x="1540" y="680" on="1"/>
        <pt x="1845" y="281" on="1"/>
        <pt x="1288" y="281" on="1"/>
        <pt x="1110" y="575" on="1"/>
        <pt x="1092" y="575" on="1"/>
        <pt x="1092" y="281" on="1"/>
        <pt x="633" y="281" on="1"/>
        <pt x="633" y="1405" on="1"/>
        <pt x="1247" y="1405" on="1"/>
        <pt x="1480" y="1404" on="0"/>
        <pt x="1761" y="1168" on="0"/>
      </contour>
      <contour>
        <pt x="1246" y="1110" on="1"/>
        <pt x="1201" y="1110" on="0"/>
        <pt x="1090" y="1047" on="1"/>
        <pt x="1090" y="795" on="1"/>
        <pt x="1178" y="844" on="1"/>
        <pt x="1205" y="862" on="0"/>
        <pt x="1232" y="877" on="1"/>
        <pt x="1327" y="931" on="0"/>
        <pt x="1327" y="1110" on="0"/>
      </contour>
      <contour>
        <pt x="1743" y="1566" on="0"/>
        <pt x="1412" y="1710" on="0"/>
        <pt x="1045" y="1710" on="0"/>
        <pt x="923" y="1677" on="1"/>
        <pt x="567" y="1581" on="0"/>
        <pt x="409" y="1258" on="1"/>
        <pt x="311" y="1057" on="0"/>
        <pt x="311" y="805" on="1"/>
        <pt x="312" y="417" on="0"/>
        <pt x="532" y="168" on="1"/>
        <pt x="682" y="-2" on="0"/>
        <pt x="923" y="-66" on="1"/>
        <pt x="1045" y="-98" on="0"/>
        <pt x="1412" y="-98" on="0"/>
        <pt x="1743" y="45" on="0"/>
        <pt x="1853" y="168" on="1"/>
        <pt x="2073" y="414" on="0"/>
        <pt x="2073" y="1194" on="0"/>
        <pt x="1853" y="1442" on="1"/>
      </contour>
      <contour>
        <pt x="76" y="805" on="1"/>
        <pt x="76" y="1151" on="0"/>
        <pt x="392" y="1644" on="0"/>
        <pt x="901" y="1893" on="0"/>
        <pt x="1192" y="1892" on="1"/>
        <pt x="1641" y="1892" on="0"/>
        <pt x="1959" y="1620" on="1"/>
        <pt x="2177" y="1433" on="0"/>
        <pt x="2264" y="1137" on="1"/>
        <pt x="2308" y="986" on="0"/>
        <pt x="2308" y="805" on="1"/>
        <pt x="2308" y="459" on="0"/>
        <pt x="1991" y="-34" on="0"/>
        <pt x="1482" y="-282" on="0"/>
        <pt x="1192" y="-283" on="1"/>
        <pt x="740" y="-283" on="0"/>
        <pt x="424" y="-11" on="1"/>
        <pt x="206" y="177" on="0"/>
        <pt x="120" y="473" on="1"/>
        <pt x="76" y="624" on="0"/>
      </contour>
    </TTGlyph>
    <TTGlyph name="ring" xMin="42" yMin="872" xMax="692" yMax="1507">
      <contour>
        <pt x="367" y="1327" on="1"/>
        <pt x="266" y="1326" on="0"/>
        <pt x="234" y="1242" on="1"/>
        <pt x="225" y="1218" on="0"/>
        <pt x="225" y="1193" on="1"/>
        <pt x="225" y="1139" on="0"/>
        <pt x="303" y="1055" on="0"/>
        <pt x="354" y="1055" on="1"/>
        <pt x="436" y="1055" on="0"/>
        <pt x="512" y="1136" on="0"/>
        <pt x="512" y="1176" on="1"/>
        <pt x="512" y="1244" on="0"/>
        <pt x="434" y="1328" on="0"/>
      </contour>
      <contour>
        <pt x="43" y="1340" on="0"/>
        <pt x="234" y="1506" on="0"/>
        <pt x="497" y="1508" on="0"/>
        <pt x="692" y="1340" on="0"/>
        <pt x="692" y="1041" on="0"/>
        <pt x="499" y="872" on="0"/>
        <pt x="234" y="872" on="0"/>
        <pt x="42" y="1042" on="0"/>
      </contour>
    </TTGlyph>
    <TTGlyph name="s" xMin="96" yMin="-37" xMax="1118" yMax="1290">
      <contour>
        <pt x="1040" y="870" on="1"/>
        <pt x="818" y="922" on="0"/>
        <pt x="717" y="922" on="1"/>
        <pt x="688" y="922" on="0"/>
        <pt x="657" y="896" on="0"/>
        <pt x="657" y="880" on="1"/>
        <pt x="657" y="847" on="0"/>
        <pt x="822" y="780" on="0"/>
        <pt x="960" y="716" on="0"/>
        <pt x="1010" y="670" on="1"/>
        <pt x="1118" y="570" on="0"/>
        <pt x="1118" y="175" on="0"/>
        <pt x="832" y="-37" on="0"/>
        <pt x="344" y="-37" on="0"/>
        <pt x="198" y="8" on="1"/>
        <pt x="134" y="27" on="0"/>
        <pt x="100" y="53" on="1"/>
        <pt x="100" y="424" on="1"/>
        <pt x="114" y="423" on="0"/>
        <pt x="184" y="399" on="0"/>
        <pt x="346" y="348" on="0"/>
        <pt x="479" y="348" on="0"/>
        <pt x="479" y="397" on="1"/>
        <pt x="479" y="435" on="0"/>
        <pt x="419" y="471" on="1"/>
        <pt x="392" y="487" on="0"/>
        <pt x="358" y="504" on="1"/>
        <pt x="217" y="573" on="0"/>
        <pt x="96" y="754" on="0"/>
        <pt x="96" y="876" on="1"/>
        <pt x="96" y="1093" on="0"/>
        <pt x="272" y="1200" on="1"/>
        <pt x="420" y="1290" on="0"/>
        <pt x="659" y="1290" on="1"/>
        <pt x="826" y="1290" on="0"/>
        <pt x="994" y="1257" on="1"/>
        <pt x="1030" y="1250" on="0"/>
        <pt x="1040" y="1247" on="1"/>
      </contour>
    </TTGlyph>
    <TTGlyph name="scaron" xMin="96" yMin="-37" xMax="1118" yMax="2068">
      <component glyphName="s" x="0" y="0" flags="0x1204"/>
      <component glyphName="caron" x="186" y="563" flags="0x1004"/>
    </TTGlyph>
    <TTGlyph name="scedilla" xMin="96" yMin="-631" xMax="1118" yMax="1290">
      <component glyphName="s" x="0" y="0" flags="0x1204"/>
      <component glyphName="cedilla" x="223" y="0" flags="0x1004"/>
    </TTGlyph>
    <TTGlyph name="section" xMin="57" yMin="-82" xMax="1372" yMax="1669">
      <contour>
        <pt x="563" y="-82" on="1"/>
        <pt x="337" y="-82" on="0"/>
        <pt x="201" y="-14" on="1"/>
        <pt x="201" y="334" on="1"/>
        <pt x="366" y="291" on="0"/>
        <pt x="555" y="292" on="0"/>
        <pt x="574" y="316" on="1"/>
        <pt x="582" y="326" on="0"/>
        <pt x="582" y="367" on="0"/>
        <pt x="537" y="397" on="0"/>
        <pt x="463" y="422" on="0"/>
        <pt x="416" y="436" on="1"/>
        <pt x="300" y="469" on="0"/>
        <pt x="238" y="507" on="1"/>
        <pt x="57" y="620" on="0"/>
        <pt x="57" y="854" on="1"/>
        <pt x="58" y="1004" on="0"/>
        <pt x="252" y="1220" on="0"/>
        <pt x="364" y="1233" on="1"/>
        <pt x="362" y="1244" on="0"/>
        <pt x="362" y="1268" on="0"/>
        <pt x="362" y="1280" on="1"/>
        <pt x="362" y="1490" on="0"/>
        <pt x="528" y="1588" on="1"/>
        <pt x="666" y="1670" on="0"/>
        <pt x="899" y="1669" on="1"/>
        <pt x="1059" y="1669" on="0"/>
        <pt x="1219" y="1634" on="1"/>
        <pt x="1219" y="1278" on="1"/>
        <pt x="1072" y="1298" on="0"/>
        <pt x="856" y="1298" on="0"/>
        <pt x="856" y="1247" on="1"/>
        <pt x="856" y="1229" on="0"/>
        <pt x="900" y="1209" on="0"/>
        <pt x="973" y="1192" on="0"/>
        <pt x="1020" y="1182" on="1"/>
        <pt x="1127" y="1159" on="0"/>
        <pt x="1256" y="1080" on="0"/>
        <pt x="1292" y="1034" on="1"/>
        <pt x="1372" y="933" on="0"/>
        <pt x="1372" y="614" on="0"/>
        <pt x="1194" y="367" on="0"/>
        <pt x="1079" y="354" on="1"/>
        <pt x="1092" y="293" on="0"/>
        <pt x="1092" y="192" on="0"/>
        <pt x="1049" y="93" on="0"/>
        <pt x="1012" y="56" on="1"/>
        <pt x="941" y="-15" on="0"/>
        <pt x="700" y="-82" on="0"/>
      </contour>
      <contour>
        <pt x="563" y="920" on="1"/>
        <pt x="469" y="920" on="0"/>
        <pt x="469" y="854" on="1"/>
        <pt x="469" y="823" on="0"/>
        <pt x="514" y="795" on="0"/>
        <pt x="548" y="781" on="0"/>
        <pt x="624" y="749" on="0"/>
        <pt x="821" y="686" on="0"/>
        <pt x="932" y="686" on="0"/>
        <pt x="973" y="706" on="0"/>
        <pt x="973" y="736" on="1"/>
        <pt x="973" y="806" on="0"/>
        <pt x="879" y="836" on="1"/>
        <pt x="861" y="854" on="0"/>
        <pt x="611" y="920" on="0"/>
      </contour>
    </TTGlyph>
    <TTGlyph name="semicolon" xMin="94" yMin="-336" xMax="702" yMax="1290">
      <contour>
        <pt x="94" y="-78" on="1"/>
        <pt x="205" y="-78" on="0"/>
        <pt x="251" y="25" on="1"/>
        <pt x="270" y="71" on="0"/>
        <pt x="274" y="129" on="1"/>
        <pt x="94" y="129" on="1"/>
        <pt x="94" y="551" on="1"/>
        <pt x="702" y="551" on="1"/>
        <pt x="702" y="147" on="1"/>
        <pt x="702" y="-207" on="0"/>
        <pt x="368" y="-303" on="1"/>
        <pt x="253" y="-336" on="0"/>
        <pt x="94" y="-336" on="1"/>
      </contour>
      <contour>
        <pt x="548" y="1290" on="0"/>
        <pt x="682" y="1142" on="0"/>
        <pt x="682" y="928" on="0"/>
        <pt x="522" y="756" on="0"/>
        <pt x="253" y="756" on="0"/>
        <pt x="129" y="897" on="0"/>
        <pt x="129" y="1110" on="0"/>
        <pt x="297" y="1290" on="0"/>
      </contour>
    </TTGlyph>
    <TTGlyph name="seven" xMin="98" yMin="0" xMax="1726" yMax="1599">
      <contour>
        <pt x="958" y="1151" on="1"/>
        <pt x="305" y="1137" on="1"/>
        <pt x="241" y="1137" on="0"/>
        <pt x="98" y="1165" on="0"/>
        <pt x="98" y="1169" on="1"/>
        <pt x="98" y="1599" on="1"/>
        <pt x="1726" y="1599" on="1"/>
        <pt x="1726" y="1477" on="1"/>
        <pt x="1004" y="0" on="1"/>
        <pt x="168" y="0" on="1"/>
        <pt x="958" y="1108" on="1"/>
      </contour>
    </TTGlyph>
    <TTGlyph name="six" xMin="74" yMin="-37" xMax="1710" yMax="1642">
      <contour>
        <pt x="966" y="981" on="1"/>
        <pt x="1710" y="981" on="0"/>
        <pt x="1710" y="506" on="1"/>
        <pt x="1710" y="302" on="0"/>
        <pt x="1589" y="172" on="1"/>
        <pt x="1395" y="-38" on="0"/>
        <pt x="958" y="-37" on="1"/>
        <pt x="600" y="-37" on="0"/>
        <pt x="346" y="162" on="1"/>
        <pt x="74" y="374" on="0"/>
        <pt x="74" y="739" on="1"/>
        <pt x="74" y="1156" on="0"/>
        <pt x="329" y="1405" on="1"/>
        <pt x="569" y="1642" on="0"/>
        <pt x="965" y="1642" on="1"/>
        <pt x="1191" y="1642" on="0"/>
        <pt x="1610" y="1417" on="0"/>
        <pt x="1647" y="1223" on="1"/>
        <pt x="1145" y="1085" on="1"/>
        <pt x="1114" y="1145" on="0"/>
        <pt x="1008" y="1208" on="0"/>
        <pt x="958" y="1208" on="1"/>
        <pt x="860" y="1208" on="0"/>
        <pt x="734" y="1098" on="0"/>
        <pt x="733" y="991" on="1"/>
        <pt x="733" y="972" on="1"/>
        <pt x="733" y="962" on="0"/>
        <pt x="735" y="948" on="1"/>
        <pt x="860" y="981" on="0"/>
      </contour>
      <contour>
        <pt x="883" y="363" on="0"/>
        <pt x="979" y="313" on="0"/>
        <pt x="1015" y="313" on="1"/>
        <pt x="1138" y="313" on="0"/>
        <pt x="1138" y="398" on="1"/>
        <pt x="1139" y="441" on="0"/>
        <pt x="1093" y="577" on="0"/>
        <pt x="1036" y="651" on="1"/>
        <pt x="766" y="651" on="1"/>
        <pt x="766" y="505" on="0"/>
        <pt x="846" y="408" on="1"/>
      </contour>
    </TTGlyph>
    <TTGlyph name="slash" xMin="53" yMin="0" xMax="1014" yMax="1597">
      <contour>
        <pt x="584" y="0" on="1"/>
        <pt x="53" y="0" on="1"/>
        <pt x="340" y="1597" on="1"/>
        <pt x="1014" y="1597" on="1"/>
      </contour>
    </TTGlyph>
    <TTGlyph name="sterling" xMin="59" yMin="-37" xMax="1860" yMax="1640">
      <contour>
        <pt x="1362" y="1087" on="1"/>
        <pt x="1321" y="1206" on="0"/>
        <pt x="1164" y="1206" on="1"/>
        <pt x="1072" y="1206" on="0"/>
        <pt x="946" y="1082" on="0"/>
        <pt x="946" y="967" on="1"/>
        <pt x="1438" y="967" on="1"/>
        <pt x="1438" y="649" on="1"/>
        <pt x="920" y="649" on="1"/>
        <pt x="910" y="543" on="0"/>
        <pt x="872" y="444" on="1"/>
        <pt x="1024" y="477" on="0"/>
        <pt x="1096" y="477" on="1"/>
        <pt x="1196" y="477" on="0"/>
        <pt x="1413" y="438" on="0"/>
        <pt x="1612" y="438" on="0"/>
        <pt x="1759" y="482" on="1"/>
        <pt x="1799" y="494" on="0"/>
        <pt x="1823" y="506" on="1"/>
        <pt x="1860" y="70" on="1"/>
        <pt x="1646" y="-37" on="0"/>
        <pt x="1405" y="-37" on="1"/>
        <pt x="1283" y="-37" on="0"/>
        <pt x="911" y="26" on="0"/>
        <pt x="696" y="55" on="0"/>
        <pt x="575" y="55" on="1"/>
        <pt x="357" y="55" on="0"/>
        <pt x="178" y="-37" on="1"/>
        <pt x="59" y="131" on="1"/>
        <pt x="225" y="239" on="0"/>
        <pt x="291" y="418" on="1"/>
        <pt x="315" y="483" on="0"/>
        <pt x="315" y="557" on="1"/>
        <pt x="315" y="649" on="1"/>
        <pt x="70" y="649" on="1"/>
        <pt x="70" y="967" on="1"/>
        <pt x="332" y="967" on="1"/>
        <pt x="336" y="997" on="1"/>
        <pt x="412" y="1640" on="0"/>
        <pt x="1180" y="1640" on="1"/>
        <pt x="1408" y="1640" on="0"/>
        <pt x="1571" y="1573" on="1"/>
        <pt x="1829" y="1467" on="0"/>
        <pt x="1829" y="1249" on="1"/>
      </contour>
    </TTGlyph>
    <TTGlyph name="t" xMin="66" yMin="-39" xMax="1061" yMax="1640">
      <contour>
        <pt x="1061" y="90" on="1"/>
        <pt x="871" y="-39" on="0"/>
        <pt x="446" y="-39" on="0"/>
        <pt x="180" y="202" on="0"/>
        <pt x="180" y="406" on="1"/>
        <pt x="180" y="926" on="1"/>
        <pt x="66" y="926" on="1"/>
        <pt x="66" y="1243" on="1"/>
        <pt x="180" y="1243" on="1"/>
        <pt x="180" y="1579" on="1"/>
        <pt x="778" y="1640" on="1"/>
        <pt x="778" y="1243" on="1"/>
        <pt x="1061" y="1243" on="1"/>
        <pt x="1061" y="926" on="1"/>
        <pt x="778" y="926" on="1"/>
        <pt x="778" y="612" on="1"/>
        <pt x="778" y="471" on="0"/>
        <pt x="905" y="344" on="0"/>
        <pt x="1061" y="344" on="1"/>
      </contour>
    </TTGlyph>
    <TTGlyph name="tcaron" xMin="66" yMin="-39" xMax="1526" yMax="2269">
      <component glyphName="t" x="0" y="0" flags="0x1204"/>
      <component glyphName="commaaccent" x="864" y="2404" flags="0x1004"/>
    </TTGlyph>
    <TTGlyph name="tcommaaccent" xMin="66" yMin="-39" xMax="1526" yMax="2269">
      <component glyphName="t" x="0" y="0" flags="0x1204"/>
      <component glyphName="commaaccent" x="864" y="2404" flags="0x1004"/>
    </TTGlyph>
    <TTGlyph name="thorn" xMin="102" yMin="-354" xMax="1636" yMax="1597">
      <contour>
        <pt x="102" y="1597" on="1"/>
        <pt x="684" y="1597" on="1"/>
        <pt x="684" y="1096" on="1"/>
        <pt x="812" y="1218" on="0"/>
        <pt x="996" y="1251" on="1"/>
        <pt x="1046" y="1260" on="0"/>
        <pt x="1085" y="1260" on="1"/>
        <pt x="1346" y="1260" on="0"/>
        <pt x="1636" y="910" on="0"/>
        <pt x="1636" y="430" on="0"/>
        <pt x="1451" y="224" on="1"/>
        <pt x="1308" y="66" on="0"/>
        <pt x="1052" y="-3" on="1"/>
        <pt x="918" y="-39" on="0"/>
        <pt x="745" y="-39" on="1"/>
        <pt x="680" y="-39" on="1"/>
        <pt x="680" y="-354" on="1"/>
        <pt x="102" y="-354" on="1"/>
      </contour>
      <contour>
        <pt x="973" y="844" on="1"/>
        <pt x="842" y="844" on="0"/>
        <pt x="682" y="713" on="1"/>
        <pt x="682" y="336" on="1"/>
        <pt x="780" y="336" on="1"/>
        <pt x="880" y="336" on="0"/>
        <pt x="1071" y="579" on="0"/>
        <pt x="1071" y="707" on="1"/>
        <pt x="1070" y="796" on="0"/>
        <pt x="1018" y="832" on="1"/>
        <pt x="1000" y="844" on="0"/>
      </contour>
    </TTGlyph>
    <TTGlyph name="three" xMin="80" yMin="-37" xMax="1761" yMax="1597">
      <contour>
        <pt x="317" y="600" on="1"/>
        <pt x="571" y="430" on="0"/>
        <pt x="890" y="430" on="1"/>
        <pt x="978" y="430" on="0"/>
        <pt x="1077" y="508" on="0"/>
        <pt x="1077" y="608" on="0"/>
        <pt x="1043" y="667" on="0"/>
        <pt x="1014" y="688" on="1"/>
        <pt x="922" y="756" on="0"/>
        <pt x="734" y="756" on="1"/>
        <pt x="661" y="756" on="0"/>
        <pt x="637" y="752" on="1"/>
        <pt x="516" y="963" on="1"/>
        <pt x="516" y="980" on="0"/>
        <pt x="788" y="1161" on="1"/>
        <pt x="184" y="1161" on="1"/>
        <pt x="184" y="1597" on="1"/>
        <pt x="1726" y="1597" on="1"/>
        <pt x="1726" y="1417" on="1"/>
        <pt x="1212" y="1026" on="1"/>
        <pt x="1761" y="959" on="0"/>
        <pt x="1761" y="524" on="1"/>
        <pt x="1760" y="312" on="0"/>
        <pt x="1630" y="178" on="1"/>
        <pt x="1422" y="-37" on="0"/>
        <pt x="936" y="-37" on="1"/>
        <pt x="580" y="-38" on="0"/>
        <pt x="292" y="86" on="1"/>
        <pt x="179" y="134" on="0"/>
        <pt x="80" y="213" on="1"/>
      </contour>
    </TTGlyph>
    <TTGlyph name="threequarters" xMin="-302" yMin="0" xMax="3304" yMax="1597">
      <component glyphName="threesuperior" x="-382" y="319" flags="0x1004"/>
      <component glyphName="fraction" x="1004" y="0" flags="0x1004"/>
      <component glyphName="foursuperior" x="1872" y="0" flags="0x1004"/>
    </TTGlyph>
    <TTGlyph name="threesuperior" xMin="80" yMin="-26" xMax="1425" yMax="1278">
      <contour>
        <pt x="270" y="479" on="1"/>
        <pt x="472" y="344" on="0"/>
        <pt x="727" y="344" on="1"/>
        <pt x="798" y="344" on="0"/>
        <pt x="879" y="407" on="0"/>
        <pt x="879" y="455" on="1"/>
        <pt x="878" y="540" on="0"/>
        <pt x="776" y="578" on="1"/>
        <pt x="703" y="605" on="0"/>
        <pt x="567" y="605" on="0"/>
        <pt x="537" y="602" on="1"/>
        <pt x="526" y="602" on="1"/>
        <pt x="428" y="770" on="1"/>
        <pt x="428" y="772" on="0"/>
        <pt x="446" y="792" on="0"/>
        <pt x="453" y="795" on="1"/>
        <pt x="647" y="930" on="1"/>
        <pt x="164" y="930" on="1"/>
        <pt x="164" y="1278" on="1"/>
        <pt x="1397" y="1278" on="1"/>
        <pt x="1397" y="1135" on="1"/>
        <pt x="985" y="821" on="1"/>
        <pt x="1425" y="768" on="0"/>
        <pt x="1425" y="420" on="1"/>
        <pt x="1426" y="100" on="0"/>
        <pt x="1070" y="6" on="1"/>
        <pt x="876" y="-46" on="0"/>
        <pt x="649" y="-26" on="1"/>
        <pt x="292" y="5" on="0"/>
        <pt x="80" y="170" on="1"/>
      </contour>
    </TTGlyph>
    <TTGlyph name="tilde" xMin="145" yMin="883" xMax="1079" yMax="1290">
      <contour>
        <pt x="1063" y="1247" on="1"/>
        <pt x="1079" y="1247" on="0"/>
        <pt x="1079" y="1231" on="1"/>
        <pt x="1079" y="951" on="0"/>
        <pt x="938" y="899" on="1"/>
        <pt x="895" y="883" on="0"/>
        <pt x="783" y="883" on="0"/>
        <pt x="644" y="916" on="0"/>
        <pt x="387" y="989" on="0"/>
        <pt x="259" y="989" on="0"/>
        <pt x="197" y="948" on="0"/>
        <pt x="171" y="930" on="0"/>
        <pt x="164" y="930" on="1"/>
        <pt x="145" y="930" on="0"/>
        <pt x="145" y="946" on="1"/>
        <pt x="144" y="1224" on="0"/>
        <pt x="294" y="1274" on="1"/>
        <pt x="340" y="1290" on="0"/>
        <pt x="398" y="1290" on="1"/>
        <pt x="484" y="1290" on="0"/>
        <pt x="851" y="1186" on="0"/>
        <pt x="948" y="1186" on="0"/>
        <pt x="993" y="1205" on="0"/>
        <pt x="1029" y="1228" on="0"/>
        <pt x="1054" y="1247" on="0"/>
      </contour>
    </TTGlyph>
    <TTGlyph name="trademark" xMin="49" yMin="469" xMax="2638" yMax="1599">
      <contour>
        <pt x="49" y="1599" on="1"/>
        <pt x="1116" y="1599" on="1"/>
        <pt x="1116" y="1235" on="1"/>
        <pt x="803" y="1235" on="1"/>
        <pt x="803" y="469" on="1"/>
        <pt x="360" y="469" on="1"/>
        <pt x="360" y="1235" on="1"/>
        <pt x="49" y="1235" on="1"/>
      </contour>
      <contour>
        <pt x="1212" y="1599" on="1"/>
        <pt x="1370" y="1599" on="1"/>
        <pt x="1919" y="1087" on="1"/>
        <pt x="2482" y="1599" on="1"/>
        <pt x="2638" y="1599" on="1"/>
        <pt x="2638" y="469" on="1"/>
        <pt x="2173" y="469" on="1"/>
        <pt x="2173" y="834" on="1"/>
        <pt x="1882" y="520" on="1"/>
        <pt x="1602" y="827" on="1"/>
        <pt x="1602" y="469" on="1"/>
        <pt x="1212" y="469" on="1"/>
      </contour>
    </TTGlyph>
    <TTGlyph name="two" xMin="68" yMin="0" xMax="1626" yMax="1640">
      <contour>
        <pt x="190" y="289" on="1"/>
        <pt x="799" y="799" on="1"/>
        <pt x="922" y="902" on="0"/>
        <pt x="922" y="1014" on="1"/>
        <pt x="922" y="1073" on="0"/>
        <pt x="845" y="1149" on="0"/>
        <pt x="729" y="1149" on="0"/>
        <pt x="672" y="1130" on="1"/>
        <pt x="482" y="1068" on="0"/>
        <pt x="303" y="877" on="1"/>
        <pt x="68" y="1214" on="1"/>
        <pt x="190" y="1416" on="0"/>
        <pt x="674" y="1640" on="0"/>
        <pt x="1223" y="1640" on="0"/>
        <pt x="1410" y="1511" on="1"/>
        <pt x="1616" y="1369" on="0"/>
        <pt x="1616" y="1118" on="1"/>
        <pt x="1616" y="918" on="0"/>
        <pt x="1445" y="746" on="1"/>
        <pt x="1356" y="656" on="0"/>
        <pt x="1170" y="519" on="0"/>
        <pt x="1118" y="479" on="1"/>
        <pt x="1626" y="479" on="1"/>
        <pt x="1626" y="0" on="1"/>
        <pt x="190" y="0" on="1"/>
      </contour>
    </TTGlyph>
    <TTGlyph name="twosuperior" xMin="68" yMin="0" xMax="1313" yMax="1313">
      <contour>
        <pt x="166" y="231" on="1"/>
        <pt x="651" y="639" on="1"/>
        <pt x="750" y="721" on="0"/>
        <pt x="750" y="811" on="1"/>
        <pt x="750" y="857" on="0"/>
        <pt x="689" y="920" on="0"/>
        <pt x="596" y="920" on="0"/>
        <pt x="551" y="905" on="1"/>
        <pt x="404" y="856" on="0"/>
        <pt x="256" y="700" on="1"/>
        <pt x="68" y="971" on="1"/>
        <pt x="162" y="1132" on="0"/>
        <pt x="550" y="1313" on="0"/>
        <pt x="991" y="1313" on="0"/>
        <pt x="1305" y="1095" on="0"/>
        <pt x="1305" y="680" on="0"/>
        <pt x="1040" y="483" on="1"/>
        <pt x="970" y="431" on="0"/>
        <pt x="907" y="383" on="1"/>
        <pt x="1313" y="383" on="1"/>
        <pt x="1313" y="0" on="1"/>
        <pt x="166" y="0" on="1"/>
      </contour>
    </TTGlyph>
    <TTGlyph name="u" xMin="113" yMin="-30" xMax="1561" yMax="1243">
      <contour>
        <pt x="711" y="664" on="1"/>
        <pt x="711" y="336" on="0"/>
        <pt x="870" y="336" on="1"/>
        <pt x="950" y="336" on="0"/>
        <pt x="963" y="414" on="1"/>
        <pt x="967" y="438" on="0"/>
        <pt x="967" y="467" on="1"/>
        <pt x="967" y="1243" on="1"/>
        <pt x="1561" y="1243" on="1"/>
        <pt x="1561" y="0" on="1"/>
        <pt x="1233" y="0" on="1"/>
        <pt x="1090" y="195" on="1"/>
        <pt x="963" y="22" on="0"/>
        <pt x="723" y="-30" on="1"/>
        <pt x="429" y="-93" on="0"/>
        <pt x="249" y="70" on="1"/>
        <pt x="113" y="193" on="0"/>
        <pt x="113" y="395" on="1"/>
        <pt x="113" y="1243" on="1"/>
        <pt x="711" y="1243" on="1"/>
      </contour>
    </TTGlyph>
    <TTGlyph name="uacute" xMin="113" yMin="-30" xMax="1561" yMax="2038">
      <component glyphName="u" x="0" y="0" flags="0x1204"/>
      <component glyphName="acute" x="772" y="561" flags="0x1004"/>
    </TTGlyph>
    <TTGlyph name="ucircumflex" xMin="113" yMin="-30" xMax="1561" yMax="2072">
      <component glyphName="u" x="0" y="0" flags="0x1204"/>
      <component glyphName="circumflex" x="432" y="561" flags="0x1004"/>
    </TTGlyph>
    <TTGlyph name="udieresis" xMin="113" yMin="-30" xMax="1561" yMax="1845">
      <component glyphName="u" x="0" y="0" flags="0x1204"/>
      <component glyphName="dieresis" x="195" y="561" flags="0x1004"/>
    </TTGlyph>
    <TTGlyph name="ugrave" xMin="113" yMin="-30" xMax="1561" yMax="2037">
      <component glyphName="u" x="0" y="0" flags="0x1204"/>
      <component glyphName="grave" x="287" y="561" flags="0x1004"/>
    </TTGlyph>
    <TTGlyph name="uhungarumlaut" xMin="113" yMin="-30" xMax="1589" yMax="2046">
      <component glyphName="u" x="0" y="0" flags="0x1204"/>
      <component glyphName="hungarumlaut" x="436" y="561" flags="0x1004"/>
    </TTGlyph>
    <TTGlyph name="umacron" xMin="113" yMin="-30" xMax="1561" yMax="1804">
      <component glyphName="u" x="0" y="0" flags="0x1204"/>
      <component glyphName="macron" x="254" y="561" flags="0x1004"/>
    </TTGlyph>
    <TTGlyph name="underscore" xMin="123" yMin="-297" xMax="1036" yMax="0">
      <contour>
        <pt x="123" y="0" on="1"/>
        <pt x="1036" y="0" on="1"/>
        <pt x="1036" y="-297" on="1"/>
        <pt x="123" y="-297" on="1"/>
      </contour>
    </TTGlyph>
    <TTGlyph name="uni00AD" xMin="61" yMin="614" xMax="975" yMax="911">
      <contour>
        <pt x="61" y="911" on="1"/>
        <pt x="975" y="911" on="1"/>
        <pt x="975" y="614" on="1"/>
        <pt x="61" y="614" on="1"/>
      </contour>
    </TTGlyph>
    <TTGlyph name="uni0200" xMin="33" yMin="0" xMax="2099" yMax="2359">
      <component glyphName="A" x="0" y="0" flags="0x1204"/>
      <component glyphName="uni030F" x="250" y="874" flags="0x1004"/>
    </TTGlyph>
    <TTGlyph name="uni0201" xMin="84" yMin="-37" xMax="1608" yMax="2048">
      <component glyphName="a" x="0" y="0" flags="0x1204"/>
      <component glyphName="uni030F" x="112" y="563" flags="0x1004"/>
    </TTGlyph>
    <TTGlyph name="uni0202" xMin="33" yMin="0" xMax="2099" yMax="2324">
      <component glyphName="A" x="0" y="0" flags="0x1204"/>
      <component glyphName="uni0311" x="386" y="874" flags="0x1004"/>
    </TTGlyph>
    <TTGlyph name="uni0205" xMin="74" yMin="-37" xMax="1417" yMax="2046">
      <component glyphName="e" x="0" y="0" flags="0x1204"/>
      <component glyphName="uni030F" x="16" y="561" flags="0x1004"/>
    </TTGlyph>
    <TTGlyph name="uni0208" xMin="-237" yMin="0" xMax="791" yMax="2359">
      <component glyphName="I" x="0" y="0" flags="0x1204"/>
      <component glyphName="uni030F" x="-352" y="874" flags="0x1004"/>
    </TTGlyph>
    <TTGlyph name="uni0209" xMin="-325" yMin="0" xMax="703" yMax="2048">
      <component glyphName="dotlessi" x="0" y="0" flags="0x1204"/>
      <component glyphName="uni030F" x="-440" y="563" flags="0x1004"/>
    </TTGlyph>
    <TTGlyph name="uni020B" xMin="-200" yMin="0" xMax="910" yMax="2013">
      <component glyphName="dotlessi" x="0" y="0" flags="0x1204"/>
      <component glyphName="uni0311" x="-304" y="563" flags="0x1004"/>
    </TTGlyph>
</ttFont>
